G75*
G70*
%OFA0B0*%
%FSLAX24Y24*%
%IPPOS*%
%LPD*%
%AMOC8*
5,1,8,0,0,1.08239X$1,22.5*
%
%ADD10R,0.0591X0.0394*%
%ADD11R,0.0394X0.0591*%
%ADD12R,0.2362X0.2362*%
%ADD13R,0.0220X0.0102*%
%ADD14R,0.0394X0.0394*%
%ADD15R,0.0118X0.0118*%
%ADD16R,0.0102X0.0220*%
%ADD17R,0.0217X0.0472*%
%ADD18R,0.0394X0.0433*%
%ADD19R,0.0433X0.0394*%
%ADD20R,0.0709X0.0394*%
%ADD21R,0.0315X0.0315*%
%ADD22R,0.0354X0.0394*%
%ADD23R,0.0709X0.0630*%
%ADD24R,0.0394X0.0551*%
%ADD25R,0.0709X0.0157*%
D10*
X021058Y014205D03*
X021058Y014705D03*
X021058Y015205D03*
X021058Y015705D03*
X021058Y016205D03*
X021058Y016705D03*
X021058Y017205D03*
X021058Y017705D03*
X021058Y018205D03*
X021058Y018705D03*
X021058Y019205D03*
X021058Y019705D03*
X021058Y020205D03*
X021058Y020705D03*
X028342Y020705D03*
X028342Y020205D03*
X028342Y019705D03*
X028342Y019205D03*
X028342Y018705D03*
X028342Y018205D03*
X028342Y017705D03*
X028342Y017205D03*
X028342Y016705D03*
X028342Y016205D03*
X028342Y015705D03*
X028342Y015205D03*
X028342Y014705D03*
X028342Y014205D03*
D11*
X026956Y013520D03*
X026456Y013520D03*
X025956Y013520D03*
X025456Y013520D03*
X024956Y013520D03*
X024456Y013520D03*
X023956Y013520D03*
X023456Y013520D03*
X022956Y013520D03*
X022456Y013520D03*
D12*
X024818Y017673D03*
D13*
X029594Y012039D03*
X029594Y011842D03*
X029594Y011646D03*
X029594Y011449D03*
X029594Y011252D03*
X029594Y011055D03*
X029594Y010858D03*
X031406Y010858D03*
X031406Y011055D03*
X031406Y011252D03*
X031406Y011449D03*
X031406Y011646D03*
X031406Y011842D03*
X031406Y012039D03*
D14*
X030500Y011449D03*
D15*
X031327Y010622D03*
D16*
X031091Y010543D03*
X030894Y010543D03*
X030697Y010543D03*
X030500Y010543D03*
X030303Y010543D03*
X030106Y010543D03*
X029909Y010543D03*
X029909Y012354D03*
X030106Y012354D03*
X030303Y012354D03*
X030500Y012354D03*
X030697Y012354D03*
X030894Y012354D03*
X031091Y012354D03*
D17*
X031126Y016587D03*
X031500Y016587D03*
X031874Y016587D03*
X031874Y017611D03*
X031126Y017611D03*
D18*
X033415Y018249D03*
X034085Y018249D03*
X034115Y016999D03*
X034785Y016999D03*
X031950Y014483D03*
X031950Y013814D03*
X031150Y013814D03*
X031150Y014483D03*
X028435Y009849D03*
X027765Y009849D03*
X027815Y008599D03*
X028485Y008599D03*
X029865Y006649D03*
X030535Y006649D03*
X030535Y005699D03*
X029865Y005699D03*
X031565Y005699D03*
X032235Y005699D03*
X032185Y004499D03*
X031515Y004499D03*
X030535Y004499D03*
X029865Y004499D03*
X032415Y008699D03*
X033085Y008699D03*
X034065Y008699D03*
X034735Y008699D03*
X023635Y010299D03*
X022965Y010299D03*
X019700Y020064D03*
X019700Y020733D03*
X018650Y020733D03*
X018650Y020064D03*
D19*
X019065Y018299D03*
X019735Y018299D03*
X019585Y015649D03*
X018915Y015649D03*
X022950Y012133D03*
X022950Y011464D03*
X029600Y008483D03*
X029600Y007814D03*
X030850Y007814D03*
X030850Y008483D03*
X031165Y015599D03*
X031835Y015599D03*
X031835Y018699D03*
X031165Y018699D03*
X016500Y022464D03*
X016500Y023133D03*
X011100Y023183D03*
X011100Y022514D03*
D20*
X019800Y017441D03*
X019800Y016457D03*
D21*
X024455Y010299D03*
X025045Y010299D03*
X035100Y015103D03*
X035100Y015694D03*
D22*
X019257Y022584D03*
X019257Y023214D03*
X017643Y023214D03*
X017643Y022584D03*
X013557Y022584D03*
X013557Y023214D03*
X011943Y023214D03*
X011943Y022584D03*
D23*
X033600Y015650D03*
X033600Y014548D03*
D24*
X034126Y007682D03*
X034874Y007682D03*
X034500Y006816D03*
X033274Y007632D03*
X032526Y007632D03*
X032900Y006766D03*
X033900Y005382D03*
X033526Y004516D03*
X034274Y004516D03*
D25*
X034559Y011581D03*
X034559Y011837D03*
X034559Y012092D03*
X034559Y012348D03*
X034559Y012604D03*
M02*
