G75*
G70*
%OFA0B0*%
%FSLAX24Y24*%
%IPPOS*%
%LPD*%
%AMOC8*
5,1,8,0,0,1.08239X$1,22.5*
%
%ADD10OC8,0.0660*%
%ADD11C,0.0740*%
%ADD12OC8,0.0850*%
%ADD13C,0.1102*%
%ADD14C,0.0591*%
%ADD15C,0.0396*%
%ADD16C,0.0160*%
D10*
X001353Y002099D03*
X002353Y002099D03*
X002356Y021896D03*
X001356Y021896D03*
X033341Y021899D03*
X034341Y021899D03*
X034341Y002099D03*
X033341Y002099D03*
D11*
X028581Y000930D03*
X027581Y000930D03*
X026581Y000930D03*
X025569Y000899D03*
X024569Y000899D03*
X023569Y000899D03*
X022552Y000927D03*
X021552Y000927D03*
X020552Y000927D03*
X019529Y000925D03*
X018529Y000925D03*
X017529Y000925D03*
X016500Y000899D03*
X015500Y000899D03*
X014500Y000899D03*
X013500Y000899D03*
X009703Y022899D03*
X008703Y022899D03*
X007703Y022899D03*
D12*
X008150Y017199D03*
X009150Y017199D03*
X010150Y017199D03*
X011150Y017199D03*
X012150Y017199D03*
X013150Y017199D03*
X014150Y017199D03*
X014150Y016199D03*
X013150Y016199D03*
X012150Y016199D03*
X011150Y016199D03*
X010150Y016199D03*
X009150Y016199D03*
X008150Y016199D03*
X007150Y016199D03*
X006150Y016199D03*
X005150Y016199D03*
X004150Y016199D03*
X003150Y016199D03*
X002150Y016199D03*
X002150Y017199D03*
X003150Y017199D03*
X004150Y017199D03*
X005150Y017199D03*
X006150Y017199D03*
X007150Y017199D03*
X007150Y015199D03*
X006150Y015199D03*
X005150Y015199D03*
X004150Y015199D03*
X003150Y015199D03*
X002150Y015199D03*
X002150Y014199D03*
X003150Y014199D03*
X004150Y014199D03*
X005150Y014199D03*
X006150Y014199D03*
X007150Y014199D03*
X008150Y014199D03*
X009150Y014199D03*
X010150Y014199D03*
X011150Y014199D03*
X012150Y014199D03*
X013150Y014199D03*
X014150Y014199D03*
X014150Y015199D03*
X013150Y015199D03*
X012150Y015199D03*
X011150Y015199D03*
X010150Y015199D03*
X009150Y015199D03*
X008150Y015199D03*
X008150Y013199D03*
X009150Y013199D03*
X010150Y013199D03*
X011150Y013199D03*
X012150Y013199D03*
X013150Y013199D03*
X014150Y013199D03*
X014150Y012199D03*
X013150Y012199D03*
X012150Y012199D03*
X011150Y012199D03*
X010150Y012199D03*
X009150Y012199D03*
X008150Y012199D03*
X007150Y012199D03*
X006150Y012199D03*
X005150Y012199D03*
X004150Y012199D03*
X003150Y012199D03*
X002150Y012199D03*
X002150Y011199D03*
X003150Y011199D03*
X004150Y011199D03*
X005150Y011199D03*
X006150Y011199D03*
X007150Y011199D03*
X008150Y011199D03*
X009150Y011199D03*
X010150Y011199D03*
X011150Y011199D03*
X012150Y011199D03*
X013150Y011199D03*
X014150Y011199D03*
X014150Y010199D03*
X013150Y010199D03*
X012150Y010199D03*
X011150Y010199D03*
X010150Y010199D03*
X009150Y010199D03*
X008150Y010199D03*
X007150Y010199D03*
X006150Y010199D03*
X005150Y010199D03*
X004150Y010199D03*
X003150Y010199D03*
X002150Y010199D03*
X002150Y009199D03*
X003150Y009199D03*
X004150Y009199D03*
X005150Y009199D03*
X006150Y009199D03*
X007150Y009199D03*
X008150Y009199D03*
X009150Y009199D03*
X010150Y009199D03*
X011150Y009199D03*
X012150Y009199D03*
X013150Y009199D03*
X014150Y009199D03*
X014150Y008199D03*
X013150Y008199D03*
X012150Y008199D03*
X011150Y008199D03*
X010150Y008199D03*
X009150Y008199D03*
X008150Y008199D03*
X007150Y008199D03*
X006150Y008199D03*
X005150Y008199D03*
X004150Y008199D03*
X003150Y008199D03*
X002150Y008199D03*
X002150Y007199D03*
X003150Y007199D03*
X004150Y007199D03*
X005150Y007199D03*
X006150Y007199D03*
X007150Y007199D03*
X008150Y007199D03*
X009150Y007199D03*
X010150Y007199D03*
X011150Y007199D03*
X012150Y007199D03*
X013150Y007199D03*
X014150Y007199D03*
X014150Y006199D03*
X013150Y006199D03*
X012150Y006199D03*
X011150Y006199D03*
X010150Y006199D03*
X009150Y006199D03*
X008150Y006199D03*
X007150Y006199D03*
X006150Y006199D03*
X005150Y006199D03*
X004150Y006199D03*
X003150Y006199D03*
X002150Y006199D03*
X002150Y005199D03*
X003150Y005199D03*
X004150Y005199D03*
X005150Y005199D03*
X006150Y005199D03*
X007150Y005199D03*
X008150Y005199D03*
X009150Y005199D03*
X010150Y005199D03*
X011150Y005199D03*
X012150Y005199D03*
X013150Y005199D03*
X014150Y005199D03*
X007150Y013199D03*
X006150Y013199D03*
X005150Y013199D03*
X004150Y013199D03*
X003150Y013199D03*
X002150Y013199D03*
D13*
X035583Y013510D03*
X035583Y010675D03*
D14*
X034559Y011128D03*
X034559Y013037D03*
D15*
X033600Y013599D03*
X032700Y012599D03*
X032600Y011799D03*
X033000Y011199D03*
X032400Y010949D03*
X033650Y011249D03*
X033650Y008999D03*
X033900Y006749D03*
X034800Y005849D03*
X032100Y006799D03*
X030100Y007299D03*
X028850Y007799D03*
X029450Y009099D03*
X027000Y011099D03*
X027000Y011899D03*
X024900Y014249D03*
X025350Y014399D03*
X025700Y015049D03*
X026150Y014949D03*
X026550Y014649D03*
X027000Y014749D03*
X027450Y015049D03*
X029600Y014149D03*
X032450Y017399D03*
X032400Y018899D03*
X029250Y018549D03*
X029200Y019199D03*
X029200Y019949D03*
X029250Y020699D03*
X022350Y020249D03*
X021850Y019749D03*
X020200Y019549D03*
X017700Y017949D03*
X018500Y016749D03*
X020400Y015999D03*
X021700Y016549D03*
X022100Y017099D03*
X020350Y014849D03*
X019950Y014149D03*
X021900Y013899D03*
X021850Y012849D03*
X020000Y011249D03*
X021600Y008299D03*
X023050Y007749D03*
X025050Y007999D03*
X022300Y005599D03*
X021150Y005999D03*
X019000Y005249D03*
X018700Y006349D03*
X018250Y007199D03*
X019800Y003599D03*
X020950Y003149D03*
X022150Y003149D03*
X025150Y003699D03*
X025200Y005099D03*
X029300Y004599D03*
X013850Y002149D03*
X017350Y020049D03*
X014750Y020799D03*
X017200Y021949D03*
X016000Y022449D03*
X019950Y023099D03*
X011250Y022099D03*
X010450Y021299D03*
D16*
X000750Y002499D02*
X001150Y002099D01*
X001353Y002099D01*
X001450Y002196D01*
X001450Y002449D01*
X001900Y002899D01*
X002850Y002899D01*
X003250Y002499D01*
X009400Y002499D01*
X010100Y001799D01*
X016150Y001799D01*
X016500Y001449D01*
X016500Y002649D01*
X017350Y003499D01*
X017350Y006299D01*
X018250Y007199D01*
X018100Y007749D02*
X018100Y011949D01*
X017750Y012299D01*
X017750Y017899D01*
X017700Y017949D01*
X017100Y018449D02*
X014750Y020799D01*
X015050Y021299D02*
X010450Y021299D01*
X009400Y021649D02*
X008900Y022149D01*
X008900Y022702D01*
X008703Y022899D01*
X007703Y022899D02*
X007650Y022846D01*
X007650Y021849D01*
X006250Y020449D01*
X001350Y020449D01*
X000750Y019849D01*
X000750Y002499D01*
X013850Y002149D02*
X015550Y002149D01*
X017000Y003599D01*
X017000Y006649D01*
X018100Y007749D01*
X018700Y006349D02*
X018700Y011899D01*
X018250Y012349D01*
X018250Y016499D01*
X018500Y016749D01*
X018750Y016099D02*
X018750Y012599D01*
X019250Y012099D01*
X019250Y005499D01*
X019000Y005249D01*
X019600Y005149D02*
X017400Y002949D01*
X017400Y001053D01*
X017529Y000925D01*
X016500Y000899D02*
X016500Y001449D01*
X019529Y000925D02*
X019650Y001046D01*
X019650Y002699D01*
X020800Y003849D01*
X020800Y013349D01*
X020350Y013799D01*
X020350Y014849D01*
X020200Y015399D02*
X019500Y014699D01*
X019500Y013849D01*
X019700Y013649D01*
X019700Y013249D01*
X020000Y012949D01*
X020000Y011249D01*
X019600Y012699D02*
X019600Y005149D01*
X020450Y004249D02*
X019800Y003599D01*
X020450Y004249D02*
X020450Y013199D01*
X019950Y013699D01*
X019950Y014149D01*
X019100Y013199D02*
X019600Y012699D01*
X019100Y013199D02*
X019100Y015449D01*
X020200Y016549D01*
X021700Y016549D01*
X022100Y017099D02*
X019750Y017099D01*
X018750Y016099D01*
X020200Y015799D02*
X020200Y015399D01*
X020200Y015799D02*
X020400Y015999D01*
X021900Y013899D02*
X021150Y013149D01*
X021150Y008749D01*
X021600Y008299D01*
X021850Y008949D02*
X023050Y007749D01*
X022900Y007049D02*
X022900Y001276D01*
X022552Y000927D01*
X023569Y000899D02*
X023900Y001229D01*
X023900Y006899D01*
X024450Y007449D01*
X024450Y008049D01*
X025350Y008949D01*
X025350Y014399D01*
X024900Y014249D02*
X024900Y009099D01*
X024100Y008299D01*
X024100Y008249D01*
X022900Y007049D01*
X021900Y005999D02*
X022300Y005599D01*
X021900Y005999D02*
X021150Y005999D01*
X024750Y006999D02*
X024750Y001079D01*
X024569Y000899D01*
X026750Y002099D02*
X028050Y002099D01*
X028500Y001011D02*
X028581Y000930D01*
X028500Y001011D02*
X028500Y005699D01*
X027000Y007199D01*
X027000Y011099D01*
X026550Y011449D02*
X027000Y011899D01*
X026550Y011449D02*
X026550Y007749D01*
X025200Y006399D01*
X025200Y005099D01*
X025150Y003699D02*
X026750Y002099D01*
X029300Y004599D02*
X029300Y005549D01*
X027500Y007349D01*
X027500Y014999D01*
X027450Y015049D01*
X027000Y014749D02*
X027000Y015799D01*
X023900Y018899D01*
X018950Y018899D01*
X018800Y019049D01*
X017000Y019049D01*
X015050Y021299D01*
X013400Y021949D02*
X013100Y021649D01*
X009400Y021649D01*
X011250Y022099D02*
X012800Y022099D01*
X013250Y022549D01*
X015900Y022549D01*
X016000Y022449D01*
X017200Y021949D02*
X017350Y021799D01*
X017350Y020049D01*
X017100Y018449D02*
X018800Y018449D01*
X018850Y018399D01*
X023850Y018399D01*
X026000Y016249D01*
X026150Y016249D01*
X026550Y015849D01*
X026550Y014649D01*
X026150Y014949D02*
X026150Y008399D01*
X024750Y006999D01*
X025050Y007999D02*
X025700Y008649D01*
X025700Y015049D01*
X028950Y013499D02*
X029600Y014149D01*
X029650Y014099D01*
X028950Y013499D02*
X028950Y008749D01*
X029300Y008399D01*
X029650Y008399D01*
X029900Y008149D01*
X031050Y008149D01*
X032850Y006749D01*
X033900Y006749D01*
X034800Y005849D02*
X034800Y008549D01*
X032400Y010949D01*
X032400Y011299D01*
X032100Y011599D01*
X032100Y011949D01*
X032350Y012199D01*
X032350Y012249D01*
X032700Y012599D01*
X032600Y011799D02*
X033000Y011399D01*
X033000Y011199D01*
X033650Y011249D02*
X033650Y013549D01*
X033600Y013599D01*
X032450Y017399D02*
X032450Y018049D01*
X033100Y018699D01*
X033100Y021658D01*
X033341Y021899D01*
X033000Y022699D02*
X032400Y022099D01*
X029700Y022099D01*
X028500Y020899D01*
X021050Y020899D01*
X020800Y021149D01*
X020800Y023099D01*
X020400Y023499D01*
X019000Y023499D01*
X018550Y023049D01*
X010900Y023049D01*
X010550Y023399D01*
X010200Y023399D01*
X010100Y023499D01*
X007450Y023499D01*
X007150Y023199D01*
X007150Y022499D01*
X006400Y021749D01*
X004050Y021749D01*
X003100Y022699D01*
X001750Y022699D01*
X001400Y022349D01*
X001400Y021939D01*
X001356Y021896D01*
X013400Y021949D02*
X017200Y021949D01*
X019950Y023099D02*
X020200Y022849D01*
X020200Y019549D01*
X021850Y019749D02*
X022050Y019549D01*
X025700Y019549D01*
X027900Y017349D01*
X027900Y007949D01*
X029050Y006799D01*
X032100Y006799D01*
X030100Y007299D02*
X029900Y007299D01*
X029100Y008099D01*
X029050Y008099D01*
X028600Y008549D01*
X028600Y017899D01*
X029250Y018549D01*
X028850Y018849D02*
X028250Y018249D01*
X028250Y008099D01*
X028550Y007799D01*
X028850Y007799D01*
X029450Y009099D02*
X033550Y009099D01*
X033650Y008999D01*
X022150Y003149D02*
X020950Y003149D01*
X021850Y008949D02*
X021850Y012849D01*
X028850Y018849D02*
X028975Y018974D01*
X029200Y019199D01*
X029200Y019949D02*
X022650Y019949D01*
X022350Y020249D01*
X029250Y020699D02*
X029450Y020499D01*
X031350Y020499D01*
X032400Y019449D01*
X032400Y018899D01*
X034341Y021899D02*
X034341Y022508D01*
X034150Y022699D01*
X033000Y022699D01*
M02*
