G75*
G70*
%OFA0B0*%
%FSLAX24Y24*%
%IPPOS*%
%LPD*%
%AMOC8*
5,1,8,0,0,1.08239X$1,22.5*
%
%ADD10C,0.0040*%
%ADD11C,0.0080*%
%ADD12C,0.0100*%
%ADD13R,0.0118X0.0059*%
%ADD14R,0.0118X0.0118*%
%ADD15C,0.0050*%
%ADD16R,0.0059X0.0118*%
%ADD17C,0.0010*%
%ADD18C,0.0060*%
D10*
X013210Y001705D02*
X013210Y001879D01*
X013296Y001966D01*
X013383Y001966D01*
X013470Y001879D01*
X013557Y001966D01*
X013643Y001966D01*
X013730Y001879D01*
X013730Y001705D01*
X013643Y001619D01*
X013470Y001792D02*
X013470Y001879D01*
X013643Y002134D02*
X013643Y002221D01*
X013730Y002221D01*
X013730Y002134D01*
X013643Y002134D01*
X013643Y002392D02*
X013730Y002479D01*
X013730Y002652D01*
X013643Y002739D01*
X013557Y002739D01*
X013470Y002652D01*
X013470Y002566D01*
X013470Y002652D02*
X013383Y002739D01*
X013296Y002739D01*
X013210Y002652D01*
X013210Y002479D01*
X013296Y002392D01*
X013210Y001705D02*
X013296Y001619D01*
X014210Y001605D02*
X014296Y001519D01*
X014643Y001519D01*
X014730Y001605D01*
X014730Y001779D01*
X014643Y001866D01*
X014470Y001866D01*
X014470Y001692D01*
X014296Y001866D02*
X014210Y001779D01*
X014210Y001605D01*
X014210Y002034D02*
X014730Y002381D01*
X014210Y002381D01*
X014210Y002550D02*
X014210Y002810D01*
X014296Y002897D01*
X014643Y002897D01*
X014730Y002810D01*
X014730Y002550D01*
X014210Y002550D01*
X014210Y002034D02*
X014730Y002034D01*
X015210Y002034D02*
X015730Y002381D01*
X015210Y002381D01*
X015210Y002550D02*
X015210Y002810D01*
X015296Y002897D01*
X015643Y002897D01*
X015730Y002810D01*
X015730Y002550D01*
X015210Y002550D01*
X015210Y002034D02*
X015730Y002034D01*
X015643Y001866D02*
X015470Y001866D01*
X015470Y001692D01*
X015643Y001519D02*
X015296Y001519D01*
X015210Y001605D01*
X015210Y001779D01*
X015296Y001866D01*
X015643Y001866D02*
X015730Y001779D01*
X015730Y001605D01*
X015643Y001519D01*
X016310Y001719D02*
X016310Y002066D01*
X016310Y002234D02*
X016657Y002234D01*
X016830Y002408D01*
X016657Y002581D01*
X016310Y002581D01*
X016570Y002066D02*
X016483Y001979D01*
X016483Y001892D01*
X016570Y001719D01*
X016310Y001719D01*
X016570Y002066D02*
X016743Y002066D01*
X016830Y001979D01*
X016830Y001805D01*
X016743Y001719D01*
X017310Y001692D02*
X017310Y001519D01*
X017310Y001605D02*
X017830Y001605D01*
X017830Y001519D02*
X017830Y001692D01*
X017743Y001862D02*
X017830Y001949D01*
X017830Y002123D01*
X017743Y002209D01*
X017396Y002209D01*
X017310Y002123D01*
X017310Y001949D01*
X017396Y001862D01*
X017743Y001862D01*
X018310Y001949D02*
X018396Y001862D01*
X018743Y001862D01*
X018830Y001949D01*
X018830Y002123D01*
X018743Y002209D01*
X018396Y002209D01*
X018310Y002123D01*
X018310Y001949D01*
X018310Y001692D02*
X018310Y001519D01*
X018310Y001605D02*
X018830Y001605D01*
X018830Y001519D02*
X018830Y001692D01*
X019310Y001692D02*
X019310Y001519D01*
X019310Y001605D02*
X019830Y001605D01*
X019830Y001519D02*
X019830Y001692D01*
X019743Y001862D02*
X019830Y001949D01*
X019830Y002123D01*
X019743Y002209D01*
X019396Y002209D01*
X019310Y002123D01*
X019310Y001949D01*
X019396Y001862D01*
X019743Y001862D01*
X019830Y002378D02*
X019483Y002725D01*
X019396Y002725D01*
X019310Y002638D01*
X019310Y002465D01*
X019396Y002378D01*
X018830Y002465D02*
X018743Y002378D01*
X018830Y002465D02*
X018830Y002638D01*
X018743Y002725D01*
X018657Y002725D01*
X018570Y002638D01*
X018570Y002552D01*
X018570Y002638D02*
X018483Y002725D01*
X018396Y002725D01*
X018310Y002638D01*
X018310Y002465D01*
X018396Y002378D01*
X017830Y002465D02*
X017830Y002638D01*
X017743Y002725D01*
X017657Y002725D01*
X017570Y002638D01*
X017570Y002552D01*
X017570Y002638D02*
X017483Y002725D01*
X017396Y002725D01*
X017310Y002638D01*
X017310Y002465D01*
X017396Y002378D01*
X017743Y002378D02*
X017830Y002465D01*
X017743Y002894D02*
X017830Y002981D01*
X017830Y003154D01*
X017743Y003241D01*
X017570Y003241D01*
X017483Y003154D01*
X017483Y003067D01*
X017570Y002894D01*
X017310Y002894D01*
X017310Y003241D01*
X018310Y003154D02*
X018570Y002894D01*
X018570Y003241D01*
X018830Y003154D02*
X018310Y003154D01*
X019310Y003241D02*
X019310Y002894D01*
X019310Y003241D02*
X019396Y003241D01*
X019743Y002894D01*
X019830Y002894D01*
X019830Y002725D02*
X019830Y002378D01*
X020310Y002465D02*
X020396Y002378D01*
X020310Y002465D02*
X020310Y002638D01*
X020396Y002725D01*
X020483Y002725D01*
X020830Y002378D01*
X020830Y002725D01*
X020743Y002894D02*
X020830Y002981D01*
X020830Y003154D01*
X020743Y003241D01*
X020657Y003241D01*
X020570Y003154D01*
X020570Y002894D01*
X020743Y002894D01*
X020570Y002894D02*
X020396Y003067D01*
X020310Y003241D01*
X021310Y003241D02*
X021310Y002894D01*
X021570Y002894D01*
X021483Y003067D01*
X021483Y003154D01*
X021570Y003241D01*
X021743Y003241D01*
X021830Y003154D01*
X021830Y002981D01*
X021743Y002894D01*
X021830Y002725D02*
X021830Y002378D01*
X021483Y002725D01*
X021396Y002725D01*
X021310Y002638D01*
X021310Y002465D01*
X021396Y002378D01*
X021396Y002209D02*
X021310Y002123D01*
X021310Y001949D01*
X021396Y001862D01*
X021743Y001862D01*
X021830Y001949D01*
X021830Y002123D01*
X021743Y002209D01*
X021396Y002209D01*
X021310Y001692D02*
X021310Y001519D01*
X021310Y001605D02*
X021830Y001605D01*
X021830Y001519D02*
X021830Y001692D01*
X022310Y001692D02*
X022310Y001519D01*
X022310Y001605D02*
X022830Y001605D01*
X022830Y001519D02*
X022830Y001692D01*
X022743Y001862D02*
X022830Y001949D01*
X022830Y002123D01*
X022743Y002209D01*
X022396Y002209D01*
X022310Y002123D01*
X022310Y001949D01*
X022396Y001862D01*
X022743Y001862D01*
X022830Y002378D02*
X022830Y002725D01*
X022830Y002552D02*
X022310Y002552D01*
X022483Y002378D01*
X023310Y002552D02*
X023483Y002378D01*
X023396Y002209D02*
X023310Y002123D01*
X023310Y001949D01*
X023396Y001862D01*
X023743Y001862D01*
X023830Y001949D01*
X023830Y002123D01*
X023743Y002209D01*
X023396Y002209D01*
X023310Y002552D02*
X023830Y002552D01*
X023830Y002725D02*
X023830Y002378D01*
X024310Y002552D02*
X024483Y002378D01*
X024396Y002209D02*
X024310Y002123D01*
X024310Y001949D01*
X024396Y001862D01*
X024743Y001862D01*
X024830Y001949D01*
X024830Y002123D01*
X024743Y002209D01*
X024396Y002209D01*
X024310Y002552D02*
X024830Y002552D01*
X024830Y002725D02*
X024830Y002378D01*
X025310Y002552D02*
X025830Y002552D01*
X025830Y002725D02*
X025830Y002378D01*
X025743Y002209D02*
X025396Y002209D01*
X025310Y002123D01*
X025310Y001949D01*
X025396Y001862D01*
X025743Y001862D01*
X025830Y001949D01*
X025830Y002123D01*
X025743Y002209D01*
X025483Y002378D02*
X025310Y002552D01*
X025570Y002894D02*
X025570Y003241D01*
X025830Y003154D02*
X025310Y003154D01*
X025570Y002894D01*
X024830Y002894D02*
X024743Y002894D01*
X024396Y003241D01*
X024310Y003241D01*
X024310Y002894D01*
X023830Y002981D02*
X023743Y002894D01*
X023657Y002894D01*
X023570Y002981D01*
X023570Y003154D01*
X023657Y003241D01*
X023743Y003241D01*
X023830Y003154D01*
X023830Y002981D01*
X023570Y002981D02*
X023483Y002894D01*
X023396Y002894D01*
X023310Y002981D01*
X023310Y003154D01*
X023396Y003241D01*
X023483Y003241D01*
X023570Y003154D01*
X022830Y003154D02*
X022830Y002981D01*
X022743Y002894D01*
X022570Y002981D02*
X022570Y003241D01*
X022743Y003241D02*
X022396Y003241D01*
X022310Y003154D01*
X022310Y002981D01*
X022396Y002894D01*
X022483Y002894D01*
X022570Y002981D01*
X022830Y003154D02*
X022743Y003241D01*
X020830Y002123D02*
X020743Y002209D01*
X020396Y002209D01*
X020310Y002123D01*
X020310Y001949D01*
X020396Y001862D01*
X020743Y001862D01*
X020830Y001949D01*
X020830Y002123D01*
X020830Y001692D02*
X020830Y001519D01*
X020830Y001605D02*
X020310Y001605D01*
X020310Y001519D02*
X020310Y001692D01*
X023310Y001692D02*
X023310Y001519D01*
X023310Y001605D02*
X023830Y001605D01*
X023830Y001519D02*
X023830Y001692D01*
X024310Y001692D02*
X024310Y001519D01*
X024310Y001605D02*
X024830Y001605D01*
X024830Y001519D02*
X024830Y001692D01*
X025310Y001692D02*
X025310Y001519D01*
X025310Y001605D02*
X025830Y001605D01*
X025830Y001519D02*
X025830Y001692D01*
X026310Y001692D02*
X026310Y001519D01*
X026310Y001605D02*
X026830Y001605D01*
X026830Y001519D02*
X026830Y001692D01*
X026743Y001862D02*
X026830Y001949D01*
X026830Y002123D01*
X026743Y002209D01*
X026396Y002209D01*
X026310Y002123D01*
X026310Y001949D01*
X026396Y001862D01*
X026743Y001862D01*
X026830Y002378D02*
X026830Y002725D01*
X026830Y002894D02*
X026483Y003241D01*
X026396Y003241D01*
X026310Y003154D01*
X026310Y002981D01*
X026396Y002894D01*
X026310Y002552D02*
X026830Y002552D01*
X026483Y002378D02*
X026310Y002552D01*
X026830Y002894D02*
X026830Y003241D01*
X027310Y002725D02*
X027310Y002378D01*
X027570Y002378D01*
X027483Y002552D01*
X027483Y002638D01*
X027570Y002725D01*
X027743Y002725D01*
X027830Y002638D01*
X027830Y002465D01*
X027743Y002378D01*
X027743Y002209D02*
X027396Y002209D01*
X027310Y002123D01*
X027310Y001949D01*
X027396Y001862D01*
X027743Y001862D01*
X027830Y001949D01*
X027830Y002123D01*
X027743Y002209D01*
X027830Y001692D02*
X027830Y001519D01*
X027830Y001605D02*
X027310Y001605D01*
X027310Y001519D02*
X027310Y001692D01*
X028310Y001692D02*
X028310Y001519D01*
X028310Y001605D02*
X028830Y001605D01*
X028830Y001519D02*
X028830Y001692D01*
X028743Y001862D02*
X028830Y001949D01*
X028830Y002123D01*
X028743Y002209D01*
X028396Y002209D01*
X028310Y002123D01*
X028310Y001949D01*
X028396Y001862D01*
X028743Y001862D01*
X028830Y002378D02*
X028483Y002725D01*
X028396Y002725D01*
X028310Y002638D01*
X028310Y002465D01*
X028396Y002378D01*
X028830Y002378D02*
X028830Y002725D01*
X013730Y003081D02*
X013557Y003255D01*
X013210Y003255D01*
X013210Y002908D02*
X013557Y002908D01*
X013730Y003081D01*
X013390Y021619D02*
X013390Y022139D01*
X013217Y022139D02*
X013564Y022139D01*
X013048Y022052D02*
X012962Y022139D01*
X012788Y022139D01*
X012701Y022052D01*
X012701Y021705D01*
X012788Y021619D01*
X012962Y021619D01*
X013048Y021705D01*
X013048Y022052D01*
X012533Y022052D02*
X012533Y021705D01*
X012446Y021619D01*
X012272Y021619D01*
X012186Y021705D01*
X012186Y022052D01*
X012272Y022139D01*
X012446Y022139D01*
X012533Y022052D01*
X012017Y022052D02*
X012017Y021966D01*
X011930Y021879D01*
X011670Y021879D01*
X011670Y021619D02*
X011670Y022139D01*
X011930Y022139D01*
X012017Y022052D01*
X011930Y021879D02*
X012017Y021792D01*
X012017Y021705D01*
X011930Y021619D01*
X011670Y021619D01*
X010255Y021619D02*
X010081Y021792D01*
X010168Y021792D02*
X009908Y021792D01*
X009908Y021619D02*
X009908Y022139D01*
X010168Y022139D01*
X010255Y022052D01*
X010255Y021879D01*
X010168Y021792D01*
X009739Y021619D02*
X009392Y021619D01*
X009392Y022139D01*
X009739Y022139D01*
X009565Y021879D02*
X009392Y021879D01*
X009223Y021792D02*
X009050Y021619D01*
X008876Y021792D01*
X008876Y022139D01*
X008706Y022139D02*
X008533Y022139D01*
X008619Y022139D02*
X008619Y021619D01*
X008533Y021619D02*
X008706Y021619D01*
X008364Y021619D02*
X008017Y021619D01*
X008017Y022139D01*
X008364Y022139D01*
X008190Y021879D02*
X008017Y021879D01*
X007848Y022052D02*
X007762Y022139D01*
X007588Y022139D01*
X007501Y022052D01*
X007501Y021705D01*
X007588Y021619D01*
X007762Y021619D01*
X007848Y021705D01*
X007333Y021619D02*
X006986Y021619D01*
X006986Y022139D01*
X007333Y022139D01*
X007159Y021879D02*
X006986Y021879D01*
X006817Y021879D02*
X006730Y021792D01*
X006470Y021792D01*
X006470Y021619D02*
X006470Y022139D01*
X006730Y022139D01*
X006817Y022052D01*
X006817Y021879D01*
X006643Y021792D02*
X006817Y021619D01*
X009223Y021792D02*
X009223Y022139D01*
X017670Y022139D02*
X017670Y021619D01*
X017670Y021792D02*
X017930Y021792D01*
X018017Y021879D01*
X018017Y022052D01*
X017930Y022139D01*
X017670Y022139D01*
X018186Y022052D02*
X018186Y021966D01*
X018272Y021879D01*
X018446Y021879D01*
X018533Y021792D01*
X018533Y021705D01*
X018446Y021619D01*
X018272Y021619D01*
X018186Y021705D01*
X018017Y021619D02*
X017843Y021792D01*
X018186Y022052D02*
X018272Y022139D01*
X018446Y022139D01*
X018533Y022052D01*
X018701Y022139D02*
X019048Y022139D01*
X018875Y022139D02*
X018875Y021619D01*
D11*
X002853Y002849D02*
X002853Y001349D01*
X013000Y001149D02*
X013000Y000649D01*
X013250Y000399D01*
X013750Y000399D01*
X014000Y000649D01*
X014250Y000399D01*
X014750Y000399D01*
X015000Y000649D01*
X015000Y001149D01*
X014750Y001399D01*
X014250Y001399D01*
X014000Y001149D01*
X013750Y001399D01*
X013250Y001399D01*
X013000Y001149D01*
X015000Y001149D02*
X015000Y000649D01*
X015250Y000399D01*
X015750Y000399D01*
X016000Y000649D01*
X016250Y000399D01*
X016750Y000399D01*
X017000Y000649D01*
X017000Y001149D01*
X016750Y001399D01*
X016250Y001399D01*
X016000Y001149D01*
X015750Y001399D01*
X015250Y001399D01*
X015000Y001149D01*
X017029Y001175D02*
X017029Y000675D01*
X017279Y000425D01*
X017779Y000425D01*
X018029Y000675D01*
X018279Y000425D01*
X018779Y000425D01*
X019029Y000675D01*
X019279Y000425D01*
X019779Y000425D01*
X020029Y000675D01*
X020029Y001175D01*
X019779Y001425D01*
X019279Y001425D01*
X019029Y001175D01*
X018779Y001425D01*
X018279Y001425D01*
X018029Y001175D01*
X017779Y001425D01*
X017279Y001425D01*
X017029Y001175D01*
X020052Y001177D02*
X020052Y000677D01*
X020302Y000427D01*
X020802Y000427D01*
X021052Y000677D01*
X021302Y000427D01*
X021802Y000427D01*
X022052Y000677D01*
X022302Y000427D01*
X022802Y000427D01*
X023052Y000677D01*
X023052Y001177D01*
X022802Y001427D01*
X022302Y001427D01*
X022052Y001177D01*
X021802Y001427D01*
X021302Y001427D01*
X021052Y001177D01*
X020802Y001427D01*
X020302Y001427D01*
X020052Y001177D01*
X023069Y001149D02*
X023069Y000649D01*
X023319Y000399D01*
X023819Y000399D01*
X024069Y000649D01*
X024319Y000399D01*
X024819Y000399D01*
X025069Y000649D01*
X025319Y000399D01*
X025819Y000399D01*
X026069Y000649D01*
X026069Y001149D01*
X025819Y001399D01*
X025319Y001399D01*
X025069Y001149D01*
X024819Y001399D01*
X024319Y001399D01*
X024069Y001149D01*
X023819Y001399D01*
X023319Y001399D01*
X023069Y001149D01*
X026081Y001180D02*
X026081Y000680D01*
X026331Y000430D01*
X026831Y000430D01*
X027081Y000680D01*
X027331Y000430D01*
X027831Y000430D01*
X028081Y000680D01*
X028331Y000430D01*
X028831Y000430D01*
X029081Y000680D01*
X029081Y001180D01*
X028831Y001430D01*
X028331Y001430D01*
X028081Y001180D01*
X027831Y001430D01*
X027331Y001430D01*
X027081Y001180D01*
X026831Y001430D01*
X026331Y001430D01*
X026081Y001180D01*
X034841Y001349D02*
X034841Y002849D01*
X031463Y010386D02*
X031465Y010406D01*
X031471Y010424D01*
X031480Y010442D01*
X031492Y010457D01*
X031507Y010469D01*
X031525Y010478D01*
X031543Y010484D01*
X031563Y010486D01*
X031583Y010484D01*
X031601Y010478D01*
X031619Y010469D01*
X031634Y010457D01*
X031646Y010442D01*
X031655Y010424D01*
X031661Y010406D01*
X031663Y010386D01*
X031661Y010366D01*
X031655Y010348D01*
X031646Y010330D01*
X031634Y010315D01*
X031619Y010303D01*
X031601Y010294D01*
X031583Y010288D01*
X031563Y010286D01*
X031543Y010288D01*
X031525Y010294D01*
X031507Y010303D01*
X031492Y010315D01*
X031480Y010330D01*
X031471Y010348D01*
X031465Y010366D01*
X031463Y010386D01*
X029752Y010504D02*
X029555Y010504D01*
X029555Y010701D01*
X029555Y012197D02*
X029555Y012394D01*
X029791Y012394D01*
X031248Y012394D02*
X031445Y012394D01*
X031445Y012197D01*
X031000Y016930D02*
X031000Y017268D01*
X031394Y017378D02*
X031606Y017378D01*
X032000Y017268D02*
X032000Y016930D01*
X034841Y021149D02*
X034841Y022649D01*
X020135Y017146D02*
X020135Y016752D01*
X019465Y016752D02*
X019465Y017146D01*
X018977Y022348D02*
X017923Y022348D01*
X017623Y022848D02*
X017623Y022950D01*
X017923Y023450D02*
X018977Y023450D01*
X019277Y022950D02*
X019277Y022848D01*
X013577Y022848D02*
X013577Y022950D01*
X013277Y023450D02*
X012223Y023450D01*
X011923Y022950D02*
X011923Y022848D01*
X012223Y022348D02*
X013277Y022348D01*
X010203Y022649D02*
X009953Y022399D01*
X009453Y022399D01*
X009203Y022649D01*
X008953Y022399D01*
X008453Y022399D01*
X008203Y022649D01*
X007953Y022399D01*
X007453Y022399D01*
X007203Y022649D01*
X007203Y023149D01*
X007453Y023399D01*
X007953Y023399D01*
X008203Y023149D01*
X008453Y023399D01*
X008953Y023399D01*
X009203Y023149D01*
X009453Y023399D01*
X009953Y023399D01*
X010203Y023149D01*
X010203Y022649D01*
X002856Y022646D02*
X002856Y021146D01*
D12*
X030870Y016699D03*
D13*
X024809Y010446D03*
X024809Y010151D03*
D14*
X024809Y010299D03*
X035100Y015340D03*
D15*
X018133Y022899D02*
X018135Y022934D01*
X018141Y022970D01*
X018151Y023004D01*
X018164Y023037D01*
X018182Y023068D01*
X018202Y023097D01*
X018226Y023123D01*
X018252Y023147D01*
X018281Y023167D01*
X018312Y023185D01*
X018345Y023198D01*
X018379Y023208D01*
X018415Y023214D01*
X018450Y023216D01*
X018485Y023214D01*
X018521Y023208D01*
X018555Y023198D01*
X018588Y023185D01*
X018619Y023167D01*
X018648Y023147D01*
X018674Y023123D01*
X018698Y023097D01*
X018718Y023068D01*
X018736Y023037D01*
X018749Y023004D01*
X018759Y022970D01*
X018765Y022934D01*
X018767Y022899D01*
X018765Y022864D01*
X018759Y022828D01*
X018749Y022794D01*
X018736Y022761D01*
X018718Y022730D01*
X018698Y022701D01*
X018674Y022675D01*
X018648Y022651D01*
X018619Y022631D01*
X018588Y022613D01*
X018555Y022600D01*
X018521Y022590D01*
X018485Y022584D01*
X018450Y022582D01*
X018415Y022584D01*
X018379Y022590D01*
X018345Y022600D01*
X018312Y022613D01*
X018281Y022631D01*
X018252Y022651D01*
X018226Y022675D01*
X018202Y022701D01*
X018182Y022730D01*
X018164Y022761D01*
X018151Y022794D01*
X018141Y022828D01*
X018135Y022864D01*
X018133Y022899D01*
X012433Y022899D02*
X012435Y022934D01*
X012441Y022970D01*
X012451Y023004D01*
X012464Y023037D01*
X012482Y023068D01*
X012502Y023097D01*
X012526Y023123D01*
X012552Y023147D01*
X012581Y023167D01*
X012612Y023185D01*
X012645Y023198D01*
X012679Y023208D01*
X012715Y023214D01*
X012750Y023216D01*
X012785Y023214D01*
X012821Y023208D01*
X012855Y023198D01*
X012888Y023185D01*
X012919Y023167D01*
X012948Y023147D01*
X012974Y023123D01*
X012998Y023097D01*
X013018Y023068D01*
X013036Y023037D01*
X013049Y023004D01*
X013059Y022970D01*
X013065Y022934D01*
X013067Y022899D01*
X013065Y022864D01*
X013059Y022828D01*
X013049Y022794D01*
X013036Y022761D01*
X013018Y022730D01*
X012998Y022701D01*
X012974Y022675D01*
X012948Y022651D01*
X012919Y022631D01*
X012888Y022613D01*
X012855Y022600D01*
X012821Y022590D01*
X012785Y022584D01*
X012750Y022582D01*
X012715Y022584D01*
X012679Y022590D01*
X012645Y022600D01*
X012612Y022613D01*
X012581Y022631D01*
X012552Y022651D01*
X012526Y022675D01*
X012502Y022701D01*
X012482Y022730D01*
X012464Y022761D01*
X012451Y022794D01*
X012441Y022828D01*
X012435Y022864D01*
X012433Y022899D01*
D16*
X034952Y015340D03*
X035248Y015340D03*
D17*
X035244Y012483D02*
X035219Y012483D01*
X035194Y012458D01*
X035194Y012408D01*
X035219Y012383D01*
X035219Y012336D02*
X035194Y012311D01*
X035194Y012261D01*
X035219Y012236D01*
X035244Y012236D01*
X035269Y012261D01*
X035269Y012311D01*
X035294Y012336D01*
X035319Y012336D01*
X035344Y012311D01*
X035344Y012261D01*
X035319Y012236D01*
X035319Y012189D02*
X035194Y012189D01*
X035169Y012286D02*
X035369Y012286D01*
X035344Y012383D02*
X035244Y012483D01*
X035344Y012483D02*
X035344Y012383D01*
X035319Y012189D02*
X035344Y012164D01*
X035344Y012114D01*
X035319Y012089D01*
X035194Y012089D01*
X034873Y022679D02*
X034801Y022625D01*
X034802Y022626D02*
X034759Y022679D01*
X034714Y022730D01*
X034665Y022778D01*
X034614Y022823D01*
X034560Y022866D01*
X034504Y022905D01*
X034446Y022941D01*
X034386Y022974D01*
X034325Y023003D01*
X034261Y023028D01*
X034197Y023050D01*
X034131Y023069D01*
X034064Y023083D01*
X033997Y023094D01*
X033929Y023101D01*
X033861Y023104D01*
X033792Y023103D01*
X033724Y023098D01*
X033656Y023090D01*
X033589Y023077D01*
X033523Y023061D01*
X033458Y023041D01*
X033393Y023018D01*
X033331Y022991D01*
X033270Y022960D01*
X033211Y022926D01*
X033153Y022889D01*
X033098Y022848D01*
X033046Y022804D01*
X032996Y022758D01*
X032949Y022709D01*
X032904Y022657D01*
X032863Y022603D01*
X032824Y022546D01*
X032789Y022487D01*
X032758Y022427D01*
X032730Y022365D01*
X032705Y022301D01*
X032684Y022236D01*
X032667Y022170D01*
X032653Y022103D01*
X032644Y022035D01*
X032638Y021967D01*
X032636Y021899D01*
X032638Y021831D01*
X032644Y021763D01*
X032653Y021695D01*
X032667Y021628D01*
X032684Y021562D01*
X032705Y021497D01*
X032730Y021433D01*
X032758Y021371D01*
X032789Y021311D01*
X032824Y021252D01*
X032863Y021195D01*
X032904Y021141D01*
X032949Y021089D01*
X032996Y021040D01*
X033046Y020994D01*
X033098Y020950D01*
X033153Y020909D01*
X033211Y020872D01*
X033270Y020838D01*
X033331Y020807D01*
X033393Y020780D01*
X033458Y020757D01*
X033523Y020737D01*
X033589Y020721D01*
X033656Y020708D01*
X033724Y020700D01*
X033792Y020695D01*
X033861Y020694D01*
X033929Y020697D01*
X033997Y020704D01*
X034064Y020715D01*
X034131Y020729D01*
X034197Y020748D01*
X034261Y020770D01*
X034325Y020795D01*
X034386Y020824D01*
X034446Y020857D01*
X034504Y020893D01*
X034560Y020932D01*
X034614Y020975D01*
X034665Y021020D01*
X034714Y021068D01*
X034759Y021119D01*
X034802Y021172D01*
X034873Y021119D01*
X034874Y021118D01*
X034830Y021063D01*
X034782Y021010D01*
X034732Y020959D01*
X034679Y020912D01*
X034624Y020868D01*
X034566Y020826D01*
X034506Y020788D01*
X034445Y020753D01*
X034381Y020722D01*
X034316Y020694D01*
X034249Y020670D01*
X034181Y020649D01*
X034112Y020633D01*
X034042Y020620D01*
X033972Y020611D01*
X033901Y020605D01*
X033830Y020604D01*
X033759Y020607D01*
X033688Y020613D01*
X033618Y020623D01*
X033549Y020637D01*
X033480Y020655D01*
X033412Y020677D01*
X033346Y020702D01*
X033281Y020731D01*
X033218Y020764D01*
X033157Y020800D01*
X033098Y020839D01*
X033041Y020881D01*
X032986Y020926D01*
X032934Y020975D01*
X032885Y021026D01*
X032838Y021079D01*
X032795Y021136D01*
X032755Y021194D01*
X032718Y021255D01*
X032684Y021317D01*
X032654Y021381D01*
X032627Y021447D01*
X032604Y021514D01*
X032585Y021583D01*
X032570Y021652D01*
X032558Y021722D01*
X032550Y021793D01*
X032546Y021864D01*
X032546Y021934D01*
X032550Y022005D01*
X032558Y022076D01*
X032570Y022146D01*
X032585Y022215D01*
X032604Y022284D01*
X032627Y022351D01*
X032654Y022417D01*
X032684Y022481D01*
X032718Y022543D01*
X032755Y022604D01*
X032795Y022662D01*
X032838Y022719D01*
X032885Y022772D01*
X032934Y022823D01*
X032986Y022872D01*
X033041Y022917D01*
X033098Y022959D01*
X033157Y022998D01*
X033218Y023034D01*
X033281Y023067D01*
X033346Y023096D01*
X033412Y023121D01*
X033480Y023143D01*
X033549Y023161D01*
X033618Y023175D01*
X033688Y023185D01*
X033759Y023191D01*
X033830Y023194D01*
X033901Y023193D01*
X033972Y023187D01*
X034042Y023178D01*
X034112Y023165D01*
X034181Y023149D01*
X034249Y023128D01*
X034316Y023104D01*
X034381Y023076D01*
X034445Y023045D01*
X034506Y023010D01*
X034566Y022972D01*
X034624Y022930D01*
X034679Y022886D01*
X034732Y022839D01*
X034782Y022788D01*
X034830Y022735D01*
X034874Y022680D01*
X034867Y022675D01*
X034822Y022730D01*
X034775Y022783D01*
X034724Y022834D01*
X034671Y022881D01*
X034615Y022926D01*
X034557Y022967D01*
X034497Y023005D01*
X034435Y023040D01*
X034371Y023071D01*
X034305Y023098D01*
X034238Y023122D01*
X034169Y023142D01*
X034100Y023159D01*
X034030Y023171D01*
X033959Y023180D01*
X033888Y023184D01*
X033817Y023185D01*
X033746Y023181D01*
X033675Y023174D01*
X033604Y023163D01*
X033535Y023148D01*
X033466Y023129D01*
X033398Y023106D01*
X033332Y023080D01*
X033267Y023050D01*
X033205Y023016D01*
X033144Y022980D01*
X033085Y022939D01*
X033028Y022896D01*
X032974Y022849D01*
X032923Y022800D01*
X032875Y022747D01*
X032829Y022693D01*
X032787Y022635D01*
X032748Y022576D01*
X032712Y022514D01*
X032679Y022451D01*
X032651Y022386D01*
X032625Y022319D01*
X032604Y022251D01*
X032586Y022182D01*
X032573Y022112D01*
X032563Y022041D01*
X032557Y021970D01*
X032555Y021899D01*
X032557Y021828D01*
X032563Y021757D01*
X032573Y021686D01*
X032586Y021616D01*
X032604Y021547D01*
X032625Y021479D01*
X032651Y021412D01*
X032679Y021347D01*
X032712Y021284D01*
X032748Y021222D01*
X032787Y021163D01*
X032829Y021105D01*
X032875Y021051D01*
X032923Y020998D01*
X032974Y020949D01*
X033028Y020902D01*
X033085Y020859D01*
X033144Y020818D01*
X033205Y020782D01*
X033267Y020748D01*
X033332Y020718D01*
X033398Y020692D01*
X033466Y020669D01*
X033535Y020650D01*
X033604Y020635D01*
X033675Y020624D01*
X033746Y020617D01*
X033817Y020613D01*
X033888Y020614D01*
X033959Y020618D01*
X034030Y020627D01*
X034100Y020639D01*
X034169Y020656D01*
X034238Y020676D01*
X034305Y020700D01*
X034371Y020727D01*
X034435Y020758D01*
X034497Y020793D01*
X034557Y020831D01*
X034615Y020872D01*
X034671Y020917D01*
X034724Y020964D01*
X034775Y021015D01*
X034822Y021068D01*
X034867Y021123D01*
X034860Y021129D01*
X034815Y021074D01*
X034768Y021021D01*
X034718Y020971D01*
X034665Y020924D01*
X034610Y020880D01*
X034552Y020838D01*
X034493Y020801D01*
X034431Y020766D01*
X034367Y020735D01*
X034302Y020708D01*
X034235Y020684D01*
X034167Y020664D01*
X034098Y020648D01*
X034029Y020636D01*
X033958Y020627D01*
X033888Y020623D01*
X033817Y020622D01*
X033746Y020626D01*
X033676Y020633D01*
X033606Y020644D01*
X033537Y020659D01*
X033469Y020678D01*
X033401Y020700D01*
X033336Y020726D01*
X033271Y020756D01*
X033209Y020789D01*
X033149Y020826D01*
X033090Y020866D01*
X033034Y020909D01*
X032980Y020955D01*
X032930Y021005D01*
X032881Y021056D01*
X032836Y021111D01*
X032794Y021168D01*
X032755Y021227D01*
X032720Y021288D01*
X032687Y021351D01*
X032659Y021416D01*
X032634Y021482D01*
X032613Y021550D01*
X032595Y021618D01*
X032582Y021688D01*
X032572Y021758D01*
X032566Y021828D01*
X032564Y021899D01*
X032566Y021970D01*
X032572Y022040D01*
X032582Y022110D01*
X032595Y022180D01*
X032613Y022248D01*
X032634Y022316D01*
X032659Y022382D01*
X032687Y022447D01*
X032720Y022510D01*
X032755Y022571D01*
X032794Y022630D01*
X032836Y022687D01*
X032881Y022742D01*
X032930Y022793D01*
X032980Y022843D01*
X033034Y022889D01*
X033090Y022932D01*
X033149Y022972D01*
X033209Y023009D01*
X033271Y023042D01*
X033336Y023072D01*
X033401Y023098D01*
X033469Y023120D01*
X033537Y023139D01*
X033606Y023154D01*
X033676Y023165D01*
X033746Y023172D01*
X033817Y023176D01*
X033888Y023175D01*
X033958Y023171D01*
X034029Y023162D01*
X034098Y023150D01*
X034167Y023134D01*
X034235Y023114D01*
X034302Y023090D01*
X034367Y023063D01*
X034431Y023032D01*
X034493Y022997D01*
X034552Y022960D01*
X034610Y022918D01*
X034665Y022874D01*
X034718Y022827D01*
X034768Y022777D01*
X034815Y022724D01*
X034860Y022669D01*
X034852Y022664D01*
X034808Y022719D01*
X034760Y022772D01*
X034710Y022822D01*
X034657Y022870D01*
X034601Y022914D01*
X034543Y022955D01*
X034483Y022992D01*
X034421Y023027D01*
X034357Y023057D01*
X034291Y023084D01*
X034224Y023108D01*
X034156Y023127D01*
X034086Y023143D01*
X034016Y023155D01*
X033946Y023163D01*
X033875Y023167D01*
X033804Y023166D01*
X033733Y023162D01*
X033662Y023154D01*
X033592Y023142D01*
X033523Y023126D01*
X033455Y023107D01*
X033387Y023083D01*
X033322Y023056D01*
X033258Y023025D01*
X033196Y022991D01*
X033136Y022953D01*
X033078Y022911D01*
X033022Y022867D01*
X032969Y022820D01*
X032919Y022769D01*
X032872Y022716D01*
X032827Y022661D01*
X032786Y022603D01*
X032749Y022543D01*
X032714Y022480D01*
X032683Y022416D01*
X032656Y022351D01*
X032633Y022284D01*
X032613Y022215D01*
X032597Y022146D01*
X032585Y022076D01*
X032577Y022005D01*
X032573Y021935D01*
X032573Y021863D01*
X032577Y021793D01*
X032585Y021722D01*
X032597Y021652D01*
X032613Y021583D01*
X032633Y021514D01*
X032656Y021447D01*
X032683Y021382D01*
X032714Y021318D01*
X032749Y021255D01*
X032786Y021195D01*
X032827Y021137D01*
X032872Y021082D01*
X032919Y021029D01*
X032969Y020978D01*
X033022Y020931D01*
X033078Y020887D01*
X033136Y020845D01*
X033196Y020807D01*
X033258Y020773D01*
X033322Y020742D01*
X033387Y020715D01*
X033455Y020691D01*
X033523Y020672D01*
X033592Y020656D01*
X033662Y020644D01*
X033733Y020636D01*
X033804Y020632D01*
X033875Y020631D01*
X033946Y020635D01*
X034016Y020643D01*
X034086Y020655D01*
X034156Y020671D01*
X034224Y020690D01*
X034291Y020714D01*
X034357Y020741D01*
X034421Y020771D01*
X034483Y020806D01*
X034543Y020843D01*
X034601Y020884D01*
X034657Y020928D01*
X034710Y020976D01*
X034760Y021026D01*
X034808Y021079D01*
X034852Y021134D01*
X034845Y021140D01*
X034801Y021085D01*
X034754Y021032D01*
X034704Y020982D01*
X034651Y020935D01*
X034596Y020891D01*
X034538Y020851D01*
X034479Y020813D01*
X034417Y020779D01*
X034353Y020749D01*
X034288Y020722D01*
X034221Y020699D01*
X034153Y020679D01*
X034085Y020664D01*
X034015Y020652D01*
X033945Y020644D01*
X033874Y020640D01*
X033804Y020641D01*
X033733Y020645D01*
X033663Y020653D01*
X033594Y020665D01*
X033525Y020680D01*
X033457Y020700D01*
X033391Y020723D01*
X033326Y020750D01*
X033262Y020781D01*
X033200Y020815D01*
X033141Y020853D01*
X033083Y020894D01*
X033028Y020938D01*
X032975Y020985D01*
X032926Y021035D01*
X032879Y021087D01*
X032835Y021143D01*
X032794Y021200D01*
X032756Y021260D01*
X032722Y021322D01*
X032692Y021385D01*
X032665Y021450D01*
X032641Y021517D01*
X032622Y021585D01*
X032606Y021654D01*
X032594Y021723D01*
X032586Y021793D01*
X032582Y021864D01*
X032582Y021934D01*
X032586Y022005D01*
X032594Y022075D01*
X032606Y022144D01*
X032622Y022213D01*
X032641Y022281D01*
X032665Y022348D01*
X032692Y022413D01*
X032722Y022476D01*
X032756Y022538D01*
X032794Y022598D01*
X032835Y022655D01*
X032879Y022711D01*
X032926Y022763D01*
X032975Y022813D01*
X033028Y022860D01*
X033083Y022904D01*
X033141Y022945D01*
X033200Y022983D01*
X033262Y023017D01*
X033326Y023048D01*
X033391Y023075D01*
X033457Y023098D01*
X033525Y023118D01*
X033594Y023133D01*
X033663Y023145D01*
X033733Y023153D01*
X033804Y023157D01*
X033874Y023158D01*
X033945Y023154D01*
X034015Y023146D01*
X034085Y023134D01*
X034153Y023119D01*
X034221Y023099D01*
X034288Y023076D01*
X034353Y023049D01*
X034417Y023019D01*
X034479Y022985D01*
X034538Y022947D01*
X034596Y022907D01*
X034651Y022863D01*
X034704Y022816D01*
X034754Y022766D01*
X034801Y022713D01*
X034845Y022658D01*
X034838Y022653D01*
X034794Y022708D01*
X034747Y022760D01*
X034698Y022809D01*
X034645Y022856D01*
X034591Y022899D01*
X034533Y022940D01*
X034474Y022977D01*
X034413Y023011D01*
X034349Y023041D01*
X034285Y023068D01*
X034218Y023091D01*
X034151Y023110D01*
X034083Y023125D01*
X034014Y023137D01*
X033944Y023145D01*
X033874Y023149D01*
X033804Y023148D01*
X033734Y023144D01*
X033665Y023136D01*
X033596Y023125D01*
X033527Y023109D01*
X033460Y023090D01*
X033394Y023066D01*
X033329Y023039D01*
X033266Y023009D01*
X033205Y022975D01*
X033146Y022938D01*
X033088Y022897D01*
X033034Y022853D01*
X032982Y022807D01*
X032932Y022757D01*
X032885Y022705D01*
X032842Y022650D01*
X032801Y022593D01*
X032764Y022534D01*
X032730Y022472D01*
X032700Y022409D01*
X032673Y022344D01*
X032650Y022278D01*
X032631Y022211D01*
X032615Y022143D01*
X032603Y022074D01*
X032595Y022004D01*
X032591Y021934D01*
X032591Y021864D01*
X032595Y021794D01*
X032603Y021724D01*
X032615Y021655D01*
X032631Y021587D01*
X032650Y021520D01*
X032673Y021454D01*
X032700Y021389D01*
X032730Y021326D01*
X032764Y021264D01*
X032801Y021205D01*
X032842Y021148D01*
X032885Y021093D01*
X032932Y021041D01*
X032982Y020991D01*
X033034Y020945D01*
X033088Y020901D01*
X033146Y020860D01*
X033205Y020823D01*
X033266Y020789D01*
X033329Y020759D01*
X033394Y020732D01*
X033460Y020708D01*
X033527Y020689D01*
X033596Y020673D01*
X033665Y020662D01*
X033734Y020654D01*
X033804Y020650D01*
X033874Y020649D01*
X033944Y020653D01*
X034014Y020661D01*
X034083Y020673D01*
X034151Y020688D01*
X034218Y020707D01*
X034285Y020730D01*
X034349Y020757D01*
X034413Y020787D01*
X034474Y020821D01*
X034533Y020858D01*
X034591Y020899D01*
X034645Y020942D01*
X034698Y020989D01*
X034747Y021038D01*
X034794Y021090D01*
X034838Y021145D01*
X034831Y021150D01*
X034787Y021096D01*
X034741Y021044D01*
X034692Y020995D01*
X034640Y020949D01*
X034585Y020906D01*
X034528Y020866D01*
X034469Y020829D01*
X034408Y020795D01*
X034346Y020765D01*
X034281Y020739D01*
X034216Y020716D01*
X034149Y020697D01*
X034081Y020681D01*
X034012Y020670D01*
X033943Y020662D01*
X033874Y020658D01*
X033804Y020659D01*
X033735Y020663D01*
X033666Y020670D01*
X033597Y020682D01*
X033530Y020698D01*
X033463Y020717D01*
X033397Y020740D01*
X033333Y020767D01*
X033270Y020797D01*
X033209Y020831D01*
X033151Y020868D01*
X033094Y020908D01*
X033040Y020951D01*
X032988Y020998D01*
X032939Y021047D01*
X032892Y021099D01*
X032849Y021153D01*
X032809Y021210D01*
X032772Y021269D01*
X032738Y021330D01*
X032708Y021393D01*
X032681Y021457D01*
X032658Y021522D01*
X032639Y021589D01*
X032624Y021657D01*
X032612Y021726D01*
X032604Y021795D01*
X032600Y021864D01*
X032600Y021934D01*
X032604Y022003D01*
X032612Y022072D01*
X032624Y022141D01*
X032639Y022209D01*
X032658Y022276D01*
X032681Y022341D01*
X032708Y022405D01*
X032738Y022468D01*
X032772Y022529D01*
X032809Y022588D01*
X032849Y022645D01*
X032892Y022699D01*
X032939Y022751D01*
X032988Y022800D01*
X033040Y022847D01*
X033094Y022890D01*
X033151Y022930D01*
X033209Y022967D01*
X033270Y023001D01*
X033333Y023031D01*
X033397Y023058D01*
X033463Y023081D01*
X033530Y023100D01*
X033597Y023116D01*
X033666Y023128D01*
X033735Y023135D01*
X033804Y023139D01*
X033874Y023140D01*
X033943Y023136D01*
X034012Y023128D01*
X034081Y023117D01*
X034149Y023101D01*
X034216Y023082D01*
X034281Y023059D01*
X034346Y023033D01*
X034408Y023003D01*
X034469Y022969D01*
X034528Y022932D01*
X034585Y022892D01*
X034640Y022849D01*
X034692Y022803D01*
X034741Y022754D01*
X034787Y022702D01*
X034831Y022648D01*
X034824Y022642D01*
X034780Y022696D01*
X034734Y022747D01*
X034685Y022796D01*
X034634Y022842D01*
X034580Y022885D01*
X034523Y022925D01*
X034465Y022961D01*
X034404Y022995D01*
X034342Y023025D01*
X034278Y023051D01*
X034213Y023073D01*
X034147Y023092D01*
X034079Y023108D01*
X034011Y023119D01*
X033943Y023127D01*
X033874Y023131D01*
X033805Y023130D01*
X033736Y023126D01*
X033667Y023119D01*
X033599Y023107D01*
X033532Y023092D01*
X033465Y023072D01*
X033400Y023049D01*
X033337Y023023D01*
X033274Y022993D01*
X033214Y022960D01*
X033156Y022923D01*
X033099Y022883D01*
X033045Y022840D01*
X032994Y022794D01*
X032945Y022745D01*
X032899Y022693D01*
X032856Y022639D01*
X032816Y022583D01*
X032780Y022524D01*
X032746Y022464D01*
X032716Y022402D01*
X032690Y022338D01*
X032667Y022273D01*
X032648Y022206D01*
X032633Y022139D01*
X032621Y022071D01*
X032613Y022002D01*
X032609Y021934D01*
X032609Y021864D01*
X032613Y021796D01*
X032621Y021727D01*
X032633Y021659D01*
X032648Y021592D01*
X032667Y021525D01*
X032690Y021460D01*
X032716Y021396D01*
X032746Y021334D01*
X032780Y021274D01*
X032816Y021215D01*
X032856Y021159D01*
X032899Y021105D01*
X032945Y021053D01*
X032994Y021004D01*
X033045Y020958D01*
X033099Y020915D01*
X033156Y020875D01*
X033214Y020838D01*
X033274Y020805D01*
X033337Y020775D01*
X033400Y020749D01*
X033465Y020726D01*
X033532Y020706D01*
X033599Y020691D01*
X033667Y020679D01*
X033736Y020672D01*
X033805Y020668D01*
X033874Y020667D01*
X033943Y020671D01*
X034011Y020679D01*
X034079Y020690D01*
X034147Y020706D01*
X034213Y020725D01*
X034278Y020747D01*
X034342Y020773D01*
X034404Y020803D01*
X034465Y020837D01*
X034523Y020873D01*
X034580Y020913D01*
X034634Y020956D01*
X034685Y021002D01*
X034734Y021051D01*
X034780Y021102D01*
X034824Y021156D01*
X034816Y021161D01*
X034773Y021107D01*
X034727Y021056D01*
X034677Y021007D01*
X034626Y020961D01*
X034571Y020918D01*
X034514Y020878D01*
X034456Y020842D01*
X034395Y020808D01*
X034332Y020779D01*
X034268Y020753D01*
X034202Y020731D01*
X034135Y020712D01*
X034068Y020697D01*
X033999Y020686D01*
X033930Y020679D01*
X033861Y020676D01*
X033792Y020677D01*
X033722Y020682D01*
X033654Y020690D01*
X033586Y020703D01*
X033518Y020719D01*
X033452Y020740D01*
X033387Y020763D01*
X033323Y020791D01*
X033261Y020822D01*
X033201Y020857D01*
X033143Y020895D01*
X033087Y020936D01*
X033034Y020980D01*
X032983Y021027D01*
X032935Y021077D01*
X032890Y021130D01*
X032848Y021185D01*
X032809Y021242D01*
X032774Y021302D01*
X032742Y021363D01*
X032713Y021426D01*
X032688Y021491D01*
X032667Y021557D01*
X032649Y021624D01*
X032636Y021692D01*
X032626Y021761D01*
X032620Y021830D01*
X032618Y021899D01*
X032620Y021968D01*
X032626Y022037D01*
X032636Y022106D01*
X032649Y022174D01*
X032667Y022241D01*
X032688Y022307D01*
X032713Y022372D01*
X032742Y022435D01*
X032774Y022496D01*
X032809Y022556D01*
X032848Y022613D01*
X032890Y022668D01*
X032935Y022721D01*
X032983Y022771D01*
X033034Y022818D01*
X033087Y022862D01*
X033143Y022903D01*
X033201Y022941D01*
X033261Y022976D01*
X033323Y023007D01*
X033387Y023035D01*
X033452Y023058D01*
X033518Y023079D01*
X033586Y023095D01*
X033654Y023108D01*
X033722Y023116D01*
X033792Y023121D01*
X033861Y023122D01*
X033930Y023119D01*
X033999Y023112D01*
X034068Y023101D01*
X034135Y023086D01*
X034202Y023067D01*
X034268Y023045D01*
X034332Y023019D01*
X034395Y022990D01*
X034456Y022956D01*
X034514Y022920D01*
X034571Y022880D01*
X034626Y022837D01*
X034677Y022791D01*
X034727Y022742D01*
X034773Y022691D01*
X034816Y022637D01*
X034809Y022631D01*
X034766Y022685D01*
X034720Y022736D01*
X034671Y022785D01*
X034620Y022830D01*
X034566Y022873D01*
X034509Y022912D01*
X034451Y022949D01*
X034391Y022982D01*
X034328Y023011D01*
X034265Y023037D01*
X034199Y023059D01*
X034133Y023077D01*
X034066Y023092D01*
X033998Y023103D01*
X033929Y023110D01*
X033861Y023113D01*
X033792Y023112D01*
X033723Y023107D01*
X033655Y023099D01*
X033587Y023086D01*
X033521Y023070D01*
X033455Y023050D01*
X033390Y023026D01*
X033327Y022999D01*
X033266Y022968D01*
X033206Y022934D01*
X033148Y022896D01*
X033093Y022855D01*
X033040Y022811D01*
X032990Y022764D01*
X032942Y022715D01*
X032897Y022663D01*
X032855Y022608D01*
X032817Y022551D01*
X032782Y022492D01*
X032750Y022431D01*
X032721Y022368D01*
X032697Y022304D01*
X032675Y022238D01*
X032658Y022172D01*
X032645Y022104D01*
X032635Y022036D01*
X032629Y021968D01*
X032627Y021899D01*
X032629Y021830D01*
X032635Y021762D01*
X032645Y021694D01*
X032658Y021626D01*
X032675Y021560D01*
X032697Y021494D01*
X032721Y021430D01*
X032750Y021367D01*
X032782Y021306D01*
X032817Y021247D01*
X032855Y021190D01*
X032897Y021135D01*
X032942Y021083D01*
X032990Y021034D01*
X033040Y020987D01*
X033093Y020943D01*
X033148Y020902D01*
X033206Y020864D01*
X033266Y020830D01*
X033327Y020799D01*
X033390Y020772D01*
X033455Y020748D01*
X033521Y020728D01*
X033587Y020712D01*
X033655Y020699D01*
X033723Y020691D01*
X033792Y020686D01*
X033861Y020685D01*
X033929Y020688D01*
X033998Y020695D01*
X034066Y020706D01*
X034133Y020721D01*
X034199Y020739D01*
X034265Y020761D01*
X034328Y020787D01*
X034391Y020816D01*
X034451Y020849D01*
X034509Y020886D01*
X034566Y020925D01*
X034620Y020968D01*
X034671Y021013D01*
X034720Y021062D01*
X034766Y021113D01*
X034809Y021167D01*
X034873Y002879D02*
X034801Y002825D01*
X034802Y002826D02*
X034759Y002879D01*
X034714Y002930D01*
X034665Y002978D01*
X034614Y003023D01*
X034560Y003066D01*
X034504Y003105D01*
X034446Y003141D01*
X034386Y003174D01*
X034325Y003203D01*
X034261Y003228D01*
X034197Y003250D01*
X034131Y003269D01*
X034064Y003283D01*
X033997Y003294D01*
X033929Y003301D01*
X033861Y003304D01*
X033792Y003303D01*
X033724Y003298D01*
X033656Y003290D01*
X033589Y003277D01*
X033523Y003261D01*
X033458Y003241D01*
X033393Y003218D01*
X033331Y003191D01*
X033270Y003160D01*
X033211Y003126D01*
X033153Y003089D01*
X033098Y003048D01*
X033046Y003004D01*
X032996Y002958D01*
X032949Y002909D01*
X032904Y002857D01*
X032863Y002803D01*
X032824Y002746D01*
X032789Y002687D01*
X032758Y002627D01*
X032730Y002565D01*
X032705Y002501D01*
X032684Y002436D01*
X032667Y002370D01*
X032653Y002303D01*
X032644Y002235D01*
X032638Y002167D01*
X032636Y002099D01*
X032638Y002031D01*
X032644Y001963D01*
X032653Y001895D01*
X032667Y001828D01*
X032684Y001762D01*
X032705Y001697D01*
X032730Y001633D01*
X032758Y001571D01*
X032789Y001511D01*
X032824Y001452D01*
X032863Y001395D01*
X032904Y001341D01*
X032949Y001289D01*
X032996Y001240D01*
X033046Y001194D01*
X033098Y001150D01*
X033153Y001109D01*
X033211Y001072D01*
X033270Y001038D01*
X033331Y001007D01*
X033393Y000980D01*
X033458Y000957D01*
X033523Y000937D01*
X033589Y000921D01*
X033656Y000908D01*
X033724Y000900D01*
X033792Y000895D01*
X033861Y000894D01*
X033929Y000897D01*
X033997Y000904D01*
X034064Y000915D01*
X034131Y000929D01*
X034197Y000948D01*
X034261Y000970D01*
X034325Y000995D01*
X034386Y001024D01*
X034446Y001057D01*
X034504Y001093D01*
X034560Y001132D01*
X034614Y001175D01*
X034665Y001220D01*
X034714Y001268D01*
X034759Y001319D01*
X034802Y001372D01*
X034873Y001319D01*
X034874Y001318D01*
X034830Y001263D01*
X034782Y001210D01*
X034732Y001159D01*
X034679Y001112D01*
X034624Y001068D01*
X034566Y001026D01*
X034506Y000988D01*
X034445Y000953D01*
X034381Y000922D01*
X034316Y000894D01*
X034249Y000870D01*
X034181Y000849D01*
X034112Y000833D01*
X034042Y000820D01*
X033972Y000811D01*
X033901Y000805D01*
X033830Y000804D01*
X033759Y000807D01*
X033688Y000813D01*
X033618Y000823D01*
X033549Y000837D01*
X033480Y000855D01*
X033412Y000877D01*
X033346Y000902D01*
X033281Y000931D01*
X033218Y000964D01*
X033157Y001000D01*
X033098Y001039D01*
X033041Y001081D01*
X032986Y001126D01*
X032934Y001175D01*
X032885Y001226D01*
X032838Y001279D01*
X032795Y001336D01*
X032755Y001394D01*
X032718Y001455D01*
X032684Y001517D01*
X032654Y001581D01*
X032627Y001647D01*
X032604Y001714D01*
X032585Y001783D01*
X032570Y001852D01*
X032558Y001922D01*
X032550Y001993D01*
X032546Y002064D01*
X032546Y002134D01*
X032550Y002205D01*
X032558Y002276D01*
X032570Y002346D01*
X032585Y002415D01*
X032604Y002484D01*
X032627Y002551D01*
X032654Y002617D01*
X032684Y002681D01*
X032718Y002743D01*
X032755Y002804D01*
X032795Y002862D01*
X032838Y002919D01*
X032885Y002972D01*
X032934Y003023D01*
X032986Y003072D01*
X033041Y003117D01*
X033098Y003159D01*
X033157Y003198D01*
X033218Y003234D01*
X033281Y003267D01*
X033346Y003296D01*
X033412Y003321D01*
X033480Y003343D01*
X033549Y003361D01*
X033618Y003375D01*
X033688Y003385D01*
X033759Y003391D01*
X033830Y003394D01*
X033901Y003393D01*
X033972Y003387D01*
X034042Y003378D01*
X034112Y003365D01*
X034181Y003349D01*
X034249Y003328D01*
X034316Y003304D01*
X034381Y003276D01*
X034445Y003245D01*
X034506Y003210D01*
X034566Y003172D01*
X034624Y003130D01*
X034679Y003086D01*
X034732Y003039D01*
X034782Y002988D01*
X034830Y002935D01*
X034874Y002880D01*
X034867Y002875D01*
X034822Y002930D01*
X034775Y002983D01*
X034724Y003034D01*
X034671Y003081D01*
X034615Y003126D01*
X034557Y003167D01*
X034497Y003205D01*
X034435Y003240D01*
X034371Y003271D01*
X034305Y003298D01*
X034238Y003322D01*
X034169Y003342D01*
X034100Y003359D01*
X034030Y003371D01*
X033959Y003380D01*
X033888Y003384D01*
X033817Y003385D01*
X033746Y003381D01*
X033675Y003374D01*
X033604Y003363D01*
X033535Y003348D01*
X033466Y003329D01*
X033398Y003306D01*
X033332Y003280D01*
X033267Y003250D01*
X033205Y003216D01*
X033144Y003180D01*
X033085Y003139D01*
X033028Y003096D01*
X032974Y003049D01*
X032923Y003000D01*
X032875Y002947D01*
X032829Y002893D01*
X032787Y002835D01*
X032748Y002776D01*
X032712Y002714D01*
X032679Y002651D01*
X032651Y002586D01*
X032625Y002519D01*
X032604Y002451D01*
X032586Y002382D01*
X032573Y002312D01*
X032563Y002241D01*
X032557Y002170D01*
X032555Y002099D01*
X032557Y002028D01*
X032563Y001957D01*
X032573Y001886D01*
X032586Y001816D01*
X032604Y001747D01*
X032625Y001679D01*
X032651Y001612D01*
X032679Y001547D01*
X032712Y001484D01*
X032748Y001422D01*
X032787Y001363D01*
X032829Y001305D01*
X032875Y001251D01*
X032923Y001198D01*
X032974Y001149D01*
X033028Y001102D01*
X033085Y001059D01*
X033144Y001018D01*
X033205Y000982D01*
X033267Y000948D01*
X033332Y000918D01*
X033398Y000892D01*
X033466Y000869D01*
X033535Y000850D01*
X033604Y000835D01*
X033675Y000824D01*
X033746Y000817D01*
X033817Y000813D01*
X033888Y000814D01*
X033959Y000818D01*
X034030Y000827D01*
X034100Y000839D01*
X034169Y000856D01*
X034238Y000876D01*
X034305Y000900D01*
X034371Y000927D01*
X034435Y000958D01*
X034497Y000993D01*
X034557Y001031D01*
X034615Y001072D01*
X034671Y001117D01*
X034724Y001164D01*
X034775Y001215D01*
X034822Y001268D01*
X034867Y001323D01*
X034860Y001329D01*
X034815Y001274D01*
X034768Y001221D01*
X034718Y001171D01*
X034665Y001124D01*
X034610Y001080D01*
X034552Y001038D01*
X034493Y001001D01*
X034431Y000966D01*
X034367Y000935D01*
X034302Y000908D01*
X034235Y000884D01*
X034167Y000864D01*
X034098Y000848D01*
X034029Y000836D01*
X033958Y000827D01*
X033888Y000823D01*
X033817Y000822D01*
X033746Y000826D01*
X033676Y000833D01*
X033606Y000844D01*
X033537Y000859D01*
X033469Y000878D01*
X033401Y000900D01*
X033336Y000926D01*
X033271Y000956D01*
X033209Y000989D01*
X033149Y001026D01*
X033090Y001066D01*
X033034Y001109D01*
X032980Y001155D01*
X032930Y001205D01*
X032881Y001256D01*
X032836Y001311D01*
X032794Y001368D01*
X032755Y001427D01*
X032720Y001488D01*
X032687Y001551D01*
X032659Y001616D01*
X032634Y001682D01*
X032613Y001750D01*
X032595Y001818D01*
X032582Y001888D01*
X032572Y001958D01*
X032566Y002028D01*
X032564Y002099D01*
X032566Y002170D01*
X032572Y002240D01*
X032582Y002310D01*
X032595Y002380D01*
X032613Y002448D01*
X032634Y002516D01*
X032659Y002582D01*
X032687Y002647D01*
X032720Y002710D01*
X032755Y002771D01*
X032794Y002830D01*
X032836Y002887D01*
X032881Y002942D01*
X032930Y002993D01*
X032980Y003043D01*
X033034Y003089D01*
X033090Y003132D01*
X033149Y003172D01*
X033209Y003209D01*
X033271Y003242D01*
X033336Y003272D01*
X033401Y003298D01*
X033469Y003320D01*
X033537Y003339D01*
X033606Y003354D01*
X033676Y003365D01*
X033746Y003372D01*
X033817Y003376D01*
X033888Y003375D01*
X033958Y003371D01*
X034029Y003362D01*
X034098Y003350D01*
X034167Y003334D01*
X034235Y003314D01*
X034302Y003290D01*
X034367Y003263D01*
X034431Y003232D01*
X034493Y003197D01*
X034552Y003160D01*
X034610Y003118D01*
X034665Y003074D01*
X034718Y003027D01*
X034768Y002977D01*
X034815Y002924D01*
X034860Y002869D01*
X034852Y002864D01*
X034808Y002919D01*
X034760Y002972D01*
X034710Y003022D01*
X034657Y003070D01*
X034601Y003114D01*
X034543Y003155D01*
X034483Y003192D01*
X034421Y003227D01*
X034357Y003257D01*
X034291Y003284D01*
X034224Y003308D01*
X034156Y003327D01*
X034086Y003343D01*
X034016Y003355D01*
X033946Y003363D01*
X033875Y003367D01*
X033804Y003366D01*
X033733Y003362D01*
X033662Y003354D01*
X033592Y003342D01*
X033523Y003326D01*
X033455Y003307D01*
X033387Y003283D01*
X033322Y003256D01*
X033258Y003225D01*
X033196Y003191D01*
X033136Y003153D01*
X033078Y003111D01*
X033022Y003067D01*
X032969Y003020D01*
X032919Y002969D01*
X032872Y002916D01*
X032827Y002861D01*
X032786Y002803D01*
X032749Y002743D01*
X032714Y002680D01*
X032683Y002616D01*
X032656Y002551D01*
X032633Y002484D01*
X032613Y002415D01*
X032597Y002346D01*
X032585Y002276D01*
X032577Y002205D01*
X032573Y002135D01*
X032573Y002063D01*
X032577Y001993D01*
X032585Y001922D01*
X032597Y001852D01*
X032613Y001783D01*
X032633Y001714D01*
X032656Y001647D01*
X032683Y001582D01*
X032714Y001518D01*
X032749Y001455D01*
X032786Y001395D01*
X032827Y001337D01*
X032872Y001282D01*
X032919Y001229D01*
X032969Y001178D01*
X033022Y001131D01*
X033078Y001087D01*
X033136Y001045D01*
X033196Y001007D01*
X033258Y000973D01*
X033322Y000942D01*
X033387Y000915D01*
X033455Y000891D01*
X033523Y000872D01*
X033592Y000856D01*
X033662Y000844D01*
X033733Y000836D01*
X033804Y000832D01*
X033875Y000831D01*
X033946Y000835D01*
X034016Y000843D01*
X034086Y000855D01*
X034156Y000871D01*
X034224Y000890D01*
X034291Y000914D01*
X034357Y000941D01*
X034421Y000971D01*
X034483Y001006D01*
X034543Y001043D01*
X034601Y001084D01*
X034657Y001128D01*
X034710Y001176D01*
X034760Y001226D01*
X034808Y001279D01*
X034852Y001334D01*
X034845Y001340D01*
X034801Y001285D01*
X034754Y001232D01*
X034704Y001182D01*
X034651Y001135D01*
X034596Y001091D01*
X034538Y001051D01*
X034479Y001013D01*
X034417Y000979D01*
X034353Y000949D01*
X034288Y000922D01*
X034221Y000899D01*
X034153Y000879D01*
X034085Y000864D01*
X034015Y000852D01*
X033945Y000844D01*
X033874Y000840D01*
X033804Y000841D01*
X033733Y000845D01*
X033663Y000853D01*
X033594Y000865D01*
X033525Y000880D01*
X033457Y000900D01*
X033391Y000923D01*
X033326Y000950D01*
X033262Y000981D01*
X033200Y001015D01*
X033141Y001053D01*
X033083Y001094D01*
X033028Y001138D01*
X032975Y001185D01*
X032926Y001235D01*
X032879Y001287D01*
X032835Y001343D01*
X032794Y001400D01*
X032756Y001460D01*
X032722Y001522D01*
X032692Y001585D01*
X032665Y001650D01*
X032641Y001717D01*
X032622Y001785D01*
X032606Y001854D01*
X032594Y001923D01*
X032586Y001993D01*
X032582Y002064D01*
X032582Y002134D01*
X032586Y002205D01*
X032594Y002275D01*
X032606Y002344D01*
X032622Y002413D01*
X032641Y002481D01*
X032665Y002548D01*
X032692Y002613D01*
X032722Y002676D01*
X032756Y002738D01*
X032794Y002798D01*
X032835Y002855D01*
X032879Y002911D01*
X032926Y002963D01*
X032975Y003013D01*
X033028Y003060D01*
X033083Y003104D01*
X033141Y003145D01*
X033200Y003183D01*
X033262Y003217D01*
X033326Y003248D01*
X033391Y003275D01*
X033457Y003298D01*
X033525Y003318D01*
X033594Y003333D01*
X033663Y003345D01*
X033733Y003353D01*
X033804Y003357D01*
X033874Y003358D01*
X033945Y003354D01*
X034015Y003346D01*
X034085Y003334D01*
X034153Y003319D01*
X034221Y003299D01*
X034288Y003276D01*
X034353Y003249D01*
X034417Y003219D01*
X034479Y003185D01*
X034538Y003147D01*
X034596Y003107D01*
X034651Y003063D01*
X034704Y003016D01*
X034754Y002966D01*
X034801Y002913D01*
X034845Y002858D01*
X034838Y002853D01*
X034794Y002908D01*
X034747Y002960D01*
X034698Y003009D01*
X034645Y003056D01*
X034591Y003099D01*
X034533Y003140D01*
X034474Y003177D01*
X034413Y003211D01*
X034349Y003241D01*
X034285Y003268D01*
X034218Y003291D01*
X034151Y003310D01*
X034083Y003325D01*
X034014Y003337D01*
X033944Y003345D01*
X033874Y003349D01*
X033804Y003348D01*
X033734Y003344D01*
X033665Y003336D01*
X033596Y003325D01*
X033527Y003309D01*
X033460Y003290D01*
X033394Y003266D01*
X033329Y003239D01*
X033266Y003209D01*
X033205Y003175D01*
X033146Y003138D01*
X033088Y003097D01*
X033034Y003053D01*
X032982Y003007D01*
X032932Y002957D01*
X032885Y002905D01*
X032842Y002850D01*
X032801Y002793D01*
X032764Y002734D01*
X032730Y002672D01*
X032700Y002609D01*
X032673Y002544D01*
X032650Y002478D01*
X032631Y002411D01*
X032615Y002343D01*
X032603Y002274D01*
X032595Y002204D01*
X032591Y002134D01*
X032591Y002064D01*
X032595Y001994D01*
X032603Y001924D01*
X032615Y001855D01*
X032631Y001787D01*
X032650Y001720D01*
X032673Y001654D01*
X032700Y001589D01*
X032730Y001526D01*
X032764Y001464D01*
X032801Y001405D01*
X032842Y001348D01*
X032885Y001293D01*
X032932Y001241D01*
X032982Y001191D01*
X033034Y001145D01*
X033088Y001101D01*
X033146Y001060D01*
X033205Y001023D01*
X033266Y000989D01*
X033329Y000959D01*
X033394Y000932D01*
X033460Y000908D01*
X033527Y000889D01*
X033596Y000873D01*
X033665Y000862D01*
X033734Y000854D01*
X033804Y000850D01*
X033874Y000849D01*
X033944Y000853D01*
X034014Y000861D01*
X034083Y000873D01*
X034151Y000888D01*
X034218Y000907D01*
X034285Y000930D01*
X034349Y000957D01*
X034413Y000987D01*
X034474Y001021D01*
X034533Y001058D01*
X034591Y001099D01*
X034645Y001142D01*
X034698Y001189D01*
X034747Y001238D01*
X034794Y001290D01*
X034838Y001345D01*
X034831Y001350D01*
X034787Y001296D01*
X034741Y001244D01*
X034692Y001195D01*
X034640Y001149D01*
X034585Y001106D01*
X034528Y001066D01*
X034469Y001029D01*
X034408Y000995D01*
X034346Y000965D01*
X034281Y000939D01*
X034216Y000916D01*
X034149Y000897D01*
X034081Y000881D01*
X034012Y000870D01*
X033943Y000862D01*
X033874Y000858D01*
X033804Y000859D01*
X033735Y000863D01*
X033666Y000870D01*
X033597Y000882D01*
X033530Y000898D01*
X033463Y000917D01*
X033397Y000940D01*
X033333Y000967D01*
X033270Y000997D01*
X033209Y001031D01*
X033151Y001068D01*
X033094Y001108D01*
X033040Y001151D01*
X032988Y001198D01*
X032939Y001247D01*
X032892Y001299D01*
X032849Y001353D01*
X032809Y001410D01*
X032772Y001469D01*
X032738Y001530D01*
X032708Y001593D01*
X032681Y001657D01*
X032658Y001722D01*
X032639Y001789D01*
X032624Y001857D01*
X032612Y001926D01*
X032604Y001995D01*
X032600Y002064D01*
X032600Y002134D01*
X032604Y002203D01*
X032612Y002272D01*
X032624Y002341D01*
X032639Y002409D01*
X032658Y002476D01*
X032681Y002541D01*
X032708Y002605D01*
X032738Y002668D01*
X032772Y002729D01*
X032809Y002788D01*
X032849Y002845D01*
X032892Y002899D01*
X032939Y002951D01*
X032988Y003000D01*
X033040Y003047D01*
X033094Y003090D01*
X033151Y003130D01*
X033209Y003167D01*
X033270Y003201D01*
X033333Y003231D01*
X033397Y003258D01*
X033463Y003281D01*
X033530Y003300D01*
X033597Y003316D01*
X033666Y003328D01*
X033735Y003335D01*
X033804Y003339D01*
X033874Y003340D01*
X033943Y003336D01*
X034012Y003328D01*
X034081Y003317D01*
X034149Y003301D01*
X034216Y003282D01*
X034281Y003259D01*
X034346Y003233D01*
X034408Y003203D01*
X034469Y003169D01*
X034528Y003132D01*
X034585Y003092D01*
X034640Y003049D01*
X034692Y003003D01*
X034741Y002954D01*
X034787Y002902D01*
X034831Y002848D01*
X034824Y002842D01*
X034780Y002896D01*
X034734Y002947D01*
X034685Y002996D01*
X034634Y003042D01*
X034580Y003085D01*
X034523Y003125D01*
X034465Y003161D01*
X034404Y003195D01*
X034342Y003225D01*
X034278Y003251D01*
X034213Y003273D01*
X034147Y003292D01*
X034079Y003308D01*
X034011Y003319D01*
X033943Y003327D01*
X033874Y003331D01*
X033805Y003330D01*
X033736Y003326D01*
X033667Y003319D01*
X033599Y003307D01*
X033532Y003292D01*
X033465Y003272D01*
X033400Y003249D01*
X033337Y003223D01*
X033274Y003193D01*
X033214Y003160D01*
X033156Y003123D01*
X033099Y003083D01*
X033045Y003040D01*
X032994Y002994D01*
X032945Y002945D01*
X032899Y002893D01*
X032856Y002839D01*
X032816Y002783D01*
X032780Y002724D01*
X032746Y002664D01*
X032716Y002602D01*
X032690Y002538D01*
X032667Y002473D01*
X032648Y002406D01*
X032633Y002339D01*
X032621Y002271D01*
X032613Y002202D01*
X032609Y002134D01*
X032609Y002064D01*
X032613Y001996D01*
X032621Y001927D01*
X032633Y001859D01*
X032648Y001792D01*
X032667Y001725D01*
X032690Y001660D01*
X032716Y001596D01*
X032746Y001534D01*
X032780Y001474D01*
X032816Y001415D01*
X032856Y001359D01*
X032899Y001305D01*
X032945Y001253D01*
X032994Y001204D01*
X033045Y001158D01*
X033099Y001115D01*
X033156Y001075D01*
X033214Y001038D01*
X033274Y001005D01*
X033337Y000975D01*
X033400Y000949D01*
X033465Y000926D01*
X033532Y000906D01*
X033599Y000891D01*
X033667Y000879D01*
X033736Y000872D01*
X033805Y000868D01*
X033874Y000867D01*
X033943Y000871D01*
X034011Y000879D01*
X034079Y000890D01*
X034147Y000906D01*
X034213Y000925D01*
X034278Y000947D01*
X034342Y000973D01*
X034404Y001003D01*
X034465Y001037D01*
X034523Y001073D01*
X034580Y001113D01*
X034634Y001156D01*
X034685Y001202D01*
X034734Y001251D01*
X034780Y001302D01*
X034824Y001356D01*
X034816Y001361D01*
X034773Y001307D01*
X034727Y001256D01*
X034677Y001207D01*
X034626Y001161D01*
X034571Y001118D01*
X034514Y001078D01*
X034456Y001042D01*
X034395Y001008D01*
X034332Y000979D01*
X034268Y000953D01*
X034202Y000931D01*
X034135Y000912D01*
X034068Y000897D01*
X033999Y000886D01*
X033930Y000879D01*
X033861Y000876D01*
X033792Y000877D01*
X033722Y000882D01*
X033654Y000890D01*
X033586Y000903D01*
X033518Y000919D01*
X033452Y000940D01*
X033387Y000963D01*
X033323Y000991D01*
X033261Y001022D01*
X033201Y001057D01*
X033143Y001095D01*
X033087Y001136D01*
X033034Y001180D01*
X032983Y001227D01*
X032935Y001277D01*
X032890Y001330D01*
X032848Y001385D01*
X032809Y001442D01*
X032774Y001502D01*
X032742Y001563D01*
X032713Y001626D01*
X032688Y001691D01*
X032667Y001757D01*
X032649Y001824D01*
X032636Y001892D01*
X032626Y001961D01*
X032620Y002030D01*
X032618Y002099D01*
X032620Y002168D01*
X032626Y002237D01*
X032636Y002306D01*
X032649Y002374D01*
X032667Y002441D01*
X032688Y002507D01*
X032713Y002572D01*
X032742Y002635D01*
X032774Y002696D01*
X032809Y002756D01*
X032848Y002813D01*
X032890Y002868D01*
X032935Y002921D01*
X032983Y002971D01*
X033034Y003018D01*
X033087Y003062D01*
X033143Y003103D01*
X033201Y003141D01*
X033261Y003176D01*
X033323Y003207D01*
X033387Y003235D01*
X033452Y003258D01*
X033518Y003279D01*
X033586Y003295D01*
X033654Y003308D01*
X033722Y003316D01*
X033792Y003321D01*
X033861Y003322D01*
X033930Y003319D01*
X033999Y003312D01*
X034068Y003301D01*
X034135Y003286D01*
X034202Y003267D01*
X034268Y003245D01*
X034332Y003219D01*
X034395Y003190D01*
X034456Y003156D01*
X034514Y003120D01*
X034571Y003080D01*
X034626Y003037D01*
X034677Y002991D01*
X034727Y002942D01*
X034773Y002891D01*
X034816Y002837D01*
X034809Y002831D01*
X034766Y002885D01*
X034720Y002936D01*
X034671Y002985D01*
X034620Y003030D01*
X034566Y003073D01*
X034509Y003112D01*
X034451Y003149D01*
X034391Y003182D01*
X034328Y003211D01*
X034265Y003237D01*
X034199Y003259D01*
X034133Y003277D01*
X034066Y003292D01*
X033998Y003303D01*
X033929Y003310D01*
X033861Y003313D01*
X033792Y003312D01*
X033723Y003307D01*
X033655Y003299D01*
X033587Y003286D01*
X033521Y003270D01*
X033455Y003250D01*
X033390Y003226D01*
X033327Y003199D01*
X033266Y003168D01*
X033206Y003134D01*
X033148Y003096D01*
X033093Y003055D01*
X033040Y003011D01*
X032990Y002964D01*
X032942Y002915D01*
X032897Y002863D01*
X032855Y002808D01*
X032817Y002751D01*
X032782Y002692D01*
X032750Y002631D01*
X032721Y002568D01*
X032697Y002504D01*
X032675Y002438D01*
X032658Y002372D01*
X032645Y002304D01*
X032635Y002236D01*
X032629Y002168D01*
X032627Y002099D01*
X032629Y002030D01*
X032635Y001962D01*
X032645Y001894D01*
X032658Y001826D01*
X032675Y001760D01*
X032697Y001694D01*
X032721Y001630D01*
X032750Y001567D01*
X032782Y001506D01*
X032817Y001447D01*
X032855Y001390D01*
X032897Y001335D01*
X032942Y001283D01*
X032990Y001234D01*
X033040Y001187D01*
X033093Y001143D01*
X033148Y001102D01*
X033206Y001064D01*
X033266Y001030D01*
X033327Y000999D01*
X033390Y000972D01*
X033455Y000948D01*
X033521Y000928D01*
X033587Y000912D01*
X033655Y000899D01*
X033723Y000891D01*
X033792Y000886D01*
X033861Y000885D01*
X033929Y000888D01*
X033998Y000895D01*
X034066Y000906D01*
X034133Y000921D01*
X034199Y000939D01*
X034265Y000961D01*
X034328Y000987D01*
X034391Y001016D01*
X034451Y001049D01*
X034509Y001086D01*
X034566Y001125D01*
X034620Y001168D01*
X034671Y001213D01*
X034720Y001262D01*
X034766Y001313D01*
X034809Y001367D01*
X002885Y002879D02*
X002813Y002825D01*
X002814Y002826D02*
X002771Y002879D01*
X002726Y002930D01*
X002677Y002978D01*
X002626Y003023D01*
X002572Y003066D01*
X002516Y003105D01*
X002458Y003141D01*
X002398Y003174D01*
X002337Y003203D01*
X002273Y003228D01*
X002209Y003250D01*
X002143Y003269D01*
X002076Y003283D01*
X002009Y003294D01*
X001941Y003301D01*
X001873Y003304D01*
X001804Y003303D01*
X001736Y003298D01*
X001668Y003290D01*
X001601Y003277D01*
X001535Y003261D01*
X001470Y003241D01*
X001405Y003218D01*
X001343Y003191D01*
X001282Y003160D01*
X001223Y003126D01*
X001165Y003089D01*
X001110Y003048D01*
X001058Y003004D01*
X001008Y002958D01*
X000961Y002909D01*
X000916Y002857D01*
X000875Y002803D01*
X000836Y002746D01*
X000801Y002687D01*
X000770Y002627D01*
X000742Y002565D01*
X000717Y002501D01*
X000696Y002436D01*
X000679Y002370D01*
X000665Y002303D01*
X000656Y002235D01*
X000650Y002167D01*
X000648Y002099D01*
X000650Y002031D01*
X000656Y001963D01*
X000665Y001895D01*
X000679Y001828D01*
X000696Y001762D01*
X000717Y001697D01*
X000742Y001633D01*
X000770Y001571D01*
X000801Y001511D01*
X000836Y001452D01*
X000875Y001395D01*
X000916Y001341D01*
X000961Y001289D01*
X001008Y001240D01*
X001058Y001194D01*
X001110Y001150D01*
X001165Y001109D01*
X001223Y001072D01*
X001282Y001038D01*
X001343Y001007D01*
X001405Y000980D01*
X001470Y000957D01*
X001535Y000937D01*
X001601Y000921D01*
X001668Y000908D01*
X001736Y000900D01*
X001804Y000895D01*
X001873Y000894D01*
X001941Y000897D01*
X002009Y000904D01*
X002076Y000915D01*
X002143Y000929D01*
X002209Y000948D01*
X002273Y000970D01*
X002337Y000995D01*
X002398Y001024D01*
X002458Y001057D01*
X002516Y001093D01*
X002572Y001132D01*
X002626Y001175D01*
X002677Y001220D01*
X002726Y001268D01*
X002771Y001319D01*
X002814Y001372D01*
X002885Y001319D01*
X002886Y001318D01*
X002842Y001263D01*
X002794Y001210D01*
X002744Y001159D01*
X002691Y001112D01*
X002636Y001068D01*
X002578Y001026D01*
X002518Y000988D01*
X002457Y000953D01*
X002393Y000922D01*
X002328Y000894D01*
X002261Y000870D01*
X002193Y000849D01*
X002124Y000833D01*
X002054Y000820D01*
X001984Y000811D01*
X001913Y000805D01*
X001842Y000804D01*
X001771Y000807D01*
X001700Y000813D01*
X001630Y000823D01*
X001561Y000837D01*
X001492Y000855D01*
X001424Y000877D01*
X001358Y000902D01*
X001293Y000931D01*
X001230Y000964D01*
X001169Y001000D01*
X001110Y001039D01*
X001053Y001081D01*
X000998Y001126D01*
X000946Y001175D01*
X000897Y001226D01*
X000850Y001279D01*
X000807Y001336D01*
X000767Y001394D01*
X000730Y001455D01*
X000696Y001517D01*
X000666Y001581D01*
X000639Y001647D01*
X000616Y001714D01*
X000597Y001783D01*
X000582Y001852D01*
X000570Y001922D01*
X000562Y001993D01*
X000558Y002064D01*
X000558Y002134D01*
X000562Y002205D01*
X000570Y002276D01*
X000582Y002346D01*
X000597Y002415D01*
X000616Y002484D01*
X000639Y002551D01*
X000666Y002617D01*
X000696Y002681D01*
X000730Y002743D01*
X000767Y002804D01*
X000807Y002862D01*
X000850Y002919D01*
X000897Y002972D01*
X000946Y003023D01*
X000998Y003072D01*
X001053Y003117D01*
X001110Y003159D01*
X001169Y003198D01*
X001230Y003234D01*
X001293Y003267D01*
X001358Y003296D01*
X001424Y003321D01*
X001492Y003343D01*
X001561Y003361D01*
X001630Y003375D01*
X001700Y003385D01*
X001771Y003391D01*
X001842Y003394D01*
X001913Y003393D01*
X001984Y003387D01*
X002054Y003378D01*
X002124Y003365D01*
X002193Y003349D01*
X002261Y003328D01*
X002328Y003304D01*
X002393Y003276D01*
X002457Y003245D01*
X002518Y003210D01*
X002578Y003172D01*
X002636Y003130D01*
X002691Y003086D01*
X002744Y003039D01*
X002794Y002988D01*
X002842Y002935D01*
X002886Y002880D01*
X002879Y002875D01*
X002834Y002930D01*
X002787Y002983D01*
X002736Y003034D01*
X002683Y003081D01*
X002627Y003126D01*
X002569Y003167D01*
X002509Y003205D01*
X002447Y003240D01*
X002383Y003271D01*
X002317Y003298D01*
X002250Y003322D01*
X002181Y003342D01*
X002112Y003359D01*
X002042Y003371D01*
X001971Y003380D01*
X001900Y003384D01*
X001829Y003385D01*
X001758Y003381D01*
X001687Y003374D01*
X001616Y003363D01*
X001547Y003348D01*
X001478Y003329D01*
X001410Y003306D01*
X001344Y003280D01*
X001279Y003250D01*
X001217Y003216D01*
X001156Y003180D01*
X001097Y003139D01*
X001040Y003096D01*
X000986Y003049D01*
X000935Y003000D01*
X000887Y002947D01*
X000841Y002893D01*
X000799Y002835D01*
X000760Y002776D01*
X000724Y002714D01*
X000691Y002651D01*
X000663Y002586D01*
X000637Y002519D01*
X000616Y002451D01*
X000598Y002382D01*
X000585Y002312D01*
X000575Y002241D01*
X000569Y002170D01*
X000567Y002099D01*
X000569Y002028D01*
X000575Y001957D01*
X000585Y001886D01*
X000598Y001816D01*
X000616Y001747D01*
X000637Y001679D01*
X000663Y001612D01*
X000691Y001547D01*
X000724Y001484D01*
X000760Y001422D01*
X000799Y001363D01*
X000841Y001305D01*
X000887Y001251D01*
X000935Y001198D01*
X000986Y001149D01*
X001040Y001102D01*
X001097Y001059D01*
X001156Y001018D01*
X001217Y000982D01*
X001279Y000948D01*
X001344Y000918D01*
X001410Y000892D01*
X001478Y000869D01*
X001547Y000850D01*
X001616Y000835D01*
X001687Y000824D01*
X001758Y000817D01*
X001829Y000813D01*
X001900Y000814D01*
X001971Y000818D01*
X002042Y000827D01*
X002112Y000839D01*
X002181Y000856D01*
X002250Y000876D01*
X002317Y000900D01*
X002383Y000927D01*
X002447Y000958D01*
X002509Y000993D01*
X002569Y001031D01*
X002627Y001072D01*
X002683Y001117D01*
X002736Y001164D01*
X002787Y001215D01*
X002834Y001268D01*
X002879Y001323D01*
X002872Y001329D01*
X002827Y001274D01*
X002780Y001221D01*
X002730Y001171D01*
X002677Y001124D01*
X002622Y001080D01*
X002564Y001038D01*
X002505Y001001D01*
X002443Y000966D01*
X002379Y000935D01*
X002314Y000908D01*
X002247Y000884D01*
X002179Y000864D01*
X002110Y000848D01*
X002041Y000836D01*
X001970Y000827D01*
X001900Y000823D01*
X001829Y000822D01*
X001758Y000826D01*
X001688Y000833D01*
X001618Y000844D01*
X001549Y000859D01*
X001481Y000878D01*
X001413Y000900D01*
X001348Y000926D01*
X001283Y000956D01*
X001221Y000989D01*
X001161Y001026D01*
X001102Y001066D01*
X001046Y001109D01*
X000992Y001155D01*
X000942Y001205D01*
X000893Y001256D01*
X000848Y001311D01*
X000806Y001368D01*
X000767Y001427D01*
X000732Y001488D01*
X000699Y001551D01*
X000671Y001616D01*
X000646Y001682D01*
X000625Y001750D01*
X000607Y001818D01*
X000594Y001888D01*
X000584Y001958D01*
X000578Y002028D01*
X000576Y002099D01*
X000578Y002170D01*
X000584Y002240D01*
X000594Y002310D01*
X000607Y002380D01*
X000625Y002448D01*
X000646Y002516D01*
X000671Y002582D01*
X000699Y002647D01*
X000732Y002710D01*
X000767Y002771D01*
X000806Y002830D01*
X000848Y002887D01*
X000893Y002942D01*
X000942Y002993D01*
X000992Y003043D01*
X001046Y003089D01*
X001102Y003132D01*
X001161Y003172D01*
X001221Y003209D01*
X001283Y003242D01*
X001348Y003272D01*
X001413Y003298D01*
X001481Y003320D01*
X001549Y003339D01*
X001618Y003354D01*
X001688Y003365D01*
X001758Y003372D01*
X001829Y003376D01*
X001900Y003375D01*
X001970Y003371D01*
X002041Y003362D01*
X002110Y003350D01*
X002179Y003334D01*
X002247Y003314D01*
X002314Y003290D01*
X002379Y003263D01*
X002443Y003232D01*
X002505Y003197D01*
X002564Y003160D01*
X002622Y003118D01*
X002677Y003074D01*
X002730Y003027D01*
X002780Y002977D01*
X002827Y002924D01*
X002872Y002869D01*
X002864Y002864D01*
X002820Y002919D01*
X002772Y002972D01*
X002722Y003022D01*
X002669Y003070D01*
X002613Y003114D01*
X002555Y003155D01*
X002495Y003192D01*
X002433Y003227D01*
X002369Y003257D01*
X002303Y003284D01*
X002236Y003308D01*
X002168Y003327D01*
X002098Y003343D01*
X002028Y003355D01*
X001958Y003363D01*
X001887Y003367D01*
X001816Y003366D01*
X001745Y003362D01*
X001674Y003354D01*
X001604Y003342D01*
X001535Y003326D01*
X001467Y003307D01*
X001399Y003283D01*
X001334Y003256D01*
X001270Y003225D01*
X001208Y003191D01*
X001148Y003153D01*
X001090Y003111D01*
X001034Y003067D01*
X000981Y003020D01*
X000931Y002969D01*
X000884Y002916D01*
X000839Y002861D01*
X000798Y002803D01*
X000761Y002743D01*
X000726Y002680D01*
X000695Y002616D01*
X000668Y002551D01*
X000645Y002484D01*
X000625Y002415D01*
X000609Y002346D01*
X000597Y002276D01*
X000589Y002205D01*
X000585Y002135D01*
X000585Y002063D01*
X000589Y001993D01*
X000597Y001922D01*
X000609Y001852D01*
X000625Y001783D01*
X000645Y001714D01*
X000668Y001647D01*
X000695Y001582D01*
X000726Y001518D01*
X000761Y001455D01*
X000798Y001395D01*
X000839Y001337D01*
X000884Y001282D01*
X000931Y001229D01*
X000981Y001178D01*
X001034Y001131D01*
X001090Y001087D01*
X001148Y001045D01*
X001208Y001007D01*
X001270Y000973D01*
X001334Y000942D01*
X001399Y000915D01*
X001467Y000891D01*
X001535Y000872D01*
X001604Y000856D01*
X001674Y000844D01*
X001745Y000836D01*
X001816Y000832D01*
X001887Y000831D01*
X001958Y000835D01*
X002028Y000843D01*
X002098Y000855D01*
X002168Y000871D01*
X002236Y000890D01*
X002303Y000914D01*
X002369Y000941D01*
X002433Y000971D01*
X002495Y001006D01*
X002555Y001043D01*
X002613Y001084D01*
X002669Y001128D01*
X002722Y001176D01*
X002772Y001226D01*
X002820Y001279D01*
X002864Y001334D01*
X002857Y001340D01*
X002813Y001285D01*
X002766Y001232D01*
X002716Y001182D01*
X002663Y001135D01*
X002608Y001091D01*
X002550Y001051D01*
X002491Y001013D01*
X002429Y000979D01*
X002365Y000949D01*
X002300Y000922D01*
X002233Y000899D01*
X002165Y000879D01*
X002097Y000864D01*
X002027Y000852D01*
X001957Y000844D01*
X001886Y000840D01*
X001816Y000841D01*
X001745Y000845D01*
X001675Y000853D01*
X001606Y000865D01*
X001537Y000880D01*
X001469Y000900D01*
X001403Y000923D01*
X001338Y000950D01*
X001274Y000981D01*
X001212Y001015D01*
X001153Y001053D01*
X001095Y001094D01*
X001040Y001138D01*
X000987Y001185D01*
X000938Y001235D01*
X000891Y001287D01*
X000847Y001343D01*
X000806Y001400D01*
X000768Y001460D01*
X000734Y001522D01*
X000704Y001585D01*
X000677Y001650D01*
X000653Y001717D01*
X000634Y001785D01*
X000618Y001854D01*
X000606Y001923D01*
X000598Y001993D01*
X000594Y002064D01*
X000594Y002134D01*
X000598Y002205D01*
X000606Y002275D01*
X000618Y002344D01*
X000634Y002413D01*
X000653Y002481D01*
X000677Y002548D01*
X000704Y002613D01*
X000734Y002676D01*
X000768Y002738D01*
X000806Y002798D01*
X000847Y002855D01*
X000891Y002911D01*
X000938Y002963D01*
X000987Y003013D01*
X001040Y003060D01*
X001095Y003104D01*
X001153Y003145D01*
X001212Y003183D01*
X001274Y003217D01*
X001338Y003248D01*
X001403Y003275D01*
X001469Y003298D01*
X001537Y003318D01*
X001606Y003333D01*
X001675Y003345D01*
X001745Y003353D01*
X001816Y003357D01*
X001886Y003358D01*
X001957Y003354D01*
X002027Y003346D01*
X002097Y003334D01*
X002165Y003319D01*
X002233Y003299D01*
X002300Y003276D01*
X002365Y003249D01*
X002429Y003219D01*
X002491Y003185D01*
X002550Y003147D01*
X002608Y003107D01*
X002663Y003063D01*
X002716Y003016D01*
X002766Y002966D01*
X002813Y002913D01*
X002857Y002858D01*
X002850Y002853D01*
X002806Y002908D01*
X002759Y002960D01*
X002710Y003009D01*
X002657Y003056D01*
X002603Y003099D01*
X002545Y003140D01*
X002486Y003177D01*
X002425Y003211D01*
X002361Y003241D01*
X002297Y003268D01*
X002230Y003291D01*
X002163Y003310D01*
X002095Y003325D01*
X002026Y003337D01*
X001956Y003345D01*
X001886Y003349D01*
X001816Y003348D01*
X001746Y003344D01*
X001677Y003336D01*
X001608Y003325D01*
X001539Y003309D01*
X001472Y003290D01*
X001406Y003266D01*
X001341Y003239D01*
X001278Y003209D01*
X001217Y003175D01*
X001158Y003138D01*
X001100Y003097D01*
X001046Y003053D01*
X000994Y003007D01*
X000944Y002957D01*
X000897Y002905D01*
X000854Y002850D01*
X000813Y002793D01*
X000776Y002734D01*
X000742Y002672D01*
X000712Y002609D01*
X000685Y002544D01*
X000662Y002478D01*
X000643Y002411D01*
X000627Y002343D01*
X000615Y002274D01*
X000607Y002204D01*
X000603Y002134D01*
X000603Y002064D01*
X000607Y001994D01*
X000615Y001924D01*
X000627Y001855D01*
X000643Y001787D01*
X000662Y001720D01*
X000685Y001654D01*
X000712Y001589D01*
X000742Y001526D01*
X000776Y001464D01*
X000813Y001405D01*
X000854Y001348D01*
X000897Y001293D01*
X000944Y001241D01*
X000994Y001191D01*
X001046Y001145D01*
X001100Y001101D01*
X001158Y001060D01*
X001217Y001023D01*
X001278Y000989D01*
X001341Y000959D01*
X001406Y000932D01*
X001472Y000908D01*
X001539Y000889D01*
X001608Y000873D01*
X001677Y000862D01*
X001746Y000854D01*
X001816Y000850D01*
X001886Y000849D01*
X001956Y000853D01*
X002026Y000861D01*
X002095Y000873D01*
X002163Y000888D01*
X002230Y000907D01*
X002297Y000930D01*
X002361Y000957D01*
X002425Y000987D01*
X002486Y001021D01*
X002545Y001058D01*
X002603Y001099D01*
X002657Y001142D01*
X002710Y001189D01*
X002759Y001238D01*
X002806Y001290D01*
X002850Y001345D01*
X002843Y001350D01*
X002799Y001296D01*
X002753Y001244D01*
X002704Y001195D01*
X002652Y001149D01*
X002597Y001106D01*
X002540Y001066D01*
X002481Y001029D01*
X002420Y000995D01*
X002358Y000965D01*
X002293Y000939D01*
X002228Y000916D01*
X002161Y000897D01*
X002093Y000881D01*
X002024Y000870D01*
X001955Y000862D01*
X001886Y000858D01*
X001816Y000859D01*
X001747Y000863D01*
X001678Y000870D01*
X001609Y000882D01*
X001542Y000898D01*
X001475Y000917D01*
X001409Y000940D01*
X001345Y000967D01*
X001282Y000997D01*
X001221Y001031D01*
X001163Y001068D01*
X001106Y001108D01*
X001052Y001151D01*
X001000Y001198D01*
X000951Y001247D01*
X000904Y001299D01*
X000861Y001353D01*
X000821Y001410D01*
X000784Y001469D01*
X000750Y001530D01*
X000720Y001593D01*
X000693Y001657D01*
X000670Y001722D01*
X000651Y001789D01*
X000636Y001857D01*
X000624Y001926D01*
X000616Y001995D01*
X000612Y002064D01*
X000612Y002134D01*
X000616Y002203D01*
X000624Y002272D01*
X000636Y002341D01*
X000651Y002409D01*
X000670Y002476D01*
X000693Y002541D01*
X000720Y002605D01*
X000750Y002668D01*
X000784Y002729D01*
X000821Y002788D01*
X000861Y002845D01*
X000904Y002899D01*
X000951Y002951D01*
X001000Y003000D01*
X001052Y003047D01*
X001106Y003090D01*
X001163Y003130D01*
X001221Y003167D01*
X001282Y003201D01*
X001345Y003231D01*
X001409Y003258D01*
X001475Y003281D01*
X001542Y003300D01*
X001609Y003316D01*
X001678Y003328D01*
X001747Y003335D01*
X001816Y003339D01*
X001886Y003340D01*
X001955Y003336D01*
X002024Y003328D01*
X002093Y003317D01*
X002161Y003301D01*
X002228Y003282D01*
X002293Y003259D01*
X002358Y003233D01*
X002420Y003203D01*
X002481Y003169D01*
X002540Y003132D01*
X002597Y003092D01*
X002652Y003049D01*
X002704Y003003D01*
X002753Y002954D01*
X002799Y002902D01*
X002843Y002848D01*
X002836Y002842D01*
X002792Y002896D01*
X002746Y002947D01*
X002697Y002996D01*
X002646Y003042D01*
X002592Y003085D01*
X002535Y003125D01*
X002477Y003161D01*
X002416Y003195D01*
X002354Y003225D01*
X002290Y003251D01*
X002225Y003273D01*
X002159Y003292D01*
X002091Y003308D01*
X002023Y003319D01*
X001955Y003327D01*
X001886Y003331D01*
X001817Y003330D01*
X001748Y003326D01*
X001679Y003319D01*
X001611Y003307D01*
X001544Y003292D01*
X001477Y003272D01*
X001412Y003249D01*
X001349Y003223D01*
X001286Y003193D01*
X001226Y003160D01*
X001168Y003123D01*
X001111Y003083D01*
X001057Y003040D01*
X001006Y002994D01*
X000957Y002945D01*
X000911Y002893D01*
X000868Y002839D01*
X000828Y002783D01*
X000792Y002724D01*
X000758Y002664D01*
X000728Y002602D01*
X000702Y002538D01*
X000679Y002473D01*
X000660Y002406D01*
X000645Y002339D01*
X000633Y002271D01*
X000625Y002202D01*
X000621Y002134D01*
X000621Y002064D01*
X000625Y001996D01*
X000633Y001927D01*
X000645Y001859D01*
X000660Y001792D01*
X000679Y001725D01*
X000702Y001660D01*
X000728Y001596D01*
X000758Y001534D01*
X000792Y001474D01*
X000828Y001415D01*
X000868Y001359D01*
X000911Y001305D01*
X000957Y001253D01*
X001006Y001204D01*
X001057Y001158D01*
X001111Y001115D01*
X001168Y001075D01*
X001226Y001038D01*
X001286Y001005D01*
X001349Y000975D01*
X001412Y000949D01*
X001477Y000926D01*
X001544Y000906D01*
X001611Y000891D01*
X001679Y000879D01*
X001748Y000872D01*
X001817Y000868D01*
X001886Y000867D01*
X001955Y000871D01*
X002023Y000879D01*
X002091Y000890D01*
X002159Y000906D01*
X002225Y000925D01*
X002290Y000947D01*
X002354Y000973D01*
X002416Y001003D01*
X002477Y001037D01*
X002535Y001073D01*
X002592Y001113D01*
X002646Y001156D01*
X002697Y001202D01*
X002746Y001251D01*
X002792Y001302D01*
X002836Y001356D01*
X002828Y001361D01*
X002785Y001307D01*
X002739Y001256D01*
X002689Y001207D01*
X002638Y001161D01*
X002583Y001118D01*
X002526Y001078D01*
X002468Y001042D01*
X002407Y001008D01*
X002344Y000979D01*
X002280Y000953D01*
X002214Y000931D01*
X002147Y000912D01*
X002080Y000897D01*
X002011Y000886D01*
X001942Y000879D01*
X001873Y000876D01*
X001804Y000877D01*
X001734Y000882D01*
X001666Y000890D01*
X001598Y000903D01*
X001530Y000919D01*
X001464Y000940D01*
X001399Y000963D01*
X001335Y000991D01*
X001273Y001022D01*
X001213Y001057D01*
X001155Y001095D01*
X001099Y001136D01*
X001046Y001180D01*
X000995Y001227D01*
X000947Y001277D01*
X000902Y001330D01*
X000860Y001385D01*
X000821Y001442D01*
X000786Y001502D01*
X000754Y001563D01*
X000725Y001626D01*
X000700Y001691D01*
X000679Y001757D01*
X000661Y001824D01*
X000648Y001892D01*
X000638Y001961D01*
X000632Y002030D01*
X000630Y002099D01*
X000632Y002168D01*
X000638Y002237D01*
X000648Y002306D01*
X000661Y002374D01*
X000679Y002441D01*
X000700Y002507D01*
X000725Y002572D01*
X000754Y002635D01*
X000786Y002696D01*
X000821Y002756D01*
X000860Y002813D01*
X000902Y002868D01*
X000947Y002921D01*
X000995Y002971D01*
X001046Y003018D01*
X001099Y003062D01*
X001155Y003103D01*
X001213Y003141D01*
X001273Y003176D01*
X001335Y003207D01*
X001399Y003235D01*
X001464Y003258D01*
X001530Y003279D01*
X001598Y003295D01*
X001666Y003308D01*
X001734Y003316D01*
X001804Y003321D01*
X001873Y003322D01*
X001942Y003319D01*
X002011Y003312D01*
X002080Y003301D01*
X002147Y003286D01*
X002214Y003267D01*
X002280Y003245D01*
X002344Y003219D01*
X002407Y003190D01*
X002468Y003156D01*
X002526Y003120D01*
X002583Y003080D01*
X002638Y003037D01*
X002689Y002991D01*
X002739Y002942D01*
X002785Y002891D01*
X002828Y002837D01*
X002821Y002831D01*
X002778Y002885D01*
X002732Y002936D01*
X002683Y002985D01*
X002632Y003030D01*
X002578Y003073D01*
X002521Y003112D01*
X002463Y003149D01*
X002403Y003182D01*
X002340Y003211D01*
X002277Y003237D01*
X002211Y003259D01*
X002145Y003277D01*
X002078Y003292D01*
X002010Y003303D01*
X001941Y003310D01*
X001873Y003313D01*
X001804Y003312D01*
X001735Y003307D01*
X001667Y003299D01*
X001599Y003286D01*
X001533Y003270D01*
X001467Y003250D01*
X001402Y003226D01*
X001339Y003199D01*
X001278Y003168D01*
X001218Y003134D01*
X001160Y003096D01*
X001105Y003055D01*
X001052Y003011D01*
X001002Y002964D01*
X000954Y002915D01*
X000909Y002863D01*
X000867Y002808D01*
X000829Y002751D01*
X000794Y002692D01*
X000762Y002631D01*
X000733Y002568D01*
X000709Y002504D01*
X000687Y002438D01*
X000670Y002372D01*
X000657Y002304D01*
X000647Y002236D01*
X000641Y002168D01*
X000639Y002099D01*
X000641Y002030D01*
X000647Y001962D01*
X000657Y001894D01*
X000670Y001826D01*
X000687Y001760D01*
X000709Y001694D01*
X000733Y001630D01*
X000762Y001567D01*
X000794Y001506D01*
X000829Y001447D01*
X000867Y001390D01*
X000909Y001335D01*
X000954Y001283D01*
X001002Y001234D01*
X001052Y001187D01*
X001105Y001143D01*
X001160Y001102D01*
X001218Y001064D01*
X001278Y001030D01*
X001339Y000999D01*
X001402Y000972D01*
X001467Y000948D01*
X001533Y000928D01*
X001599Y000912D01*
X001667Y000899D01*
X001735Y000891D01*
X001804Y000886D01*
X001873Y000885D01*
X001941Y000888D01*
X002010Y000895D01*
X002078Y000906D01*
X002145Y000921D01*
X002211Y000939D01*
X002277Y000961D01*
X002340Y000987D01*
X002403Y001016D01*
X002463Y001049D01*
X002521Y001086D01*
X002578Y001125D01*
X002632Y001168D01*
X002683Y001213D01*
X002732Y001262D01*
X002778Y001313D01*
X002821Y001367D01*
X002888Y022676D02*
X002816Y022622D01*
X002817Y022623D02*
X002774Y022676D01*
X002729Y022727D01*
X002680Y022775D01*
X002629Y022820D01*
X002575Y022863D01*
X002519Y022902D01*
X002461Y022938D01*
X002401Y022971D01*
X002340Y023000D01*
X002276Y023025D01*
X002212Y023047D01*
X002146Y023066D01*
X002079Y023080D01*
X002012Y023091D01*
X001944Y023098D01*
X001876Y023101D01*
X001807Y023100D01*
X001739Y023095D01*
X001671Y023087D01*
X001604Y023074D01*
X001538Y023058D01*
X001473Y023038D01*
X001408Y023015D01*
X001346Y022988D01*
X001285Y022957D01*
X001226Y022923D01*
X001168Y022886D01*
X001113Y022845D01*
X001061Y022801D01*
X001011Y022755D01*
X000964Y022706D01*
X000919Y022654D01*
X000878Y022600D01*
X000839Y022543D01*
X000804Y022484D01*
X000773Y022424D01*
X000745Y022362D01*
X000720Y022298D01*
X000699Y022233D01*
X000682Y022167D01*
X000668Y022100D01*
X000659Y022032D01*
X000653Y021964D01*
X000651Y021896D01*
X000653Y021828D01*
X000659Y021760D01*
X000668Y021692D01*
X000682Y021625D01*
X000699Y021559D01*
X000720Y021494D01*
X000745Y021430D01*
X000773Y021368D01*
X000804Y021308D01*
X000839Y021249D01*
X000878Y021192D01*
X000919Y021138D01*
X000964Y021086D01*
X001011Y021037D01*
X001061Y020991D01*
X001113Y020947D01*
X001168Y020906D01*
X001226Y020869D01*
X001285Y020835D01*
X001346Y020804D01*
X001408Y020777D01*
X001473Y020754D01*
X001538Y020734D01*
X001604Y020718D01*
X001671Y020705D01*
X001739Y020697D01*
X001807Y020692D01*
X001876Y020691D01*
X001944Y020694D01*
X002012Y020701D01*
X002079Y020712D01*
X002146Y020726D01*
X002212Y020745D01*
X002276Y020767D01*
X002340Y020792D01*
X002401Y020821D01*
X002461Y020854D01*
X002519Y020890D01*
X002575Y020929D01*
X002629Y020972D01*
X002680Y021017D01*
X002729Y021065D01*
X002774Y021116D01*
X002817Y021169D01*
X002888Y021116D01*
X002889Y021115D01*
X002845Y021060D01*
X002797Y021007D01*
X002747Y020956D01*
X002694Y020909D01*
X002639Y020865D01*
X002581Y020823D01*
X002521Y020785D01*
X002460Y020750D01*
X002396Y020719D01*
X002331Y020691D01*
X002264Y020667D01*
X002196Y020646D01*
X002127Y020630D01*
X002057Y020617D01*
X001987Y020608D01*
X001916Y020602D01*
X001845Y020601D01*
X001774Y020604D01*
X001703Y020610D01*
X001633Y020620D01*
X001564Y020634D01*
X001495Y020652D01*
X001427Y020674D01*
X001361Y020699D01*
X001296Y020728D01*
X001233Y020761D01*
X001172Y020797D01*
X001113Y020836D01*
X001056Y020878D01*
X001001Y020923D01*
X000949Y020972D01*
X000900Y021023D01*
X000853Y021076D01*
X000810Y021133D01*
X000770Y021191D01*
X000733Y021252D01*
X000699Y021314D01*
X000669Y021378D01*
X000642Y021444D01*
X000619Y021511D01*
X000600Y021580D01*
X000585Y021649D01*
X000573Y021719D01*
X000565Y021790D01*
X000561Y021861D01*
X000561Y021931D01*
X000565Y022002D01*
X000573Y022073D01*
X000585Y022143D01*
X000600Y022212D01*
X000619Y022281D01*
X000642Y022348D01*
X000669Y022414D01*
X000699Y022478D01*
X000733Y022540D01*
X000770Y022601D01*
X000810Y022659D01*
X000853Y022716D01*
X000900Y022769D01*
X000949Y022820D01*
X001001Y022869D01*
X001056Y022914D01*
X001113Y022956D01*
X001172Y022995D01*
X001233Y023031D01*
X001296Y023064D01*
X001361Y023093D01*
X001427Y023118D01*
X001495Y023140D01*
X001564Y023158D01*
X001633Y023172D01*
X001703Y023182D01*
X001774Y023188D01*
X001845Y023191D01*
X001916Y023190D01*
X001987Y023184D01*
X002057Y023175D01*
X002127Y023162D01*
X002196Y023146D01*
X002264Y023125D01*
X002331Y023101D01*
X002396Y023073D01*
X002460Y023042D01*
X002521Y023007D01*
X002581Y022969D01*
X002639Y022927D01*
X002694Y022883D01*
X002747Y022836D01*
X002797Y022785D01*
X002845Y022732D01*
X002889Y022677D01*
X002882Y022672D01*
X002837Y022727D01*
X002790Y022780D01*
X002739Y022831D01*
X002686Y022878D01*
X002630Y022923D01*
X002572Y022964D01*
X002512Y023002D01*
X002450Y023037D01*
X002386Y023068D01*
X002320Y023095D01*
X002253Y023119D01*
X002184Y023139D01*
X002115Y023156D01*
X002045Y023168D01*
X001974Y023177D01*
X001903Y023181D01*
X001832Y023182D01*
X001761Y023178D01*
X001690Y023171D01*
X001619Y023160D01*
X001550Y023145D01*
X001481Y023126D01*
X001413Y023103D01*
X001347Y023077D01*
X001282Y023047D01*
X001220Y023013D01*
X001159Y022977D01*
X001100Y022936D01*
X001043Y022893D01*
X000989Y022846D01*
X000938Y022797D01*
X000890Y022744D01*
X000844Y022690D01*
X000802Y022632D01*
X000763Y022573D01*
X000727Y022511D01*
X000694Y022448D01*
X000666Y022383D01*
X000640Y022316D01*
X000619Y022248D01*
X000601Y022179D01*
X000588Y022109D01*
X000578Y022038D01*
X000572Y021967D01*
X000570Y021896D01*
X000572Y021825D01*
X000578Y021754D01*
X000588Y021683D01*
X000601Y021613D01*
X000619Y021544D01*
X000640Y021476D01*
X000666Y021409D01*
X000694Y021344D01*
X000727Y021281D01*
X000763Y021219D01*
X000802Y021160D01*
X000844Y021102D01*
X000890Y021048D01*
X000938Y020995D01*
X000989Y020946D01*
X001043Y020899D01*
X001100Y020856D01*
X001159Y020815D01*
X001220Y020779D01*
X001282Y020745D01*
X001347Y020715D01*
X001413Y020689D01*
X001481Y020666D01*
X001550Y020647D01*
X001619Y020632D01*
X001690Y020621D01*
X001761Y020614D01*
X001832Y020610D01*
X001903Y020611D01*
X001974Y020615D01*
X002045Y020624D01*
X002115Y020636D01*
X002184Y020653D01*
X002253Y020673D01*
X002320Y020697D01*
X002386Y020724D01*
X002450Y020755D01*
X002512Y020790D01*
X002572Y020828D01*
X002630Y020869D01*
X002686Y020914D01*
X002739Y020961D01*
X002790Y021012D01*
X002837Y021065D01*
X002882Y021120D01*
X002875Y021126D01*
X002830Y021071D01*
X002783Y021018D01*
X002733Y020968D01*
X002680Y020921D01*
X002625Y020877D01*
X002567Y020835D01*
X002508Y020798D01*
X002446Y020763D01*
X002382Y020732D01*
X002317Y020705D01*
X002250Y020681D01*
X002182Y020661D01*
X002113Y020645D01*
X002044Y020633D01*
X001973Y020624D01*
X001903Y020620D01*
X001832Y020619D01*
X001761Y020623D01*
X001691Y020630D01*
X001621Y020641D01*
X001552Y020656D01*
X001484Y020675D01*
X001416Y020697D01*
X001351Y020723D01*
X001286Y020753D01*
X001224Y020786D01*
X001164Y020823D01*
X001105Y020863D01*
X001049Y020906D01*
X000995Y020952D01*
X000945Y021002D01*
X000896Y021053D01*
X000851Y021108D01*
X000809Y021165D01*
X000770Y021224D01*
X000735Y021285D01*
X000702Y021348D01*
X000674Y021413D01*
X000649Y021479D01*
X000628Y021547D01*
X000610Y021615D01*
X000597Y021685D01*
X000587Y021755D01*
X000581Y021825D01*
X000579Y021896D01*
X000581Y021967D01*
X000587Y022037D01*
X000597Y022107D01*
X000610Y022177D01*
X000628Y022245D01*
X000649Y022313D01*
X000674Y022379D01*
X000702Y022444D01*
X000735Y022507D01*
X000770Y022568D01*
X000809Y022627D01*
X000851Y022684D01*
X000896Y022739D01*
X000945Y022790D01*
X000995Y022840D01*
X001049Y022886D01*
X001105Y022929D01*
X001164Y022969D01*
X001224Y023006D01*
X001286Y023039D01*
X001351Y023069D01*
X001416Y023095D01*
X001484Y023117D01*
X001552Y023136D01*
X001621Y023151D01*
X001691Y023162D01*
X001761Y023169D01*
X001832Y023173D01*
X001903Y023172D01*
X001973Y023168D01*
X002044Y023159D01*
X002113Y023147D01*
X002182Y023131D01*
X002250Y023111D01*
X002317Y023087D01*
X002382Y023060D01*
X002446Y023029D01*
X002508Y022994D01*
X002567Y022957D01*
X002625Y022915D01*
X002680Y022871D01*
X002733Y022824D01*
X002783Y022774D01*
X002830Y022721D01*
X002875Y022666D01*
X002867Y022661D01*
X002823Y022716D01*
X002775Y022769D01*
X002725Y022819D01*
X002672Y022867D01*
X002616Y022911D01*
X002558Y022952D01*
X002498Y022989D01*
X002436Y023024D01*
X002372Y023054D01*
X002306Y023081D01*
X002239Y023105D01*
X002171Y023124D01*
X002101Y023140D01*
X002031Y023152D01*
X001961Y023160D01*
X001890Y023164D01*
X001819Y023163D01*
X001748Y023159D01*
X001677Y023151D01*
X001607Y023139D01*
X001538Y023123D01*
X001470Y023104D01*
X001402Y023080D01*
X001337Y023053D01*
X001273Y023022D01*
X001211Y022988D01*
X001151Y022950D01*
X001093Y022908D01*
X001037Y022864D01*
X000984Y022817D01*
X000934Y022766D01*
X000887Y022713D01*
X000842Y022658D01*
X000801Y022600D01*
X000764Y022540D01*
X000729Y022477D01*
X000698Y022413D01*
X000671Y022348D01*
X000648Y022281D01*
X000628Y022212D01*
X000612Y022143D01*
X000600Y022073D01*
X000592Y022002D01*
X000588Y021932D01*
X000588Y021860D01*
X000592Y021790D01*
X000600Y021719D01*
X000612Y021649D01*
X000628Y021580D01*
X000648Y021511D01*
X000671Y021444D01*
X000698Y021379D01*
X000729Y021315D01*
X000764Y021252D01*
X000801Y021192D01*
X000842Y021134D01*
X000887Y021079D01*
X000934Y021026D01*
X000984Y020975D01*
X001037Y020928D01*
X001093Y020884D01*
X001151Y020842D01*
X001211Y020804D01*
X001273Y020770D01*
X001337Y020739D01*
X001402Y020712D01*
X001470Y020688D01*
X001538Y020669D01*
X001607Y020653D01*
X001677Y020641D01*
X001748Y020633D01*
X001819Y020629D01*
X001890Y020628D01*
X001961Y020632D01*
X002031Y020640D01*
X002101Y020652D01*
X002171Y020668D01*
X002239Y020687D01*
X002306Y020711D01*
X002372Y020738D01*
X002436Y020768D01*
X002498Y020803D01*
X002558Y020840D01*
X002616Y020881D01*
X002672Y020925D01*
X002725Y020973D01*
X002775Y021023D01*
X002823Y021076D01*
X002867Y021131D01*
X002860Y021137D01*
X002816Y021082D01*
X002769Y021029D01*
X002719Y020979D01*
X002666Y020932D01*
X002611Y020888D01*
X002553Y020848D01*
X002494Y020810D01*
X002432Y020776D01*
X002368Y020746D01*
X002303Y020719D01*
X002236Y020696D01*
X002168Y020676D01*
X002100Y020661D01*
X002030Y020649D01*
X001960Y020641D01*
X001889Y020637D01*
X001819Y020638D01*
X001748Y020642D01*
X001678Y020650D01*
X001609Y020662D01*
X001540Y020677D01*
X001472Y020697D01*
X001406Y020720D01*
X001341Y020747D01*
X001277Y020778D01*
X001215Y020812D01*
X001156Y020850D01*
X001098Y020891D01*
X001043Y020935D01*
X000990Y020982D01*
X000941Y021032D01*
X000894Y021084D01*
X000850Y021140D01*
X000809Y021197D01*
X000771Y021257D01*
X000737Y021319D01*
X000707Y021382D01*
X000680Y021447D01*
X000656Y021514D01*
X000637Y021582D01*
X000621Y021651D01*
X000609Y021720D01*
X000601Y021790D01*
X000597Y021861D01*
X000597Y021931D01*
X000601Y022002D01*
X000609Y022072D01*
X000621Y022141D01*
X000637Y022210D01*
X000656Y022278D01*
X000680Y022345D01*
X000707Y022410D01*
X000737Y022473D01*
X000771Y022535D01*
X000809Y022595D01*
X000850Y022652D01*
X000894Y022708D01*
X000941Y022760D01*
X000990Y022810D01*
X001043Y022857D01*
X001098Y022901D01*
X001156Y022942D01*
X001215Y022980D01*
X001277Y023014D01*
X001341Y023045D01*
X001406Y023072D01*
X001472Y023095D01*
X001540Y023115D01*
X001609Y023130D01*
X001678Y023142D01*
X001748Y023150D01*
X001819Y023154D01*
X001889Y023155D01*
X001960Y023151D01*
X002030Y023143D01*
X002100Y023131D01*
X002168Y023116D01*
X002236Y023096D01*
X002303Y023073D01*
X002368Y023046D01*
X002432Y023016D01*
X002494Y022982D01*
X002553Y022944D01*
X002611Y022904D01*
X002666Y022860D01*
X002719Y022813D01*
X002769Y022763D01*
X002816Y022710D01*
X002860Y022655D01*
X002853Y022650D01*
X002809Y022705D01*
X002762Y022757D01*
X002713Y022806D01*
X002660Y022853D01*
X002606Y022896D01*
X002548Y022937D01*
X002489Y022974D01*
X002428Y023008D01*
X002364Y023038D01*
X002300Y023065D01*
X002233Y023088D01*
X002166Y023107D01*
X002098Y023122D01*
X002029Y023134D01*
X001959Y023142D01*
X001889Y023146D01*
X001819Y023145D01*
X001749Y023141D01*
X001680Y023133D01*
X001611Y023122D01*
X001542Y023106D01*
X001475Y023087D01*
X001409Y023063D01*
X001344Y023036D01*
X001281Y023006D01*
X001220Y022972D01*
X001161Y022935D01*
X001103Y022894D01*
X001049Y022850D01*
X000997Y022804D01*
X000947Y022754D01*
X000900Y022702D01*
X000857Y022647D01*
X000816Y022590D01*
X000779Y022531D01*
X000745Y022469D01*
X000715Y022406D01*
X000688Y022341D01*
X000665Y022275D01*
X000646Y022208D01*
X000630Y022140D01*
X000618Y022071D01*
X000610Y022001D01*
X000606Y021931D01*
X000606Y021861D01*
X000610Y021791D01*
X000618Y021721D01*
X000630Y021652D01*
X000646Y021584D01*
X000665Y021517D01*
X000688Y021451D01*
X000715Y021386D01*
X000745Y021323D01*
X000779Y021261D01*
X000816Y021202D01*
X000857Y021145D01*
X000900Y021090D01*
X000947Y021038D01*
X000997Y020988D01*
X001049Y020942D01*
X001103Y020898D01*
X001161Y020857D01*
X001220Y020820D01*
X001281Y020786D01*
X001344Y020756D01*
X001409Y020729D01*
X001475Y020705D01*
X001542Y020686D01*
X001611Y020670D01*
X001680Y020659D01*
X001749Y020651D01*
X001819Y020647D01*
X001889Y020646D01*
X001959Y020650D01*
X002029Y020658D01*
X002098Y020670D01*
X002166Y020685D01*
X002233Y020704D01*
X002300Y020727D01*
X002364Y020754D01*
X002428Y020784D01*
X002489Y020818D01*
X002548Y020855D01*
X002606Y020896D01*
X002660Y020939D01*
X002713Y020986D01*
X002762Y021035D01*
X002809Y021087D01*
X002853Y021142D01*
X002846Y021147D01*
X002802Y021093D01*
X002756Y021041D01*
X002707Y020992D01*
X002655Y020946D01*
X002600Y020903D01*
X002543Y020863D01*
X002484Y020826D01*
X002423Y020792D01*
X002361Y020762D01*
X002296Y020736D01*
X002231Y020713D01*
X002164Y020694D01*
X002096Y020678D01*
X002027Y020667D01*
X001958Y020659D01*
X001889Y020655D01*
X001819Y020656D01*
X001750Y020660D01*
X001681Y020667D01*
X001612Y020679D01*
X001545Y020695D01*
X001478Y020714D01*
X001412Y020737D01*
X001348Y020764D01*
X001285Y020794D01*
X001224Y020828D01*
X001166Y020865D01*
X001109Y020905D01*
X001055Y020948D01*
X001003Y020995D01*
X000954Y021044D01*
X000907Y021096D01*
X000864Y021150D01*
X000824Y021207D01*
X000787Y021266D01*
X000753Y021327D01*
X000723Y021390D01*
X000696Y021454D01*
X000673Y021519D01*
X000654Y021586D01*
X000639Y021654D01*
X000627Y021723D01*
X000619Y021792D01*
X000615Y021861D01*
X000615Y021931D01*
X000619Y022000D01*
X000627Y022069D01*
X000639Y022138D01*
X000654Y022206D01*
X000673Y022273D01*
X000696Y022338D01*
X000723Y022402D01*
X000753Y022465D01*
X000787Y022526D01*
X000824Y022585D01*
X000864Y022642D01*
X000907Y022696D01*
X000954Y022748D01*
X001003Y022797D01*
X001055Y022844D01*
X001109Y022887D01*
X001166Y022927D01*
X001224Y022964D01*
X001285Y022998D01*
X001348Y023028D01*
X001412Y023055D01*
X001478Y023078D01*
X001545Y023097D01*
X001612Y023113D01*
X001681Y023125D01*
X001750Y023132D01*
X001819Y023136D01*
X001889Y023137D01*
X001958Y023133D01*
X002027Y023125D01*
X002096Y023114D01*
X002164Y023098D01*
X002231Y023079D01*
X002296Y023056D01*
X002361Y023030D01*
X002423Y023000D01*
X002484Y022966D01*
X002543Y022929D01*
X002600Y022889D01*
X002655Y022846D01*
X002707Y022800D01*
X002756Y022751D01*
X002802Y022699D01*
X002846Y022645D01*
X002839Y022639D01*
X002795Y022693D01*
X002749Y022744D01*
X002700Y022793D01*
X002649Y022839D01*
X002595Y022882D01*
X002538Y022922D01*
X002480Y022958D01*
X002419Y022992D01*
X002357Y023022D01*
X002293Y023048D01*
X002228Y023070D01*
X002162Y023089D01*
X002094Y023105D01*
X002026Y023116D01*
X001958Y023124D01*
X001889Y023128D01*
X001820Y023127D01*
X001751Y023123D01*
X001682Y023116D01*
X001614Y023104D01*
X001547Y023089D01*
X001480Y023069D01*
X001415Y023046D01*
X001352Y023020D01*
X001289Y022990D01*
X001229Y022957D01*
X001171Y022920D01*
X001114Y022880D01*
X001060Y022837D01*
X001009Y022791D01*
X000960Y022742D01*
X000914Y022690D01*
X000871Y022636D01*
X000831Y022580D01*
X000795Y022521D01*
X000761Y022461D01*
X000731Y022399D01*
X000705Y022335D01*
X000682Y022270D01*
X000663Y022203D01*
X000648Y022136D01*
X000636Y022068D01*
X000628Y021999D01*
X000624Y021931D01*
X000624Y021861D01*
X000628Y021793D01*
X000636Y021724D01*
X000648Y021656D01*
X000663Y021589D01*
X000682Y021522D01*
X000705Y021457D01*
X000731Y021393D01*
X000761Y021331D01*
X000795Y021271D01*
X000831Y021212D01*
X000871Y021156D01*
X000914Y021102D01*
X000960Y021050D01*
X001009Y021001D01*
X001060Y020955D01*
X001114Y020912D01*
X001171Y020872D01*
X001229Y020835D01*
X001289Y020802D01*
X001352Y020772D01*
X001415Y020746D01*
X001480Y020723D01*
X001547Y020703D01*
X001614Y020688D01*
X001682Y020676D01*
X001751Y020669D01*
X001820Y020665D01*
X001889Y020664D01*
X001958Y020668D01*
X002026Y020676D01*
X002094Y020687D01*
X002162Y020703D01*
X002228Y020722D01*
X002293Y020744D01*
X002357Y020770D01*
X002419Y020800D01*
X002480Y020834D01*
X002538Y020870D01*
X002595Y020910D01*
X002649Y020953D01*
X002700Y020999D01*
X002749Y021048D01*
X002795Y021099D01*
X002839Y021153D01*
X002831Y021158D01*
X002788Y021104D01*
X002742Y021053D01*
X002692Y021004D01*
X002641Y020958D01*
X002586Y020915D01*
X002529Y020875D01*
X002471Y020839D01*
X002410Y020805D01*
X002347Y020776D01*
X002283Y020750D01*
X002217Y020728D01*
X002150Y020709D01*
X002083Y020694D01*
X002014Y020683D01*
X001945Y020676D01*
X001876Y020673D01*
X001807Y020674D01*
X001737Y020679D01*
X001669Y020687D01*
X001601Y020700D01*
X001533Y020716D01*
X001467Y020737D01*
X001402Y020760D01*
X001338Y020788D01*
X001276Y020819D01*
X001216Y020854D01*
X001158Y020892D01*
X001102Y020933D01*
X001049Y020977D01*
X000998Y021024D01*
X000950Y021074D01*
X000905Y021127D01*
X000863Y021182D01*
X000824Y021239D01*
X000789Y021299D01*
X000757Y021360D01*
X000728Y021423D01*
X000703Y021488D01*
X000682Y021554D01*
X000664Y021621D01*
X000651Y021689D01*
X000641Y021758D01*
X000635Y021827D01*
X000633Y021896D01*
X000635Y021965D01*
X000641Y022034D01*
X000651Y022103D01*
X000664Y022171D01*
X000682Y022238D01*
X000703Y022304D01*
X000728Y022369D01*
X000757Y022432D01*
X000789Y022493D01*
X000824Y022553D01*
X000863Y022610D01*
X000905Y022665D01*
X000950Y022718D01*
X000998Y022768D01*
X001049Y022815D01*
X001102Y022859D01*
X001158Y022900D01*
X001216Y022938D01*
X001276Y022973D01*
X001338Y023004D01*
X001402Y023032D01*
X001467Y023055D01*
X001533Y023076D01*
X001601Y023092D01*
X001669Y023105D01*
X001737Y023113D01*
X001807Y023118D01*
X001876Y023119D01*
X001945Y023116D01*
X002014Y023109D01*
X002083Y023098D01*
X002150Y023083D01*
X002217Y023064D01*
X002283Y023042D01*
X002347Y023016D01*
X002410Y022987D01*
X002471Y022953D01*
X002529Y022917D01*
X002586Y022877D01*
X002641Y022834D01*
X002692Y022788D01*
X002742Y022739D01*
X002788Y022688D01*
X002831Y022634D01*
X002824Y022628D01*
X002781Y022682D01*
X002735Y022733D01*
X002686Y022782D01*
X002635Y022827D01*
X002581Y022870D01*
X002524Y022909D01*
X002466Y022946D01*
X002406Y022979D01*
X002343Y023008D01*
X002280Y023034D01*
X002214Y023056D01*
X002148Y023074D01*
X002081Y023089D01*
X002013Y023100D01*
X001944Y023107D01*
X001876Y023110D01*
X001807Y023109D01*
X001738Y023104D01*
X001670Y023096D01*
X001602Y023083D01*
X001536Y023067D01*
X001470Y023047D01*
X001405Y023023D01*
X001342Y022996D01*
X001281Y022965D01*
X001221Y022931D01*
X001163Y022893D01*
X001108Y022852D01*
X001055Y022808D01*
X001005Y022761D01*
X000957Y022712D01*
X000912Y022660D01*
X000870Y022605D01*
X000832Y022548D01*
X000797Y022489D01*
X000765Y022428D01*
X000736Y022365D01*
X000712Y022301D01*
X000690Y022235D01*
X000673Y022169D01*
X000660Y022101D01*
X000650Y022033D01*
X000644Y021965D01*
X000642Y021896D01*
X000644Y021827D01*
X000650Y021759D01*
X000660Y021691D01*
X000673Y021623D01*
X000690Y021557D01*
X000712Y021491D01*
X000736Y021427D01*
X000765Y021364D01*
X000797Y021303D01*
X000832Y021244D01*
X000870Y021187D01*
X000912Y021132D01*
X000957Y021080D01*
X001005Y021031D01*
X001055Y020984D01*
X001108Y020940D01*
X001163Y020899D01*
X001221Y020861D01*
X001281Y020827D01*
X001342Y020796D01*
X001405Y020769D01*
X001470Y020745D01*
X001536Y020725D01*
X001602Y020709D01*
X001670Y020696D01*
X001738Y020688D01*
X001807Y020683D01*
X001876Y020682D01*
X001944Y020685D01*
X002013Y020692D01*
X002081Y020703D01*
X002148Y020718D01*
X002214Y020736D01*
X002280Y020758D01*
X002343Y020784D01*
X002406Y020813D01*
X002466Y020846D01*
X002524Y020883D01*
X002581Y020922D01*
X002635Y020965D01*
X002686Y021010D01*
X002735Y021059D01*
X002781Y021110D01*
X002824Y021164D01*
D18*
X000856Y021896D02*
X000858Y021959D01*
X000864Y022021D01*
X000874Y022083D01*
X000887Y022145D01*
X000905Y022205D01*
X000926Y022264D01*
X000951Y022322D01*
X000980Y022378D01*
X001012Y022432D01*
X001047Y022484D01*
X001085Y022533D01*
X001127Y022581D01*
X001171Y022625D01*
X001219Y022667D01*
X001268Y022705D01*
X001320Y022740D01*
X001374Y022772D01*
X001430Y022801D01*
X001488Y022826D01*
X001547Y022847D01*
X001607Y022865D01*
X001669Y022878D01*
X001731Y022888D01*
X001793Y022894D01*
X001856Y022896D01*
X001919Y022894D01*
X001981Y022888D01*
X002043Y022878D01*
X002105Y022865D01*
X002165Y022847D01*
X002224Y022826D01*
X002282Y022801D01*
X002338Y022772D01*
X002392Y022740D01*
X002444Y022705D01*
X002493Y022667D01*
X002541Y022625D01*
X002585Y022581D01*
X002627Y022533D01*
X002665Y022484D01*
X002700Y022432D01*
X002732Y022378D01*
X002761Y022322D01*
X002786Y022264D01*
X002807Y022205D01*
X002825Y022145D01*
X002838Y022083D01*
X002848Y022021D01*
X002854Y021959D01*
X002856Y021896D01*
X002854Y021833D01*
X002848Y021771D01*
X002838Y021709D01*
X002825Y021647D01*
X002807Y021587D01*
X002786Y021528D01*
X002761Y021470D01*
X002732Y021414D01*
X002700Y021360D01*
X002665Y021308D01*
X002627Y021259D01*
X002585Y021211D01*
X002541Y021167D01*
X002493Y021125D01*
X002444Y021087D01*
X002392Y021052D01*
X002338Y021020D01*
X002282Y020991D01*
X002224Y020966D01*
X002165Y020945D01*
X002105Y020927D01*
X002043Y020914D01*
X001981Y020904D01*
X001919Y020898D01*
X001856Y020896D01*
X001793Y020898D01*
X001731Y020904D01*
X001669Y020914D01*
X001607Y020927D01*
X001547Y020945D01*
X001488Y020966D01*
X001430Y020991D01*
X001374Y021020D01*
X001320Y021052D01*
X001268Y021087D01*
X001219Y021125D01*
X001171Y021167D01*
X001127Y021211D01*
X001085Y021259D01*
X001047Y021308D01*
X001012Y021360D01*
X000980Y021414D01*
X000951Y021470D01*
X000926Y021528D01*
X000905Y021587D01*
X000887Y021647D01*
X000874Y021709D01*
X000864Y021771D01*
X000858Y021833D01*
X000856Y021896D01*
X001700Y017649D02*
X001700Y017449D01*
X001700Y017649D02*
X001900Y017649D01*
X002400Y017649D02*
X002600Y017649D01*
X002600Y017449D01*
X002700Y017449D02*
X002700Y017649D01*
X002900Y017649D01*
X003400Y017649D02*
X003600Y017649D01*
X003600Y017449D01*
X003700Y017449D02*
X003700Y017649D01*
X003900Y017649D01*
X004400Y017649D02*
X004600Y017649D01*
X004600Y017449D01*
X004700Y017449D02*
X004700Y017649D01*
X004900Y017649D01*
X005400Y017649D02*
X005600Y017649D01*
X005600Y017449D01*
X005700Y017449D02*
X005700Y017649D01*
X005900Y017649D01*
X006400Y017649D02*
X006600Y017649D01*
X006600Y017449D01*
X006700Y017449D02*
X006700Y017649D01*
X006900Y017649D01*
X007400Y017649D02*
X007600Y017649D01*
X007600Y017449D01*
X007700Y017449D02*
X007700Y017649D01*
X007900Y017649D01*
X008400Y017649D02*
X008600Y017649D01*
X008600Y017449D01*
X008700Y017449D02*
X008700Y017649D01*
X008900Y017649D01*
X009400Y017649D02*
X009600Y017649D01*
X009600Y017449D01*
X009700Y017449D02*
X009700Y017649D01*
X009900Y017649D01*
X010400Y017649D02*
X010600Y017649D01*
X010600Y017449D01*
X010700Y017449D02*
X010700Y017649D01*
X010900Y017649D01*
X011400Y017649D02*
X011600Y017649D01*
X011600Y017449D01*
X011700Y017449D02*
X011700Y017649D01*
X011900Y017649D01*
X012400Y017649D02*
X012600Y017649D01*
X012600Y017449D01*
X012700Y017449D02*
X012700Y017649D01*
X012900Y017649D01*
X013400Y017649D02*
X013600Y017649D01*
X013600Y017449D01*
X013700Y017449D02*
X013700Y017649D01*
X013900Y017649D01*
X014400Y017649D02*
X014600Y017649D01*
X014600Y017449D01*
X014600Y016949D02*
X014600Y016749D01*
X014400Y016749D01*
X014400Y016649D02*
X014600Y016649D01*
X014600Y016449D01*
X014600Y015949D02*
X014600Y015749D01*
X014400Y015749D01*
X014400Y015649D02*
X014600Y015649D01*
X014600Y015449D01*
X014600Y014949D02*
X014600Y014749D01*
X014400Y014749D01*
X014400Y014649D02*
X014600Y014649D01*
X014600Y014449D01*
X014600Y013949D02*
X014600Y013749D01*
X014400Y013749D01*
X014400Y013649D02*
X014600Y013649D01*
X014600Y013449D01*
X014600Y012949D02*
X014600Y012749D01*
X014400Y012749D01*
X014400Y012649D02*
X014600Y012649D01*
X014600Y012449D01*
X014600Y011949D02*
X014600Y011749D01*
X014400Y011749D01*
X014400Y011649D02*
X014600Y011649D01*
X014600Y011449D01*
X014600Y010949D02*
X014600Y010749D01*
X014400Y010749D01*
X014400Y010649D02*
X014600Y010649D01*
X014600Y010449D01*
X014600Y009949D02*
X014600Y009749D01*
X014400Y009749D01*
X014400Y009649D02*
X014600Y009649D01*
X014600Y009449D01*
X014600Y008949D02*
X014600Y008749D01*
X014400Y008749D01*
X014400Y008649D02*
X014600Y008649D01*
X014600Y008449D01*
X014600Y007949D02*
X014600Y007749D01*
X014400Y007749D01*
X014400Y007649D02*
X014600Y007649D01*
X014600Y007449D01*
X013900Y007649D02*
X013700Y007649D01*
X013700Y007449D01*
X013600Y007449D02*
X013600Y007649D01*
X013400Y007649D01*
X013400Y007749D02*
X013600Y007749D01*
X013600Y007949D01*
X013700Y007949D02*
X013700Y007749D01*
X013900Y007749D01*
X012900Y007749D02*
X012700Y007749D01*
X012700Y007949D01*
X012600Y007949D02*
X012600Y007749D01*
X012400Y007749D01*
X012400Y007649D02*
X012600Y007649D01*
X012600Y007449D01*
X012700Y007449D02*
X012700Y007649D01*
X012900Y007649D01*
X012700Y006949D02*
X012700Y006749D01*
X012900Y006749D01*
X012900Y006649D02*
X012700Y006649D01*
X012700Y006449D01*
X012600Y006449D02*
X012600Y006649D01*
X012400Y006649D01*
X012400Y006749D02*
X012600Y006749D01*
X012600Y006949D01*
X011900Y006749D02*
X011700Y006749D01*
X011700Y006949D01*
X011600Y006949D02*
X011600Y006749D01*
X011400Y006749D01*
X011400Y006649D02*
X011600Y006649D01*
X011600Y006449D01*
X011700Y006449D02*
X011700Y006649D01*
X011900Y006649D01*
X011700Y005949D02*
X011700Y005749D01*
X011900Y005749D01*
X011900Y005649D02*
X011700Y005649D01*
X011700Y005449D01*
X011600Y005449D02*
X011600Y005649D01*
X011400Y005649D01*
X011400Y005749D02*
X011600Y005749D01*
X011600Y005949D01*
X010900Y005749D02*
X010700Y005749D01*
X010700Y005949D01*
X010600Y005949D02*
X010600Y005749D01*
X010400Y005749D01*
X010400Y005649D02*
X010600Y005649D01*
X010600Y005449D01*
X010700Y005449D02*
X010700Y005649D01*
X010900Y005649D01*
X010700Y004949D02*
X010700Y004749D01*
X010900Y004749D01*
X010600Y004749D02*
X010600Y004949D01*
X010600Y004749D02*
X010400Y004749D01*
X009900Y004749D02*
X009700Y004749D01*
X009700Y004949D01*
X009600Y004949D02*
X009600Y004749D01*
X009400Y004749D01*
X008900Y004749D02*
X008700Y004749D01*
X008700Y004949D01*
X008600Y004949D02*
X008600Y004749D01*
X008400Y004749D01*
X007900Y004749D02*
X007700Y004749D01*
X007700Y004949D01*
X007600Y004949D02*
X007600Y004749D01*
X007400Y004749D01*
X006900Y004749D02*
X006700Y004749D01*
X006700Y004949D01*
X006600Y004949D02*
X006600Y004749D01*
X006400Y004749D01*
X005900Y004749D02*
X005700Y004749D01*
X005700Y004949D01*
X005600Y004949D02*
X005600Y004749D01*
X005400Y004749D01*
X004900Y004749D02*
X004700Y004749D01*
X004700Y004949D01*
X004600Y004949D02*
X004600Y004749D01*
X004400Y004749D01*
X003900Y004749D02*
X003700Y004749D01*
X003700Y004949D01*
X003600Y004949D02*
X003600Y004749D01*
X003400Y004749D01*
X002900Y004749D02*
X002700Y004749D01*
X002700Y004949D01*
X002600Y004949D02*
X002600Y004749D01*
X002400Y004749D01*
X001900Y004749D02*
X001700Y004749D01*
X001700Y004949D01*
X001700Y005449D02*
X001700Y005649D01*
X001900Y005649D01*
X001900Y005749D02*
X001700Y005749D01*
X001700Y005949D01*
X001700Y006449D02*
X001700Y006649D01*
X001900Y006649D01*
X001900Y006749D02*
X001700Y006749D01*
X001700Y006949D01*
X002400Y006749D02*
X002600Y006749D01*
X002600Y006949D01*
X002700Y006949D02*
X002700Y006749D01*
X002900Y006749D01*
X002900Y006649D02*
X002700Y006649D01*
X002700Y006449D01*
X002600Y006449D02*
X002600Y006649D01*
X002400Y006649D01*
X002600Y005949D02*
X002600Y005749D01*
X002400Y005749D01*
X002400Y005649D02*
X002600Y005649D01*
X002600Y005449D01*
X002700Y005449D02*
X002700Y005649D01*
X002900Y005649D01*
X002900Y005749D02*
X002700Y005749D01*
X002700Y005949D01*
X003400Y005749D02*
X003600Y005749D01*
X003600Y005949D01*
X003700Y005949D02*
X003700Y005749D01*
X003900Y005749D01*
X003900Y005649D02*
X003700Y005649D01*
X003700Y005449D01*
X003600Y005449D02*
X003600Y005649D01*
X003400Y005649D01*
X004400Y005649D02*
X004600Y005649D01*
X004600Y005449D01*
X004700Y005449D02*
X004700Y005649D01*
X004900Y005649D01*
X004900Y005749D02*
X004700Y005749D01*
X004700Y005949D01*
X004600Y005949D02*
X004600Y005749D01*
X004400Y005749D01*
X004600Y006449D02*
X004600Y006649D01*
X004400Y006649D01*
X004400Y006749D02*
X004600Y006749D01*
X004600Y006949D01*
X004700Y006949D02*
X004700Y006749D01*
X004900Y006749D01*
X004900Y006649D02*
X004700Y006649D01*
X004700Y006449D01*
X005400Y006649D02*
X005600Y006649D01*
X005600Y006449D01*
X005700Y006449D02*
X005700Y006649D01*
X005900Y006649D01*
X005900Y006749D02*
X005700Y006749D01*
X005700Y006949D01*
X005600Y006949D02*
X005600Y006749D01*
X005400Y006749D01*
X005600Y007449D02*
X005600Y007649D01*
X005400Y007649D01*
X005400Y007749D02*
X005600Y007749D01*
X005600Y007949D01*
X005700Y007949D02*
X005700Y007749D01*
X005900Y007749D01*
X005900Y007649D02*
X005700Y007649D01*
X005700Y007449D01*
X006400Y007649D02*
X006600Y007649D01*
X006600Y007449D01*
X006700Y007449D02*
X006700Y007649D01*
X006900Y007649D01*
X006900Y007749D02*
X006700Y007749D01*
X006700Y007949D01*
X006600Y007949D02*
X006600Y007749D01*
X006400Y007749D01*
X006600Y008449D02*
X006600Y008649D01*
X006400Y008649D01*
X006400Y008749D02*
X006600Y008749D01*
X006600Y008949D01*
X006700Y008949D02*
X006700Y008749D01*
X006900Y008749D01*
X006900Y008649D02*
X006700Y008649D01*
X006700Y008449D01*
X007400Y008649D02*
X007600Y008649D01*
X007600Y008449D01*
X007700Y008449D02*
X007700Y008649D01*
X007900Y008649D01*
X007900Y008749D02*
X007700Y008749D01*
X007700Y008949D01*
X007600Y008949D02*
X007600Y008749D01*
X007400Y008749D01*
X008400Y008749D02*
X008600Y008749D01*
X008600Y008949D01*
X008700Y008949D02*
X008700Y008749D01*
X008900Y008749D01*
X008900Y008649D02*
X008700Y008649D01*
X008700Y008449D01*
X008600Y008449D02*
X008600Y008649D01*
X008400Y008649D01*
X008600Y007949D02*
X008600Y007749D01*
X008400Y007749D01*
X008400Y007649D02*
X008600Y007649D01*
X008600Y007449D01*
X008700Y007449D02*
X008700Y007649D01*
X008900Y007649D01*
X008900Y007749D02*
X008700Y007749D01*
X008700Y007949D01*
X009400Y007749D02*
X009600Y007749D01*
X009600Y007949D01*
X009700Y007949D02*
X009700Y007749D01*
X009900Y007749D01*
X009900Y007649D02*
X009700Y007649D01*
X009700Y007449D01*
X009600Y007449D02*
X009600Y007649D01*
X009400Y007649D01*
X009600Y006949D02*
X009600Y006749D01*
X009400Y006749D01*
X009400Y006649D02*
X009600Y006649D01*
X009600Y006449D01*
X009700Y006449D02*
X009700Y006649D01*
X009900Y006649D01*
X009900Y006749D02*
X009700Y006749D01*
X009700Y006949D01*
X010400Y006749D02*
X010600Y006749D01*
X010600Y006949D01*
X010700Y006949D02*
X010700Y006749D01*
X010900Y006749D01*
X010900Y006649D02*
X010700Y006649D01*
X010700Y006449D01*
X010600Y006449D02*
X010600Y006649D01*
X010400Y006649D01*
X009700Y005949D02*
X009700Y005749D01*
X009900Y005749D01*
X009900Y005649D02*
X009700Y005649D01*
X009700Y005449D01*
X009600Y005449D02*
X009600Y005649D01*
X009400Y005649D01*
X009400Y005749D02*
X009600Y005749D01*
X009600Y005949D01*
X008900Y005749D02*
X008700Y005749D01*
X008700Y005949D01*
X008600Y005949D02*
X008600Y005749D01*
X008400Y005749D01*
X008400Y005649D02*
X008600Y005649D01*
X008600Y005449D01*
X008700Y005449D02*
X008700Y005649D01*
X008900Y005649D01*
X008700Y006449D02*
X008700Y006649D01*
X008900Y006649D01*
X008900Y006749D02*
X008700Y006749D01*
X008700Y006949D01*
X008600Y006949D02*
X008600Y006749D01*
X008400Y006749D01*
X008400Y006649D02*
X008600Y006649D01*
X008600Y006449D01*
X007900Y006649D02*
X007700Y006649D01*
X007700Y006449D01*
X007600Y006449D02*
X007600Y006649D01*
X007400Y006649D01*
X007400Y006749D02*
X007600Y006749D01*
X007600Y006949D01*
X007700Y006949D02*
X007700Y006749D01*
X007900Y006749D01*
X007700Y007449D02*
X007700Y007649D01*
X007900Y007649D01*
X007900Y007749D02*
X007700Y007749D01*
X007700Y007949D01*
X007600Y007949D02*
X007600Y007749D01*
X007400Y007749D01*
X007400Y007649D02*
X007600Y007649D01*
X007600Y007449D01*
X006900Y006749D02*
X006700Y006749D01*
X006700Y006949D01*
X006600Y006949D02*
X006600Y006749D01*
X006400Y006749D01*
X006400Y006649D02*
X006600Y006649D01*
X006600Y006449D01*
X006700Y006449D02*
X006700Y006649D01*
X006900Y006649D01*
X006700Y005949D02*
X006700Y005749D01*
X006900Y005749D01*
X006900Y005649D02*
X006700Y005649D01*
X006700Y005449D01*
X006600Y005449D02*
X006600Y005649D01*
X006400Y005649D01*
X006400Y005749D02*
X006600Y005749D01*
X006600Y005949D01*
X005900Y005749D02*
X005700Y005749D01*
X005700Y005949D01*
X005600Y005949D02*
X005600Y005749D01*
X005400Y005749D01*
X005400Y005649D02*
X005600Y005649D01*
X005600Y005449D01*
X005700Y005449D02*
X005700Y005649D01*
X005900Y005649D01*
X007400Y005649D02*
X007600Y005649D01*
X007600Y005449D01*
X007700Y005449D02*
X007700Y005649D01*
X007900Y005649D01*
X007900Y005749D02*
X007700Y005749D01*
X007700Y005949D01*
X007600Y005949D02*
X007600Y005749D01*
X007400Y005749D01*
X004900Y007649D02*
X004700Y007649D01*
X004700Y007449D01*
X004600Y007449D02*
X004600Y007649D01*
X004400Y007649D01*
X004400Y007749D02*
X004600Y007749D01*
X004600Y007949D01*
X004700Y007949D02*
X004700Y007749D01*
X004900Y007749D01*
X004700Y008449D02*
X004700Y008649D01*
X004900Y008649D01*
X004900Y008749D02*
X004700Y008749D01*
X004700Y008949D01*
X004600Y008949D02*
X004600Y008749D01*
X004400Y008749D01*
X004400Y008649D02*
X004600Y008649D01*
X004600Y008449D01*
X003900Y008649D02*
X003700Y008649D01*
X003700Y008449D01*
X003600Y008449D02*
X003600Y008649D01*
X003400Y008649D01*
X003400Y008749D02*
X003600Y008749D01*
X003600Y008949D01*
X003700Y008949D02*
X003700Y008749D01*
X003900Y008749D01*
X003700Y009449D02*
X003700Y009649D01*
X003900Y009649D01*
X003900Y009749D02*
X003700Y009749D01*
X003700Y009949D01*
X003600Y009949D02*
X003600Y009749D01*
X003400Y009749D01*
X003400Y009649D02*
X003600Y009649D01*
X003600Y009449D01*
X002900Y009649D02*
X002700Y009649D01*
X002700Y009449D01*
X002600Y009449D02*
X002600Y009649D01*
X002400Y009649D01*
X002400Y009749D02*
X002600Y009749D01*
X002600Y009949D01*
X002700Y009949D02*
X002700Y009749D01*
X002900Y009749D01*
X001900Y009749D02*
X001700Y009749D01*
X001700Y009949D01*
X001700Y009649D02*
X001700Y009449D01*
X001700Y009649D02*
X001900Y009649D01*
X001700Y008949D02*
X001700Y008749D01*
X001900Y008749D01*
X001900Y008649D02*
X001700Y008649D01*
X001700Y008449D01*
X001700Y007949D02*
X001700Y007749D01*
X001900Y007749D01*
X001900Y007649D02*
X001700Y007649D01*
X001700Y007449D01*
X002400Y007649D02*
X002600Y007649D01*
X002600Y007449D01*
X002700Y007449D02*
X002700Y007649D01*
X002900Y007649D01*
X002900Y007749D02*
X002700Y007749D01*
X002700Y007949D01*
X002600Y007949D02*
X002600Y007749D01*
X002400Y007749D01*
X002600Y008449D02*
X002600Y008649D01*
X002400Y008649D01*
X002400Y008749D02*
X002600Y008749D01*
X002600Y008949D01*
X002700Y008949D02*
X002700Y008749D01*
X002900Y008749D01*
X002900Y008649D02*
X002700Y008649D01*
X002700Y008449D01*
X003600Y007949D02*
X003600Y007749D01*
X003400Y007749D01*
X003400Y007649D02*
X003600Y007649D01*
X003600Y007449D01*
X003700Y007449D02*
X003700Y007649D01*
X003900Y007649D01*
X003900Y007749D02*
X003700Y007749D01*
X003700Y007949D01*
X005400Y008649D02*
X005600Y008649D01*
X005600Y008449D01*
X005700Y008449D02*
X005700Y008649D01*
X005900Y008649D01*
X005900Y008749D02*
X005700Y008749D01*
X005700Y008949D01*
X005600Y008949D02*
X005600Y008749D01*
X005400Y008749D01*
X005600Y009449D02*
X005600Y009649D01*
X005400Y009649D01*
X005400Y009749D02*
X005600Y009749D01*
X005600Y009949D01*
X005700Y009949D02*
X005700Y009749D01*
X005900Y009749D01*
X005900Y009649D02*
X005700Y009649D01*
X005700Y009449D01*
X006400Y009649D02*
X006600Y009649D01*
X006600Y009449D01*
X006700Y009449D02*
X006700Y009649D01*
X006900Y009649D01*
X006900Y009749D02*
X006700Y009749D01*
X006700Y009949D01*
X006600Y009949D02*
X006600Y009749D01*
X006400Y009749D01*
X006600Y010449D02*
X006600Y010649D01*
X006400Y010649D01*
X006400Y010749D02*
X006600Y010749D01*
X006600Y010949D01*
X006700Y010949D02*
X006700Y010749D01*
X006900Y010749D01*
X006900Y010649D02*
X006700Y010649D01*
X006700Y010449D01*
X007400Y010649D02*
X007600Y010649D01*
X007600Y010449D01*
X007700Y010449D02*
X007700Y010649D01*
X007900Y010649D01*
X007900Y010749D02*
X007700Y010749D01*
X007700Y010949D01*
X007600Y010949D02*
X007600Y010749D01*
X007400Y010749D01*
X008400Y010749D02*
X008600Y010749D01*
X008600Y010949D01*
X008700Y010949D02*
X008700Y010749D01*
X008900Y010749D01*
X008900Y010649D02*
X008700Y010649D01*
X008700Y010449D01*
X008600Y010449D02*
X008600Y010649D01*
X008400Y010649D01*
X008600Y009949D02*
X008600Y009749D01*
X008400Y009749D01*
X008400Y009649D02*
X008600Y009649D01*
X008600Y009449D01*
X008700Y009449D02*
X008700Y009649D01*
X008900Y009649D01*
X008900Y009749D02*
X008700Y009749D01*
X008700Y009949D01*
X009400Y009749D02*
X009600Y009749D01*
X009600Y009949D01*
X009700Y009949D02*
X009700Y009749D01*
X009900Y009749D01*
X009900Y009649D02*
X009700Y009649D01*
X009700Y009449D01*
X009600Y009449D02*
X009600Y009649D01*
X009400Y009649D01*
X009600Y008949D02*
X009600Y008749D01*
X009400Y008749D01*
X009400Y008649D02*
X009600Y008649D01*
X009600Y008449D01*
X009700Y008449D02*
X009700Y008649D01*
X009900Y008649D01*
X009900Y008749D02*
X009700Y008749D01*
X009700Y008949D01*
X010400Y008749D02*
X010600Y008749D01*
X010600Y008949D01*
X010700Y008949D02*
X010700Y008749D01*
X010900Y008749D01*
X010900Y008649D02*
X010700Y008649D01*
X010700Y008449D01*
X010600Y008449D02*
X010600Y008649D01*
X010400Y008649D01*
X010600Y007949D02*
X010600Y007749D01*
X010400Y007749D01*
X010400Y007649D02*
X010600Y007649D01*
X010600Y007449D01*
X010700Y007449D02*
X010700Y007649D01*
X010900Y007649D01*
X010900Y007749D02*
X010700Y007749D01*
X010700Y007949D01*
X011400Y007749D02*
X011600Y007749D01*
X011600Y007949D01*
X011700Y007949D02*
X011700Y007749D01*
X011900Y007749D01*
X011900Y007649D02*
X011700Y007649D01*
X011700Y007449D01*
X011600Y007449D02*
X011600Y007649D01*
X011400Y007649D01*
X011600Y008449D02*
X011600Y008649D01*
X011400Y008649D01*
X011400Y008749D02*
X011600Y008749D01*
X011600Y008949D01*
X011700Y008949D02*
X011700Y008749D01*
X011900Y008749D01*
X011900Y008649D02*
X011700Y008649D01*
X011700Y008449D01*
X012400Y008649D02*
X012600Y008649D01*
X012600Y008449D01*
X012700Y008449D02*
X012700Y008649D01*
X012900Y008649D01*
X012900Y008749D02*
X012700Y008749D01*
X012700Y008949D01*
X012600Y008949D02*
X012600Y008749D01*
X012400Y008749D01*
X012600Y009449D02*
X012600Y009649D01*
X012400Y009649D01*
X012400Y009749D02*
X012600Y009749D01*
X012600Y009949D01*
X012700Y009949D02*
X012700Y009749D01*
X012900Y009749D01*
X012900Y009649D02*
X012700Y009649D01*
X012700Y009449D01*
X013400Y009649D02*
X013600Y009649D01*
X013600Y009449D01*
X013700Y009449D02*
X013700Y009649D01*
X013900Y009649D01*
X013900Y009749D02*
X013700Y009749D01*
X013700Y009949D01*
X013600Y009949D02*
X013600Y009749D01*
X013400Y009749D01*
X013600Y010449D02*
X013600Y010649D01*
X013400Y010649D01*
X013400Y010749D02*
X013600Y010749D01*
X013600Y010949D01*
X013700Y010949D02*
X013700Y010749D01*
X013900Y010749D01*
X013900Y010649D02*
X013700Y010649D01*
X013700Y010449D01*
X012900Y010649D02*
X012700Y010649D01*
X012700Y010449D01*
X012600Y010449D02*
X012600Y010649D01*
X012400Y010649D01*
X012400Y010749D02*
X012600Y010749D01*
X012600Y010949D01*
X012700Y010949D02*
X012700Y010749D01*
X012900Y010749D01*
X012700Y011449D02*
X012700Y011649D01*
X012900Y011649D01*
X012900Y011749D02*
X012700Y011749D01*
X012700Y011949D01*
X012600Y011949D02*
X012600Y011749D01*
X012400Y011749D01*
X012400Y011649D02*
X012600Y011649D01*
X012600Y011449D01*
X011900Y011649D02*
X011700Y011649D01*
X011700Y011449D01*
X011600Y011449D02*
X011600Y011649D01*
X011400Y011649D01*
X011400Y011749D02*
X011600Y011749D01*
X011600Y011949D01*
X011700Y011949D02*
X011700Y011749D01*
X011900Y011749D01*
X011700Y012449D02*
X011700Y012649D01*
X011900Y012649D01*
X011900Y012749D02*
X011700Y012749D01*
X011700Y012949D01*
X011600Y012949D02*
X011600Y012749D01*
X011400Y012749D01*
X011400Y012649D02*
X011600Y012649D01*
X011600Y012449D01*
X010900Y012649D02*
X010700Y012649D01*
X010700Y012449D01*
X010600Y012449D02*
X010600Y012649D01*
X010400Y012649D01*
X010400Y012749D02*
X010600Y012749D01*
X010600Y012949D01*
X010700Y012949D02*
X010700Y012749D01*
X010900Y012749D01*
X010700Y013449D02*
X010700Y013649D01*
X010900Y013649D01*
X010900Y013749D02*
X010700Y013749D01*
X010700Y013949D01*
X010600Y013949D02*
X010600Y013749D01*
X010400Y013749D01*
X010400Y013649D02*
X010600Y013649D01*
X010600Y013449D01*
X009900Y013649D02*
X009700Y013649D01*
X009700Y013449D01*
X009600Y013449D02*
X009600Y013649D01*
X009400Y013649D01*
X009400Y013749D02*
X009600Y013749D01*
X009600Y013949D01*
X009700Y013949D02*
X009700Y013749D01*
X009900Y013749D01*
X008900Y013749D02*
X008700Y013749D01*
X008700Y013949D01*
X008600Y013949D02*
X008600Y013749D01*
X008400Y013749D01*
X008400Y013649D02*
X008600Y013649D01*
X008600Y013449D01*
X008700Y013449D02*
X008700Y013649D01*
X008900Y013649D01*
X008700Y012949D02*
X008700Y012749D01*
X008900Y012749D01*
X008900Y012649D02*
X008700Y012649D01*
X008700Y012449D01*
X008600Y012449D02*
X008600Y012649D01*
X008400Y012649D01*
X008400Y012749D02*
X008600Y012749D01*
X008600Y012949D01*
X007900Y012749D02*
X007700Y012749D01*
X007700Y012949D01*
X007600Y012949D02*
X007600Y012749D01*
X007400Y012749D01*
X007400Y012649D02*
X007600Y012649D01*
X007600Y012449D01*
X007700Y012449D02*
X007700Y012649D01*
X007900Y012649D01*
X007700Y011949D02*
X007700Y011749D01*
X007900Y011749D01*
X007900Y011649D02*
X007700Y011649D01*
X007700Y011449D01*
X007600Y011449D02*
X007600Y011649D01*
X007400Y011649D01*
X007400Y011749D02*
X007600Y011749D01*
X007600Y011949D01*
X006900Y011749D02*
X006700Y011749D01*
X006700Y011949D01*
X006600Y011949D02*
X006600Y011749D01*
X006400Y011749D01*
X006400Y011649D02*
X006600Y011649D01*
X006600Y011449D01*
X006700Y011449D02*
X006700Y011649D01*
X006900Y011649D01*
X005900Y011649D02*
X005700Y011649D01*
X005700Y011449D01*
X005600Y011449D02*
X005600Y011649D01*
X005400Y011649D01*
X005400Y011749D02*
X005600Y011749D01*
X005600Y011949D01*
X005700Y011949D02*
X005700Y011749D01*
X005900Y011749D01*
X005700Y012449D02*
X005700Y012649D01*
X005900Y012649D01*
X005900Y012749D02*
X005700Y012749D01*
X005700Y012949D01*
X005600Y012949D02*
X005600Y012749D01*
X005400Y012749D01*
X005400Y012649D02*
X005600Y012649D01*
X005600Y012449D01*
X004900Y012649D02*
X004700Y012649D01*
X004700Y012449D01*
X004600Y012449D02*
X004600Y012649D01*
X004400Y012649D01*
X004400Y012749D02*
X004600Y012749D01*
X004600Y012949D01*
X004700Y012949D02*
X004700Y012749D01*
X004900Y012749D01*
X004700Y013449D02*
X004700Y013649D01*
X004900Y013649D01*
X004900Y013749D02*
X004700Y013749D01*
X004700Y013949D01*
X004600Y013949D02*
X004600Y013749D01*
X004400Y013749D01*
X004400Y013649D02*
X004600Y013649D01*
X004600Y013449D01*
X003900Y013649D02*
X003700Y013649D01*
X003700Y013449D01*
X003600Y013449D02*
X003600Y013649D01*
X003400Y013649D01*
X003400Y013749D02*
X003600Y013749D01*
X003600Y013949D01*
X003700Y013949D02*
X003700Y013749D01*
X003900Y013749D01*
X003700Y014449D02*
X003700Y014649D01*
X003900Y014649D01*
X003900Y014749D02*
X003700Y014749D01*
X003700Y014949D01*
X003600Y014949D02*
X003600Y014749D01*
X003400Y014749D01*
X003400Y014649D02*
X003600Y014649D01*
X003600Y014449D01*
X002900Y014649D02*
X002700Y014649D01*
X002700Y014449D01*
X002600Y014449D02*
X002600Y014649D01*
X002400Y014649D01*
X002400Y014749D02*
X002600Y014749D01*
X002600Y014949D01*
X002700Y014949D02*
X002700Y014749D01*
X002900Y014749D01*
X001900Y014749D02*
X001700Y014749D01*
X001700Y014949D01*
X001700Y014649D02*
X001700Y014449D01*
X001700Y014649D02*
X001900Y014649D01*
X001700Y013949D02*
X001700Y013749D01*
X001900Y013749D01*
X001900Y013649D02*
X001700Y013649D01*
X001700Y013449D01*
X001700Y012949D02*
X001700Y012749D01*
X001900Y012749D01*
X001900Y012649D02*
X001700Y012649D01*
X001700Y012449D01*
X001700Y011949D02*
X001700Y011749D01*
X001900Y011749D01*
X001900Y011649D02*
X001700Y011649D01*
X001700Y011449D01*
X001700Y010949D02*
X001700Y010749D01*
X001900Y010749D01*
X001900Y010649D02*
X001700Y010649D01*
X001700Y010449D01*
X002400Y010649D02*
X002600Y010649D01*
X002600Y010449D01*
X002700Y010449D02*
X002700Y010649D01*
X002900Y010649D01*
X002900Y010749D02*
X002700Y010749D01*
X002700Y010949D01*
X002600Y010949D02*
X002600Y010749D01*
X002400Y010749D01*
X002600Y011449D02*
X002600Y011649D01*
X002400Y011649D01*
X002400Y011749D02*
X002600Y011749D01*
X002600Y011949D01*
X002700Y011949D02*
X002700Y011749D01*
X002900Y011749D01*
X002900Y011649D02*
X002700Y011649D01*
X002700Y011449D01*
X003400Y011649D02*
X003600Y011649D01*
X003600Y011449D01*
X003700Y011449D02*
X003700Y011649D01*
X003900Y011649D01*
X003900Y011749D02*
X003700Y011749D01*
X003700Y011949D01*
X003600Y011949D02*
X003600Y011749D01*
X003400Y011749D01*
X003600Y012449D02*
X003600Y012649D01*
X003400Y012649D01*
X003400Y012749D02*
X003600Y012749D01*
X003600Y012949D01*
X003700Y012949D02*
X003700Y012749D01*
X003900Y012749D01*
X003900Y012649D02*
X003700Y012649D01*
X003700Y012449D01*
X004400Y011749D02*
X004600Y011749D01*
X004600Y011949D01*
X004700Y011949D02*
X004700Y011749D01*
X004900Y011749D01*
X004900Y011649D02*
X004700Y011649D01*
X004700Y011449D01*
X004600Y011449D02*
X004600Y011649D01*
X004400Y011649D01*
X004600Y010949D02*
X004600Y010749D01*
X004400Y010749D01*
X004400Y010649D02*
X004600Y010649D01*
X004600Y010449D01*
X004700Y010449D02*
X004700Y010649D01*
X004900Y010649D01*
X004900Y010749D02*
X004700Y010749D01*
X004700Y010949D01*
X005400Y010749D02*
X005600Y010749D01*
X005600Y010949D01*
X005700Y010949D02*
X005700Y010749D01*
X005900Y010749D01*
X005900Y010649D02*
X005700Y010649D01*
X005700Y010449D01*
X005600Y010449D02*
X005600Y010649D01*
X005400Y010649D01*
X004700Y009949D02*
X004700Y009749D01*
X004900Y009749D01*
X004900Y009649D02*
X004700Y009649D01*
X004700Y009449D01*
X004600Y009449D02*
X004600Y009649D01*
X004400Y009649D01*
X004400Y009749D02*
X004600Y009749D01*
X004600Y009949D01*
X003700Y010449D02*
X003700Y010649D01*
X003900Y010649D01*
X003900Y010749D02*
X003700Y010749D01*
X003700Y010949D01*
X003600Y010949D02*
X003600Y010749D01*
X003400Y010749D01*
X003400Y010649D02*
X003600Y010649D01*
X003600Y010449D01*
X002700Y012449D02*
X002700Y012649D01*
X002900Y012649D01*
X002900Y012749D02*
X002700Y012749D01*
X002700Y012949D01*
X002600Y012949D02*
X002600Y012749D01*
X002400Y012749D01*
X002400Y012649D02*
X002600Y012649D01*
X002600Y012449D01*
X002600Y013449D02*
X002600Y013649D01*
X002400Y013649D01*
X002400Y013749D02*
X002600Y013749D01*
X002600Y013949D01*
X002700Y013949D02*
X002700Y013749D01*
X002900Y013749D01*
X002900Y013649D02*
X002700Y013649D01*
X002700Y013449D01*
X004400Y014649D02*
X004600Y014649D01*
X004600Y014449D01*
X004700Y014449D02*
X004700Y014649D01*
X004900Y014649D01*
X004900Y014749D02*
X004700Y014749D01*
X004700Y014949D01*
X004600Y014949D02*
X004600Y014749D01*
X004400Y014749D01*
X004600Y015449D02*
X004600Y015649D01*
X004400Y015649D01*
X004400Y015749D02*
X004600Y015749D01*
X004600Y015949D01*
X004700Y015949D02*
X004700Y015749D01*
X004900Y015749D01*
X004900Y015649D02*
X004700Y015649D01*
X004700Y015449D01*
X005400Y015649D02*
X005600Y015649D01*
X005600Y015449D01*
X005700Y015449D02*
X005700Y015649D01*
X005900Y015649D01*
X005900Y015749D02*
X005700Y015749D01*
X005700Y015949D01*
X005600Y015949D02*
X005600Y015749D01*
X005400Y015749D01*
X005600Y016449D02*
X005600Y016649D01*
X005400Y016649D01*
X005400Y016749D02*
X005600Y016749D01*
X005600Y016949D01*
X005700Y016949D02*
X005700Y016749D01*
X005900Y016749D01*
X005900Y016649D02*
X005700Y016649D01*
X005700Y016449D01*
X006400Y016649D02*
X006600Y016649D01*
X006600Y016449D01*
X006700Y016449D02*
X006700Y016649D01*
X006900Y016649D01*
X006900Y016749D02*
X006700Y016749D01*
X006700Y016949D01*
X006600Y016949D02*
X006600Y016749D01*
X006400Y016749D01*
X006600Y015949D02*
X006600Y015749D01*
X006400Y015749D01*
X006400Y015649D02*
X006600Y015649D01*
X006600Y015449D01*
X006700Y015449D02*
X006700Y015649D01*
X006900Y015649D01*
X006900Y015749D02*
X006700Y015749D01*
X006700Y015949D01*
X007400Y015749D02*
X007600Y015749D01*
X007600Y015949D01*
X007700Y015949D02*
X007700Y015749D01*
X007900Y015749D01*
X007900Y015649D02*
X007700Y015649D01*
X007700Y015449D01*
X007600Y015449D02*
X007600Y015649D01*
X007400Y015649D01*
X008400Y015649D02*
X008600Y015649D01*
X008600Y015449D01*
X008700Y015449D02*
X008700Y015649D01*
X008900Y015649D01*
X008900Y015749D02*
X008700Y015749D01*
X008700Y015949D01*
X008600Y015949D02*
X008600Y015749D01*
X008400Y015749D01*
X008600Y016449D02*
X008600Y016649D01*
X008400Y016649D01*
X008400Y016749D02*
X008600Y016749D01*
X008600Y016949D01*
X008700Y016949D02*
X008700Y016749D01*
X008900Y016749D01*
X008900Y016649D02*
X008700Y016649D01*
X008700Y016449D01*
X009400Y016649D02*
X009600Y016649D01*
X009600Y016449D01*
X009700Y016449D02*
X009700Y016649D01*
X009900Y016649D01*
X009900Y016749D02*
X009700Y016749D01*
X009700Y016949D01*
X009600Y016949D02*
X009600Y016749D01*
X009400Y016749D01*
X009600Y015949D02*
X009600Y015749D01*
X009400Y015749D01*
X009400Y015649D02*
X009600Y015649D01*
X009600Y015449D01*
X009700Y015449D02*
X009700Y015649D01*
X009900Y015649D01*
X009900Y015749D02*
X009700Y015749D01*
X009700Y015949D01*
X010400Y015749D02*
X010600Y015749D01*
X010600Y015949D01*
X010700Y015949D02*
X010700Y015749D01*
X010900Y015749D01*
X010900Y015649D02*
X010700Y015649D01*
X010700Y015449D01*
X010600Y015449D02*
X010600Y015649D01*
X010400Y015649D01*
X010600Y014949D02*
X010600Y014749D01*
X010400Y014749D01*
X010400Y014649D02*
X010600Y014649D01*
X010600Y014449D01*
X010700Y014449D02*
X010700Y014649D01*
X010900Y014649D01*
X010900Y014749D02*
X010700Y014749D01*
X010700Y014949D01*
X011400Y014749D02*
X011600Y014749D01*
X011600Y014949D01*
X011700Y014949D02*
X011700Y014749D01*
X011900Y014749D01*
X011900Y014649D02*
X011700Y014649D01*
X011700Y014449D01*
X011600Y014449D02*
X011600Y014649D01*
X011400Y014649D01*
X012400Y014649D02*
X012600Y014649D01*
X012600Y014449D01*
X012700Y014449D02*
X012700Y014649D01*
X012900Y014649D01*
X012900Y014749D02*
X012700Y014749D01*
X012700Y014949D01*
X012600Y014949D02*
X012600Y014749D01*
X012400Y014749D01*
X012600Y015449D02*
X012600Y015649D01*
X012400Y015649D01*
X012400Y015749D02*
X012600Y015749D01*
X012600Y015949D01*
X012700Y015949D02*
X012700Y015749D01*
X012900Y015749D01*
X012900Y015649D02*
X012700Y015649D01*
X012700Y015449D01*
X013400Y015649D02*
X013600Y015649D01*
X013600Y015449D01*
X013700Y015449D02*
X013700Y015649D01*
X013900Y015649D01*
X013900Y015749D02*
X013700Y015749D01*
X013700Y015949D01*
X013600Y015949D02*
X013600Y015749D01*
X013400Y015749D01*
X013600Y016449D02*
X013600Y016649D01*
X013400Y016649D01*
X013400Y016749D02*
X013600Y016749D01*
X013600Y016949D01*
X013700Y016949D02*
X013700Y016749D01*
X013900Y016749D01*
X013900Y016649D02*
X013700Y016649D01*
X013700Y016449D01*
X012900Y016649D02*
X012700Y016649D01*
X012700Y016449D01*
X012600Y016449D02*
X012600Y016649D01*
X012400Y016649D01*
X012400Y016749D02*
X012600Y016749D01*
X012600Y016949D01*
X012700Y016949D02*
X012700Y016749D01*
X012900Y016749D01*
X011900Y016749D02*
X011700Y016749D01*
X011700Y016949D01*
X011600Y016949D02*
X011600Y016749D01*
X011400Y016749D01*
X011400Y016649D02*
X011600Y016649D01*
X011600Y016449D01*
X011700Y016449D02*
X011700Y016649D01*
X011900Y016649D01*
X011700Y015949D02*
X011700Y015749D01*
X011900Y015749D01*
X011900Y015649D02*
X011700Y015649D01*
X011700Y015449D01*
X011600Y015449D02*
X011600Y015649D01*
X011400Y015649D01*
X011400Y015749D02*
X011600Y015749D01*
X011600Y015949D01*
X010700Y016449D02*
X010700Y016649D01*
X010900Y016649D01*
X010900Y016749D02*
X010700Y016749D01*
X010700Y016949D01*
X010600Y016949D02*
X010600Y016749D01*
X010400Y016749D01*
X010400Y016649D02*
X010600Y016649D01*
X010600Y016449D01*
X009700Y014949D02*
X009700Y014749D01*
X009900Y014749D01*
X009900Y014649D02*
X009700Y014649D01*
X009700Y014449D01*
X009600Y014449D02*
X009600Y014649D01*
X009400Y014649D01*
X009400Y014749D02*
X009600Y014749D01*
X009600Y014949D01*
X008900Y014749D02*
X008700Y014749D01*
X008700Y014949D01*
X008600Y014949D02*
X008600Y014749D01*
X008400Y014749D01*
X008400Y014649D02*
X008600Y014649D01*
X008600Y014449D01*
X008700Y014449D02*
X008700Y014649D01*
X008900Y014649D01*
X007900Y014649D02*
X007700Y014649D01*
X007700Y014449D01*
X007600Y014449D02*
X007600Y014649D01*
X007400Y014649D01*
X007400Y014749D02*
X007600Y014749D01*
X007600Y014949D01*
X007700Y014949D02*
X007700Y014749D01*
X007900Y014749D01*
X007700Y013949D02*
X007700Y013749D01*
X007900Y013749D01*
X007900Y013649D02*
X007700Y013649D01*
X007700Y013449D01*
X007600Y013449D02*
X007600Y013649D01*
X007400Y013649D01*
X007400Y013749D02*
X007600Y013749D01*
X007600Y013949D01*
X006900Y013749D02*
X006700Y013749D01*
X006700Y013949D01*
X006600Y013949D02*
X006600Y013749D01*
X006400Y013749D01*
X006400Y013649D02*
X006600Y013649D01*
X006600Y013449D01*
X006700Y013449D02*
X006700Y013649D01*
X006900Y013649D01*
X006700Y012949D02*
X006700Y012749D01*
X006900Y012749D01*
X006900Y012649D02*
X006700Y012649D01*
X006700Y012449D01*
X006600Y012449D02*
X006600Y012649D01*
X006400Y012649D01*
X006400Y012749D02*
X006600Y012749D01*
X006600Y012949D01*
X005900Y013649D02*
X005700Y013649D01*
X005700Y013449D01*
X005600Y013449D02*
X005600Y013649D01*
X005400Y013649D01*
X005400Y013749D02*
X005600Y013749D01*
X005600Y013949D01*
X005700Y013949D02*
X005700Y013749D01*
X005900Y013749D01*
X005700Y014449D02*
X005700Y014649D01*
X005900Y014649D01*
X005900Y014749D02*
X005700Y014749D01*
X005700Y014949D01*
X005600Y014949D02*
X005600Y014749D01*
X005400Y014749D01*
X005400Y014649D02*
X005600Y014649D01*
X005600Y014449D01*
X006400Y014649D02*
X006600Y014649D01*
X006600Y014449D01*
X006700Y014449D02*
X006700Y014649D01*
X006900Y014649D01*
X006900Y014749D02*
X006700Y014749D01*
X006700Y014949D01*
X006600Y014949D02*
X006600Y014749D01*
X006400Y014749D01*
X007600Y016449D02*
X007600Y016649D01*
X007400Y016649D01*
X007400Y016749D02*
X007600Y016749D01*
X007600Y016949D01*
X007700Y016949D02*
X007700Y016749D01*
X007900Y016749D01*
X007900Y016649D02*
X007700Y016649D01*
X007700Y016449D01*
X004900Y016649D02*
X004700Y016649D01*
X004700Y016449D01*
X004600Y016449D02*
X004600Y016649D01*
X004400Y016649D01*
X004400Y016749D02*
X004600Y016749D01*
X004600Y016949D01*
X004700Y016949D02*
X004700Y016749D01*
X004900Y016749D01*
X003900Y016749D02*
X003700Y016749D01*
X003700Y016949D01*
X003600Y016949D02*
X003600Y016749D01*
X003400Y016749D01*
X003400Y016649D02*
X003600Y016649D01*
X003600Y016449D01*
X003700Y016449D02*
X003700Y016649D01*
X003900Y016649D01*
X003700Y015949D02*
X003700Y015749D01*
X003900Y015749D01*
X003900Y015649D02*
X003700Y015649D01*
X003700Y015449D01*
X003600Y015449D02*
X003600Y015649D01*
X003400Y015649D01*
X003400Y015749D02*
X003600Y015749D01*
X003600Y015949D01*
X002900Y015749D02*
X002700Y015749D01*
X002700Y015949D01*
X002600Y015949D02*
X002600Y015749D01*
X002400Y015749D01*
X002400Y015649D02*
X002600Y015649D01*
X002600Y015449D01*
X002700Y015449D02*
X002700Y015649D01*
X002900Y015649D01*
X001900Y015649D02*
X001700Y015649D01*
X001700Y015449D01*
X001700Y015749D02*
X001900Y015749D01*
X001700Y015749D02*
X001700Y015949D01*
X001700Y016449D02*
X001700Y016649D01*
X001900Y016649D01*
X001900Y016749D02*
X001700Y016749D01*
X001700Y016949D01*
X002400Y016749D02*
X002600Y016749D01*
X002600Y016949D01*
X002700Y016949D02*
X002700Y016749D01*
X002900Y016749D01*
X002900Y016649D02*
X002700Y016649D01*
X002700Y016449D01*
X002600Y016449D02*
X002600Y016649D01*
X002400Y016649D01*
X009400Y012749D02*
X009600Y012749D01*
X009600Y012949D01*
X009700Y012949D02*
X009700Y012749D01*
X009900Y012749D01*
X009900Y012649D02*
X009700Y012649D01*
X009700Y012449D01*
X009600Y012449D02*
X009600Y012649D01*
X009400Y012649D01*
X009600Y011949D02*
X009600Y011749D01*
X009400Y011749D01*
X009400Y011649D02*
X009600Y011649D01*
X009600Y011449D01*
X009700Y011449D02*
X009700Y011649D01*
X009900Y011649D01*
X009900Y011749D02*
X009700Y011749D01*
X009700Y011949D01*
X010400Y011749D02*
X010600Y011749D01*
X010600Y011949D01*
X010700Y011949D02*
X010700Y011749D01*
X010900Y011749D01*
X010900Y011649D02*
X010700Y011649D01*
X010700Y011449D01*
X010600Y011449D02*
X010600Y011649D01*
X010400Y011649D01*
X010600Y010949D02*
X010600Y010749D01*
X010400Y010749D01*
X010400Y010649D02*
X010600Y010649D01*
X010600Y010449D01*
X010700Y010449D02*
X010700Y010649D01*
X010900Y010649D01*
X010900Y010749D02*
X010700Y010749D01*
X010700Y010949D01*
X011400Y010749D02*
X011600Y010749D01*
X011600Y010949D01*
X011700Y010949D02*
X011700Y010749D01*
X011900Y010749D01*
X011900Y010649D02*
X011700Y010649D01*
X011700Y010449D01*
X011600Y010449D02*
X011600Y010649D01*
X011400Y010649D01*
X011600Y009949D02*
X011600Y009749D01*
X011400Y009749D01*
X011400Y009649D02*
X011600Y009649D01*
X011600Y009449D01*
X011700Y009449D02*
X011700Y009649D01*
X011900Y009649D01*
X011900Y009749D02*
X011700Y009749D01*
X011700Y009949D01*
X010900Y009749D02*
X010700Y009749D01*
X010700Y009949D01*
X010600Y009949D02*
X010600Y009749D01*
X010400Y009749D01*
X010400Y009649D02*
X010600Y009649D01*
X010600Y009449D01*
X010700Y009449D02*
X010700Y009649D01*
X010900Y009649D01*
X009700Y010449D02*
X009700Y010649D01*
X009900Y010649D01*
X009900Y010749D02*
X009700Y010749D01*
X009700Y010949D01*
X009600Y010949D02*
X009600Y010749D01*
X009400Y010749D01*
X009400Y010649D02*
X009600Y010649D01*
X009600Y010449D01*
X008700Y011449D02*
X008700Y011649D01*
X008900Y011649D01*
X008900Y011749D02*
X008700Y011749D01*
X008700Y011949D01*
X008600Y011949D02*
X008600Y011749D01*
X008400Y011749D01*
X008400Y011649D02*
X008600Y011649D01*
X008600Y011449D01*
X007700Y009949D02*
X007700Y009749D01*
X007900Y009749D01*
X007900Y009649D02*
X007700Y009649D01*
X007700Y009449D01*
X007600Y009449D02*
X007600Y009649D01*
X007400Y009649D01*
X007400Y009749D02*
X007600Y009749D01*
X007600Y009949D01*
X003900Y006749D02*
X003700Y006749D01*
X003700Y006949D01*
X003600Y006949D02*
X003600Y006749D01*
X003400Y006749D01*
X003400Y006649D02*
X003600Y006649D01*
X003600Y006449D01*
X003700Y006449D02*
X003700Y006649D01*
X003900Y006649D01*
X000853Y002099D02*
X000855Y002162D01*
X000861Y002224D01*
X000871Y002286D01*
X000884Y002348D01*
X000902Y002408D01*
X000923Y002467D01*
X000948Y002525D01*
X000977Y002581D01*
X001009Y002635D01*
X001044Y002687D01*
X001082Y002736D01*
X001124Y002784D01*
X001168Y002828D01*
X001216Y002870D01*
X001265Y002908D01*
X001317Y002943D01*
X001371Y002975D01*
X001427Y003004D01*
X001485Y003029D01*
X001544Y003050D01*
X001604Y003068D01*
X001666Y003081D01*
X001728Y003091D01*
X001790Y003097D01*
X001853Y003099D01*
X001916Y003097D01*
X001978Y003091D01*
X002040Y003081D01*
X002102Y003068D01*
X002162Y003050D01*
X002221Y003029D01*
X002279Y003004D01*
X002335Y002975D01*
X002389Y002943D01*
X002441Y002908D01*
X002490Y002870D01*
X002538Y002828D01*
X002582Y002784D01*
X002624Y002736D01*
X002662Y002687D01*
X002697Y002635D01*
X002729Y002581D01*
X002758Y002525D01*
X002783Y002467D01*
X002804Y002408D01*
X002822Y002348D01*
X002835Y002286D01*
X002845Y002224D01*
X002851Y002162D01*
X002853Y002099D01*
X002851Y002036D01*
X002845Y001974D01*
X002835Y001912D01*
X002822Y001850D01*
X002804Y001790D01*
X002783Y001731D01*
X002758Y001673D01*
X002729Y001617D01*
X002697Y001563D01*
X002662Y001511D01*
X002624Y001462D01*
X002582Y001414D01*
X002538Y001370D01*
X002490Y001328D01*
X002441Y001290D01*
X002389Y001255D01*
X002335Y001223D01*
X002279Y001194D01*
X002221Y001169D01*
X002162Y001148D01*
X002102Y001130D01*
X002040Y001117D01*
X001978Y001107D01*
X001916Y001101D01*
X001853Y001099D01*
X001790Y001101D01*
X001728Y001107D01*
X001666Y001117D01*
X001604Y001130D01*
X001544Y001148D01*
X001485Y001169D01*
X001427Y001194D01*
X001371Y001223D01*
X001317Y001255D01*
X001265Y001290D01*
X001216Y001328D01*
X001168Y001370D01*
X001124Y001414D01*
X001082Y001462D01*
X001044Y001511D01*
X001009Y001563D01*
X000977Y001617D01*
X000948Y001673D01*
X000923Y001731D01*
X000902Y001790D01*
X000884Y001850D01*
X000871Y001912D01*
X000861Y001974D01*
X000855Y002036D01*
X000853Y002099D01*
X011400Y004749D02*
X011600Y004749D01*
X011600Y004949D01*
X011700Y004949D02*
X011700Y004749D01*
X011900Y004749D01*
X012400Y004749D02*
X012600Y004749D01*
X012600Y004949D01*
X012700Y004949D02*
X012700Y004749D01*
X012900Y004749D01*
X013400Y004749D02*
X013600Y004749D01*
X013600Y004949D01*
X013700Y004949D02*
X013700Y004749D01*
X013900Y004749D01*
X014400Y004749D02*
X014600Y004749D01*
X014600Y004949D01*
X014600Y005449D02*
X014600Y005649D01*
X014400Y005649D01*
X014400Y005749D02*
X014600Y005749D01*
X014600Y005949D01*
X014600Y006449D02*
X014600Y006649D01*
X014400Y006649D01*
X014400Y006749D02*
X014600Y006749D01*
X014600Y006949D01*
X013900Y006749D02*
X013700Y006749D01*
X013700Y006949D01*
X013600Y006949D02*
X013600Y006749D01*
X013400Y006749D01*
X013400Y006649D02*
X013600Y006649D01*
X013600Y006449D01*
X013700Y006449D02*
X013700Y006649D01*
X013900Y006649D01*
X013700Y005949D02*
X013700Y005749D01*
X013900Y005749D01*
X013900Y005649D02*
X013700Y005649D01*
X013700Y005449D01*
X013600Y005449D02*
X013600Y005649D01*
X013400Y005649D01*
X013400Y005749D02*
X013600Y005749D01*
X013600Y005949D01*
X012900Y005749D02*
X012700Y005749D01*
X012700Y005949D01*
X012600Y005949D02*
X012600Y005749D01*
X012400Y005749D01*
X012400Y005649D02*
X012600Y005649D01*
X012600Y005449D01*
X012700Y005449D02*
X012700Y005649D01*
X012900Y005649D01*
X013600Y008449D02*
X013600Y008649D01*
X013400Y008649D01*
X013400Y008749D02*
X013600Y008749D01*
X013600Y008949D01*
X013700Y008949D02*
X013700Y008749D01*
X013900Y008749D01*
X013900Y008649D02*
X013700Y008649D01*
X013700Y008449D01*
X013700Y011449D02*
X013700Y011649D01*
X013900Y011649D01*
X013900Y011749D02*
X013700Y011749D01*
X013700Y011949D01*
X013600Y011949D02*
X013600Y011749D01*
X013400Y011749D01*
X013400Y011649D02*
X013600Y011649D01*
X013600Y011449D01*
X013600Y012449D02*
X013600Y012649D01*
X013400Y012649D01*
X013400Y012749D02*
X013600Y012749D01*
X013600Y012949D01*
X013700Y012949D02*
X013700Y012749D01*
X013900Y012749D01*
X013900Y012649D02*
X013700Y012649D01*
X013700Y012449D01*
X012900Y012649D02*
X012700Y012649D01*
X012700Y012449D01*
X012600Y012449D02*
X012600Y012649D01*
X012400Y012649D01*
X012400Y012749D02*
X012600Y012749D01*
X012600Y012949D01*
X012700Y012949D02*
X012700Y012749D01*
X012900Y012749D01*
X012700Y013449D02*
X012700Y013649D01*
X012900Y013649D01*
X012900Y013749D02*
X012700Y013749D01*
X012700Y013949D01*
X012600Y013949D02*
X012600Y013749D01*
X012400Y013749D01*
X012400Y013649D02*
X012600Y013649D01*
X012600Y013449D01*
X011900Y013649D02*
X011700Y013649D01*
X011700Y013449D01*
X011600Y013449D02*
X011600Y013649D01*
X011400Y013649D01*
X011400Y013749D02*
X011600Y013749D01*
X011600Y013949D01*
X011700Y013949D02*
X011700Y013749D01*
X011900Y013749D01*
X013400Y013749D02*
X013600Y013749D01*
X013600Y013949D01*
X013700Y013949D02*
X013700Y013749D01*
X013900Y013749D01*
X013900Y013649D02*
X013700Y013649D01*
X013700Y013449D01*
X013600Y013449D02*
X013600Y013649D01*
X013400Y013649D01*
X013600Y014449D02*
X013600Y014649D01*
X013400Y014649D01*
X013400Y014749D02*
X013600Y014749D01*
X013600Y014949D01*
X013700Y014949D02*
X013700Y014749D01*
X013900Y014749D01*
X013900Y014649D02*
X013700Y014649D01*
X013700Y014449D01*
X032841Y021899D02*
X032843Y021962D01*
X032849Y022024D01*
X032859Y022086D01*
X032872Y022148D01*
X032890Y022208D01*
X032911Y022267D01*
X032936Y022325D01*
X032965Y022381D01*
X032997Y022435D01*
X033032Y022487D01*
X033070Y022536D01*
X033112Y022584D01*
X033156Y022628D01*
X033204Y022670D01*
X033253Y022708D01*
X033305Y022743D01*
X033359Y022775D01*
X033415Y022804D01*
X033473Y022829D01*
X033532Y022850D01*
X033592Y022868D01*
X033654Y022881D01*
X033716Y022891D01*
X033778Y022897D01*
X033841Y022899D01*
X033904Y022897D01*
X033966Y022891D01*
X034028Y022881D01*
X034090Y022868D01*
X034150Y022850D01*
X034209Y022829D01*
X034267Y022804D01*
X034323Y022775D01*
X034377Y022743D01*
X034429Y022708D01*
X034478Y022670D01*
X034526Y022628D01*
X034570Y022584D01*
X034612Y022536D01*
X034650Y022487D01*
X034685Y022435D01*
X034717Y022381D01*
X034746Y022325D01*
X034771Y022267D01*
X034792Y022208D01*
X034810Y022148D01*
X034823Y022086D01*
X034833Y022024D01*
X034839Y021962D01*
X034841Y021899D01*
X034839Y021836D01*
X034833Y021774D01*
X034823Y021712D01*
X034810Y021650D01*
X034792Y021590D01*
X034771Y021531D01*
X034746Y021473D01*
X034717Y021417D01*
X034685Y021363D01*
X034650Y021311D01*
X034612Y021262D01*
X034570Y021214D01*
X034526Y021170D01*
X034478Y021128D01*
X034429Y021090D01*
X034377Y021055D01*
X034323Y021023D01*
X034267Y020994D01*
X034209Y020969D01*
X034150Y020948D01*
X034090Y020930D01*
X034028Y020917D01*
X033966Y020907D01*
X033904Y020901D01*
X033841Y020899D01*
X033778Y020901D01*
X033716Y020907D01*
X033654Y020917D01*
X033592Y020930D01*
X033532Y020948D01*
X033473Y020969D01*
X033415Y020994D01*
X033359Y021023D01*
X033305Y021055D01*
X033253Y021090D01*
X033204Y021128D01*
X033156Y021170D01*
X033112Y021214D01*
X033070Y021262D01*
X033032Y021311D01*
X032997Y021363D01*
X032965Y021417D01*
X032936Y021473D01*
X032911Y021531D01*
X032890Y021590D01*
X032872Y021650D01*
X032859Y021712D01*
X032849Y021774D01*
X032843Y021836D01*
X032841Y021899D01*
X032841Y002099D02*
X032843Y002162D01*
X032849Y002224D01*
X032859Y002286D01*
X032872Y002348D01*
X032890Y002408D01*
X032911Y002467D01*
X032936Y002525D01*
X032965Y002581D01*
X032997Y002635D01*
X033032Y002687D01*
X033070Y002736D01*
X033112Y002784D01*
X033156Y002828D01*
X033204Y002870D01*
X033253Y002908D01*
X033305Y002943D01*
X033359Y002975D01*
X033415Y003004D01*
X033473Y003029D01*
X033532Y003050D01*
X033592Y003068D01*
X033654Y003081D01*
X033716Y003091D01*
X033778Y003097D01*
X033841Y003099D01*
X033904Y003097D01*
X033966Y003091D01*
X034028Y003081D01*
X034090Y003068D01*
X034150Y003050D01*
X034209Y003029D01*
X034267Y003004D01*
X034323Y002975D01*
X034377Y002943D01*
X034429Y002908D01*
X034478Y002870D01*
X034526Y002828D01*
X034570Y002784D01*
X034612Y002736D01*
X034650Y002687D01*
X034685Y002635D01*
X034717Y002581D01*
X034746Y002525D01*
X034771Y002467D01*
X034792Y002408D01*
X034810Y002348D01*
X034823Y002286D01*
X034833Y002224D01*
X034839Y002162D01*
X034841Y002099D01*
X034839Y002036D01*
X034833Y001974D01*
X034823Y001912D01*
X034810Y001850D01*
X034792Y001790D01*
X034771Y001731D01*
X034746Y001673D01*
X034717Y001617D01*
X034685Y001563D01*
X034650Y001511D01*
X034612Y001462D01*
X034570Y001414D01*
X034526Y001370D01*
X034478Y001328D01*
X034429Y001290D01*
X034377Y001255D01*
X034323Y001223D01*
X034267Y001194D01*
X034209Y001169D01*
X034150Y001148D01*
X034090Y001130D01*
X034028Y001117D01*
X033966Y001107D01*
X033904Y001101D01*
X033841Y001099D01*
X033778Y001101D01*
X033716Y001107D01*
X033654Y001117D01*
X033592Y001130D01*
X033532Y001148D01*
X033473Y001169D01*
X033415Y001194D01*
X033359Y001223D01*
X033305Y001255D01*
X033253Y001290D01*
X033204Y001328D01*
X033156Y001370D01*
X033112Y001414D01*
X033070Y001462D01*
X033032Y001511D01*
X032997Y001563D01*
X032965Y001617D01*
X032936Y001673D01*
X032911Y001731D01*
X032890Y001790D01*
X032872Y001850D01*
X032859Y001912D01*
X032849Y001974D01*
X032843Y002036D01*
X032841Y002099D01*
M02*
